<svg width="21" height="14" viewBox="0 0 21 14" fill="none" xmlns="http://www.w3.org/2000/svg">
<path fill-rule="evenodd" clip-rule="evenodd" d="M15.4517 0.372997L20.2797 6.373C20.5787 6.744 20.5737 7.274 20.2687 7.641L15.2687 13.641C15.0707 13.878 14.7867 14 14.4997 14C14.2737 14 14.0477 13.924 13.8597 13.769C13.4357 13.415 13.3787 12.784 13.7317 12.359L18.2087 6.989L13.8927 1.627C13.5477 1.196 13.6147 0.566997 14.0457 0.220997C14.4757 -0.127003 15.1047 -0.0570035 15.4517 0.372997ZM5.73204 0.359683C6.08504 -0.0643172 6.71404 -0.121317 7.14104 0.231683C7.56504 0.585683 7.62204 1.21568 7.26904 1.64068L2.79204 7.01068L7.10804 12.3737C7.45304 12.8037 7.38604 13.4327 6.95504 13.7797C6.77104 13.9277 6.54904 14.0007 6.32904 14.0007C6.03704 14.0007 5.74704 13.8727 5.54904 13.6277L0.72104 7.62768C0.42204 7.25568 0.42704 6.72568 0.73204 6.35968L5.73204 0.359683Z" fill="#A0AFCA"/>
</svg>
