<svg width="19" height="18" viewBox="0 0 19 18" fill="none" xmlns="http://www.w3.org/2000/svg">
<path fill-rule="evenodd" clip-rule="evenodd" d="M4.5 4C4.5 3.447 4.948 3 5.5 3C6.052 3 6.5 3.447 6.5 4C6.5 4.553 6.052 5 5.5 5C4.948 5 4.5 4.553 4.5 4ZM8.49999 4C8.49999 3.447 8.94799 3 9.49999 3C10.052 3 10.5 3.447 10.5 4C10.5 4.553 10.052 5 9.49999 5C8.94799 5 8.49999 4.553 8.49999 4ZM2.5 6V3C2.5 2.448 2.949 2 3.5 2H15.5C16.051 2 16.5 2.448 16.5 3V6H2.5ZM16.5 15C16.5 15.552 16.051 16 15.5 16H3.5C2.949 16 2.5 15.552 2.5 15V8H16.5V15ZM15.5 0H3.5C1.846 0 0.5 1.346 0.5 3V6V8V15C0.5 16.654 1.846 18 3.5 18H15.5C17.154 18 18.5 16.654 18.5 15V8V6V3C18.5 1.346 17.154 0 15.5 0Z" fill="#A0AFCA"/>
</svg>
