<svg width="24" height="24" viewBox="0 0 24 24" fill="none" xmlns="http://www.w3.org/2000/svg">
<path fill-rule="evenodd" clip-rule="evenodd" d="M4.40262 11.6221C5.51862 12.0051 6.40762 12.9391 6.77962 14.1231L6.81962 14.2431C7.24563 15.4991 7.07262 16.8511 6.35862 17.8651C6.22862 18.0491 6.25762 18.2691 6.39462 18.3731L8.46662 19.9471C8.53962 20.0021 8.61062 20.0021 8.65462 19.9971C8.70463 19.9891 8.77762 19.9621 8.83662 19.8781L9.06762 19.5501C9.75662 18.5731 10.8666 17.9701 12.0386 17.9361C13.3546 17.9091 14.5366 18.5121 15.2726 19.5751L15.3906 19.7461C15.4496 19.8301 15.5216 19.8581 15.5726 19.8661C15.6166 19.8751 15.6886 19.8721 15.7606 19.8161L17.8216 18.2611C17.9656 18.1531 17.9976 17.9221 17.8906 17.7671L17.6306 17.3921C16.9606 16.4241 16.7616 15.1681 17.0986 14.0331C17.4646 12.7971 18.3956 11.8191 19.5906 11.4191L19.7916 11.3511C19.9526 11.2981 20.0396 11.0981 19.9826 10.9141L19.1956 8.39312C19.1586 8.27512 19.0826 8.22212 19.0406 8.20012C18.9806 8.16912 18.9156 8.16412 18.8536 8.18512L18.5136 8.29812C17.3506 8.68512 16.0676 8.47512 15.0826 7.73412L14.9746 7.65312C14.0386 6.94912 13.4816 5.81412 13.4856 4.61812L13.4876 4.33812C13.4876 4.20512 13.4246 4.12212 13.3866 4.08412C13.3506 4.04712 13.2896 4.00312 13.2036 4.00312L10.6566 4.00012C10.5006 4.00012 10.3736 4.14912 10.3726 4.33312L10.3716 4.57512C10.3666 5.79012 9.79762 6.94612 8.84962 7.66912L8.72062 7.76712C7.67762 8.56012 6.31762 8.78412 5.08562 8.36412C5.03862 8.34812 4.99462 8.35112 4.95262 8.37312C4.92062 8.38912 4.86262 8.43012 4.83462 8.52112L4.01762 11.1171C3.95862 11.3061 4.05562 11.5031 4.23862 11.5661L4.40262 11.6221ZM8.61362 22.0001C8.12762 22.0001 7.65562 21.8421 7.25762 21.5391L5.18562 19.9661C4.19562 19.2161 3.97662 17.7731 4.69662 16.7501C5.07062 16.2201 5.14762 15.5391 4.92762 14.8931L4.87262 14.7251C4.68962 14.1431 4.27162 13.6911 3.75462 13.5141H3.75362L3.59062 13.4571C2.37262 13.0401 1.72262 11.7491 2.10962 10.5171L2.92562 7.92212C3.11062 7.33512 3.50962 6.86112 4.04962 6.58812C4.57762 6.32212 5.17462 6.28112 5.73262 6.47212C6.33162 6.67612 6.99662 6.56512 7.50962 6.17512L7.63862 6.07712C8.09462 5.72912 8.36962 5.16412 8.37162 4.56712L8.37262 4.32612C8.37762 3.04212 9.40262 2.00012 10.6556 2.00012H10.6596L13.2066 2.00312C13.8086 2.00412 14.3766 2.24212 14.8046 2.67312C15.2476 3.11812 15.4896 3.71312 15.4876 4.34812L15.4856 4.62712C15.4836 5.19312 15.7426 5.72812 16.1796 6.05612L16.2866 6.13712C16.7456 6.48212 17.3436 6.58112 17.8806 6.40112L18.2196 6.28812C18.7966 6.09612 19.4106 6.14312 19.9516 6.42012C20.5066 6.70412 20.9166 7.19312 21.1046 7.79812L21.8916 10.3191C22.2716 11.5371 21.6136 12.8511 20.4266 13.2481L20.2256 13.3151C19.6496 13.5091 19.1966 13.9891 19.0156 14.6011C18.8496 15.1621 18.9456 15.7791 19.2746 16.2531L19.5346 16.6281C20.2486 17.6601 20.0206 19.1081 19.0266 19.8571L16.9656 21.4131C16.4706 21.7871 15.8636 21.9381 15.2546 21.8411C14.6406 21.7421 14.1046 21.4021 13.7456 20.8841L13.6276 20.7121C13.2776 20.2081 12.7176 19.9021 12.1306 19.9351C11.5426 19.9511 11.0346 20.2301 10.7026 20.7021L10.4716 21.0301C10.1096 21.5431 9.57262 21.8781 8.96162 21.9741C8.84462 21.9921 8.72862 22.0001 8.61362 22.0001ZM11.9998 10.5C11.1728 10.5 10.4998 11.173 10.4998 12C10.4998 12.827 11.1728 13.5 11.9998 13.5C12.8268 13.5 13.4998 12.827 13.4998 12C13.4998 11.173 12.8268 10.5 11.9998 10.5ZM11.9998 15.5C10.0698 15.5 8.49982 13.93 8.49982 12C8.49982 10.07 10.0698 8.50002 11.9998 8.50002C13.9298 8.50002 15.4998 10.07 15.4998 12C15.4998 13.93 13.9298 15.5 11.9998 15.5Z" fill="#A0AFCA"/>
</svg>
