<svg width="19" height="18" viewBox="0 0 19 18" fill="none" xmlns="http://www.w3.org/2000/svg">
<path fill-rule="evenodd" clip-rule="evenodd" d="M12.5 8C11.947 8 11.5 8.448 11.5 9C11.5 10.103 10.603 11 9.5 11C8.397 11 7.5 10.103 7.5 9C7.5 8.448 7.053 8 6.5 8C5.947 8 5.5 8.448 5.5 9C5.5 11.206 7.294 13 9.5 13C11.706 13 13.5 11.206 13.5 9C13.5 8.448 13.053 8 12.5 8ZM15.5 16H3.5C2.948 16 2.5 15.551 2.5 15V6H16.5V15C16.5 15.551 16.052 16 15.5 16ZM5.621 2.293C5.808 2.107 6.065 2 6.328 2H12.672C12.935 2 13.192 2.107 13.379 2.293L15.086 4H3.914L5.621 2.293ZM17.621 3.707L14.793 0.879C14.227 0.312 13.473 0 12.672 0H6.328C5.527 0 4.773 0.312 4.207 0.879L1.379 3.707C0.812 4.273 0.5 5.027 0.5 5.829V15C0.5 16.654 1.846 18 3.5 18H15.5C17.154 18 18.5 16.654 18.5 15V5.829C18.5 5.027 18.188 4.273 17.621 3.707Z" fill="#A0AFCA"/>
</svg>
