<svg width="24" height="24" viewBox="0 0 24 24" fill="none" xmlns="http://www.w3.org/2000/svg">
<path fill-rule="evenodd" clip-rule="evenodd" d="M8 13.3333V12C8 9.79467 9.79467 8 12 8H13.3333V3.556C13.3333 3.06533 12.9347 2.66667 12.444 2.66667H3.556C3.06533 2.66667 2.66667 3.06533 2.66667 3.556V12.444C2.66667 12.9347 3.06533 13.3333 3.556 13.3333H8ZM8 16H3.556C1.59467 16 0 14.4053 0 12.444V3.556C0 1.59467 1.59467 0 3.556 0H12.444C14.4053 0 16 1.59467 16 3.556V8H20C22.2053 8 24 9.79467 24 12V20C24 22.2053 22.2053 24 20 24H12C9.79467 24 8 22.2053 8 20V16ZM10.6667 12C10.6667 11.2653 11.2653 10.6667 12 10.6667H20C20.736 10.6667 21.3333 11.2653 21.3333 12V20C21.3333 20.7347 20.736 21.3333 20 21.3333H12C11.2653 21.3333 10.6667 20.7347 10.6667 20V12Z" fill="#707382"/>
</svg>
