<svg width="25" height="24" viewBox="0 0 25 24" fill="none" xmlns="http://www.w3.org/2000/svg">
<path fill-rule="evenodd" clip-rule="evenodd" d="M19.5016 4.0254C20.0516 4.0284 20.4966 4.4744 20.4966 5.0244L20.4996 9.9994C20.5006 10.5514 20.0526 11.0004 19.5006 11.0004H19.4996C18.9476 11.0004 18.5006 10.5524 18.4996 10.0014L18.4976 7.4164L15.2066 10.7074C15.0116 10.9024 14.7556 11.0004 14.4996 11.0004C14.2446 11.0004 13.9886 10.9024 13.7926 10.7074C13.4026 10.3164 13.4026 9.6834 13.7926 9.2934L17.0726 6.0134L14.4956 6.0004C13.9426 5.9974 13.4966 5.5464 13.4996 4.9954C13.5026 4.4444 13.9506 4.0004 14.4996 4.0004H14.5046L19.5016 4.0254ZM9.79302 13.293C10.184 12.902 10.816 12.902 11.207 13.293C11.598 13.684 11.598 14.316 11.207 14.707L7.91501 17.999L10.5 18C11.053 18 11.5 18.448 11.5 19.001C11.499 19.553 11.052 20 10.5 20H10.499L5.52402 19.997C4.97402 19.997 4.52802 19.552 4.52502 19.002L4.50002 14.005C4.49702 13.453 4.94302 13.003 5.49502 13H5.50002C6.05001 13 6.49701 13.444 6.50002 13.995L6.51302 16.573L9.79302 13.293Z" fill="#A0AFCA"/>
</svg>
