<svg width="25" height="24" viewBox="0 0 25 24" fill="none" xmlns="http://www.w3.org/2000/svg">
<path fill-rule="evenodd" clip-rule="evenodd" d="M3.5 7C3.5 6.448 3.948 6 4.5 6C5.052 6 5.5 6.448 5.5 7C5.5 7.552 5.052 8 4.5 8C3.948 8 3.5 7.552 3.5 7ZM3.5 12C3.5 11.448 3.948 11 4.5 11C5.052 11 5.5 11.448 5.5 12C5.5 12.552 5.052 13 4.5 13C3.948 13 3.5 12.552 3.5 12ZM4.5 16C3.948 16 3.5 16.448 3.5 17C3.5 17.552 3.948 18 4.5 18C5.052 18 5.5 17.552 5.5 17C5.5 16.448 5.052 16 4.5 16ZM8.4355 11H20.5645C21.0795 11 21.5005 11.421 21.5005 11.936V12.064C21.5005 12.579 21.0795 13 20.5645 13H8.4355C7.9205 13 7.5005 12.579 7.5005 12.064V11.936C7.5005 11.421 7.9205 11 8.4355 11ZM20.5645 16H8.4355C7.9205 16 7.5005 16.421 7.5005 16.936V17.064C7.5005 17.579 7.9205 18 8.4355 18H20.5645C21.0795 18 21.5005 17.579 21.5005 17.064V16.936C21.5005 16.421 21.0795 16 20.5645 16ZM8.4355 6H20.5645C21.0795 6 21.5005 6.421 21.5005 6.936V7.064C21.5005 7.579 21.0795 8 20.5645 8H8.4355C7.9205 8 7.5005 7.579 7.5005 7.064V6.936C7.5005 6.421 7.9205 6 8.4355 6Z" fill="#A0AFCA"/>
</svg>
