<svg width="17" height="20" viewBox="0 0 17 20" fill="none" xmlns="http://www.w3.org/2000/svg">
<path fill-rule="evenodd" clip-rule="evenodd" d="M8.4997 12H5.4997C4.9477 12 4.4997 11.552 4.4997 11C4.4997 10.448 4.9477 9.99998 5.4997 9.99998H8.4997C9.0517 9.99998 9.4997 10.448 9.4997 11C9.4997 11.552 9.0517 12 8.4997 12ZM5.4997 14H11.4997C12.0527 14 12.4997 14.448 12.4997 15C12.4997 15.552 12.0527 16 11.4997 16H5.4997C4.9477 16 4.4997 15.552 4.4997 15C4.4997 14.448 4.9477 14 5.4997 14ZM13.944 18H3.055C2.749 18 2.5 17.776 2.5 17.5V2.49998C2.5 2.22398 2.749 1.99998 3.055 1.99998H8.5V5.14998C8.5 6.72198 9.717 7.99998 11.214 7.99998H14.5V17.5C14.5 17.776 14.251 18 13.944 18ZM10.5 2.97798L13.242 5.99998H11.214C10.82 5.99998 10.5 5.61898 10.5 5.14998V2.97798ZM16.24 6.328L10.796 0.328C10.606 0.119 10.338 0 10.055 0H3.055C1.646 0 0.5 1.122 0.5 2.5V17.5C0.5 18.878 1.646 20 3.055 20H13.944C15.353 20 16.5 18.878 16.5 17.5V7C16.5 6.751 16.407 6.512 16.24 6.328Z" fill="#A0AFCA"/>
</svg>
