<svg width="25" height="24" viewBox="0 0 25 24" fill="none" xmlns="http://www.w3.org/2000/svg">
<path fill-rule="evenodd" clip-rule="evenodd" d="M5.5 5C5.5 3.34315 6.84315 2 8.5 2H16.5C18.1569 2 19.5 3.34315 19.5 5V19C19.5 20.6569 18.1569 22 16.5 22H8.5C6.84315 22 5.5 20.6569 5.5 19V5ZM8.5 4C7.94772 4 7.5 4.44772 7.5 5V19C7.5 19.5523 7.94772 20 8.5 20H16.5C17.0523 20 17.5 19.5523 17.5 19V5C17.5 4.44772 17.0523 4 16.5 4H8.5Z" fill="#A0AFCA"/>
<path d="M13.5 17C13.5 17.5523 13.0523 18 12.5 18C11.9477 18 11.5 17.5523 11.5 17C11.5 16.4477 11.9477 16 12.5 16C13.0523 16 13.5 16.4477 13.5 17Z" fill="#A0AFCA"/>
</svg>
