<svg width="25" height="24" viewBox="0 0 25 24" fill="none" xmlns="http://www.w3.org/2000/svg">
<path fill-rule="evenodd" clip-rule="evenodd" d="M7.50021 10.9993C7.50021 10.4473 7.94821 9.99928 8.50021 9.99928C9.05221 9.99928 9.50021 10.4473 9.50021 10.9993C9.50021 11.5513 9.05221 11.9993 8.50021 11.9993C7.94821 11.9993 7.50021 11.5513 7.50021 10.9993ZM12.5002 9.9993C11.9482 9.9993 11.5002 10.4473 11.5002 10.9993C11.5002 11.5513 11.9482 11.9993 12.5002 11.9993C13.0522 11.9993 13.5002 11.5513 13.5002 10.9993C13.5002 10.4473 13.0522 9.9993 12.5002 9.9993ZM16.5002 9.9993C15.9482 9.9993 15.5002 10.4473 15.5002 10.9993C15.5002 11.5513 15.9482 11.9993 16.5002 11.9993C17.0522 11.9993 17.5002 11.5513 17.5002 10.9993C17.5002 10.4473 17.0522 9.9993 16.5002 9.9993ZM20.3986 12.2942C19.8916 15.5482 17.2686 18.2472 14.0196 18.8562C12.4506 19.1522 10.8526 18.9832 9.40261 18.3692C8.99161 18.1952 8.56661 18.1072 8.14961 18.1072C7.95961 18.1072 7.77161 18.1252 7.58661 18.1622L4.77461 18.7242L5.33761 15.9072C5.45561 15.3222 5.38361 14.6962 5.13061 14.0972C4.51661 12.6472 4.34861 11.0502 4.64361 9.4802C5.25261 6.2312 7.95061 3.6082 11.2056 3.1012C13.7956 2.6982 16.3286 3.5142 18.1566 5.3422C19.9856 7.1712 20.8026 9.7052 20.3986 12.2942ZM19.5716 3.92817C17.2866 1.64417 14.1266 0.625171 10.8976 1.12417C6.8206 1.76017 3.4406 5.04417 2.6776 9.11117C2.3096 11.0692 2.5216 13.0632 3.2886 14.8762C3.3856 15.1072 3.4156 15.3222 3.3776 15.5152L2.5196 19.8032C2.4536 20.1312 2.5566 20.4702 2.7936 20.7062C2.9826 20.8962 3.2376 20.9992 3.5006 20.9992C3.5656 20.9992 3.6306 20.9932 3.6966 20.9802L7.9796 20.1232C8.2256 20.0762 8.4636 20.1452 8.6226 20.2112C10.4376 20.9782 12.4316 21.1892 14.3876 20.8222C18.4556 20.0592 21.7396 16.6792 22.3756 12.6022C22.8776 9.37517 21.8566 6.21317 19.5716 3.92817Z" fill="#A0AFCA"/>
</svg>
