<svg width="25" height="24" viewBox="0 0 25 24" fill="none" xmlns="http://www.w3.org/2000/svg">
<path fill-rule="evenodd" clip-rule="evenodd" d="M18.5 7V6.00003H6.5V7.00003C6.5 7.55003 6.05 8.00003 5.5 8.00003C4.95 8.00003 4.5 7.55003 4.5 7.00003V5.00003C4.5 4.45003 4.95 4.00003 5.5 4.00003H19.4921L19.5 4C19.8873 4 20.225 4.22314 20.3909 4.5472C20.4606 4.68334 20.5 4.83729 20.5 5L20.5 5.00003L20.5 5.00395V7C20.5 7.55 20.05 8 19.5 8C18.95 8 18.5 7.55 18.5 7ZM8.50099 14C8.19599 14 7.89699 13.862 7.69999 13.6C7.36799 13.158 7.45799 12.531 7.89999 12.2L11.9 9.19999C12.246 8.93999 12.722 8.93299 13.075 9.18199L17.075 11.996C17.527 12.314 17.636 12.938 17.318 13.389C17 13.84 16.377 13.95 15.925 13.632L13.4972 11.9241C13.499 11.9492 13.5 11.9745 13.5 12V20C13.5 20.552 13.053 21 12.5 21C11.947 21 11.5 20.552 11.5 20V12.0002L9.09999 13.8C8.91999 13.935 8.70999 14 8.50099 14Z" fill="#A0AFCA"/>
</svg>
