<svg width="25" height="24" viewBox="0 0 25 24" fill="none" xmlns="http://www.w3.org/2000/svg">
<path fill-rule="evenodd" clip-rule="evenodd" d="M17.5 8.00038H4.50002C3.94802 8.00038 3.50002 7.55338 3.50002 7.00038C3.50002 6.44738 3.94802 6.00038 4.50002 6.00038H17.582L16.024 4.79038C15.588 4.45138 15.509 3.82238 15.848 3.38738C16.187 2.95038 16.816 2.87138 17.251 3.21038L21.113 6.21038C21.36 6.40138 21.502 6.69638 21.5 7.00938C21.498 7.32038 21.35 7.61338 21.1 7.80038L17.1 10.8004C16.92 10.9354 16.709 11.0004 16.501 11.0004C16.197 11.0004 15.896 10.8624 15.7 10.6004C15.369 10.1584 15.458 9.53138 15.9 9.20038L17.5 8.00038ZM7.50002 15.0004H20.5C21.052 15.0004 21.5 15.4474 21.5 16.0004C21.5 16.5534 21.052 17.0004 20.5 17.0004H7.41802L8.97602 18.2104C9.41202 18.5494 9.49102 19.1784 9.15202 19.6134C8.95502 19.8674 8.66002 20.0004 8.36202 20.0004C8.14702 20.0004 7.93102 19.9324 7.74902 19.7904L3.88702 16.7904C3.64002 16.5994 3.49802 16.3044 3.50002 15.9914C3.50202 15.6804 3.65002 15.3874 3.90002 15.2004L7.90002 12.2004C8.34302 11.8694 8.96902 11.9584 9.30002 12.4004C9.63102 12.8424 9.54202 13.4694 9.10002 13.8004L7.50002 15.0004Z" fill="#A0AFCA"/>
</svg>
