<svg width="19" height="20" viewBox="0 0 19 20" fill="none" xmlns="http://www.w3.org/2000/svg">
<path fill-rule="evenodd" clip-rule="evenodd" d="M16.5 17C16.5 17.552 16.051 18 15.5 18H3.5C2.949 18 2.5 17.552 2.5 17V5.99998C2.5 5.44798 2.949 4.99998 3.5 4.99998V5.99998C3.5 7.10298 4.397 7.99998 5.5 7.99998H13.5C14.603 7.99998 15.5 7.10298 15.5 5.99998V4.99998C16.051 4.99998 16.5 5.44798 16.5 5.99998V17ZM5.5 1.99998L13.5 2.00298V2.99998V5.99998H5.5V2.99998V1.99998ZM15.5 3V2C15.5 0.897 14.603 0 13.5 0H5.5C4.397 0 3.5 0.897 3.5 2V3C1.846 3 0.5 4.346 0.5 6V17C0.5 18.654 1.846 20 3.5 20H15.5C17.154 20 18.5 18.654 18.5 17V6C18.5 4.346 17.154 3 15.5 3Z" fill="#A0AFCA"/>
</svg>
