<?xml version="1.0" encoding="UTF-8"?>
<svg id="Capa_1" data-name="Capa 1" xmlns="http://www.w3.org/2000/svg" viewBox="0 0 333.36 170.15">
  <defs>
    <style>
      .cls-1 {
        fill: #2d3338;
        font-family: Roboto-Regular, Roboto;
        font-size: 10px;
      }
    </style>
  </defs>
  <g>
    <g>
      <path d="M23.71,30.08V0s38.86,0,38.86,0c2.06,0,3.74,1.68,3.74,3.74V26.34c0,2.06-1.68,3.74-3.74,3.74H23.71ZM24.22,.51V29.57s38.34,0,38.34,0c1.78,0,3.23-1.45,3.23-3.23V3.74c0-1.78-1.45-3.23-3.23-3.23H24.22Z"/>
      <path d="M0,27.33V2.24s24.22,0,24.22,0V27.33S0,27.33,0,27.33ZM.51,2.76V26.82s23.19,0,23.19,0V2.76s-23.19,0-23.19,0Z"/>
      <path d="M65.79,21.23V8.85s12.38,0,12.38,0v12.38s-12.38,0-12.38,0Zm.51-11.87v11.35s11.35,0,11.35,0V9.36s-11.35,0-11.35,0Z"/>
      <path d="M77.66,18.26v-6.45s18.27,0,18.27,0v6.45s-18.27,0-18.27,0Zm.51-5.93v5.42s17.25,0,17.25,0v-5.42s-17.25,0-17.25,0Z"/>
      <g>
        <rect x="3.6" y="20.55" width="4.89" height="3.3" transform="translate(-16.16 28.25) rotate(-90)"/>
        <rect x="3.73" y="5.72" width="4.89" height="3.3" transform="translate(-1.2 13.55) rotate(-90)"/>
      </g>
      <path d="M.26,15.83H3.23c.15,0,.28-.14,.28-.32v-2.16s1.92,0,1.92,0v2.16c0,.18,.12,.32,.28,.32H15.69c.15,0,.28-.14,.28-.32v-2.16s2.13,0,2.13,0v2.16c0,.18,.12,.32,.28,.32h5.59v-.64h-5.32s0-2.16,0-2.16c0-.18-.12-.32-.28-.32h-2.68c-.15,0-.28,.14-.28,.32v2.16s-9.44,0-9.44,0v-2.16c0-.18-.12-.32-.28-.32H3.23c-.15,0-.28,.14-.28,.32v2.16s-2.7,0-2.7,0v.64Z"/>
    </g>
    <g>
      <path d="M273.34,122.78v-17.52c0-2.06,1.68-3.74,3.74-3.74h36.72s0,25,0,25h-36.72c-2.06,0-3.74-1.68-3.74-3.74Zm39.95-20.75h-36.21c-1.78,0-3.23,1.45-3.23,3.23v17.52c0,1.78,1.45,3.23,3.23,3.23h36.21s0-23.97,0-23.97Z"/>
      <path d="M261.47,120.07v-12.38s12.38,0,12.38,0v12.38s-12.38,0-12.38,0Zm.51-11.87v11.35s11.35,0,11.35,0v-11.35s-11.35,0-11.35,0Z"/>
      <path d="M243.71,117.11v-6.45s18.27,0,18.27,0v6.45s-18.27,0-18.27,0Zm.51-5.93v5.42s17.25,0,17.25,0v-5.42s-17.25,0-17.25,0Z"/>
      <path d="M283.98,114.02c0-2.95,2.4-5.36,5.36-5.36s5.36,2.4,5.36,5.36-2.4,5.36-5.36,5.36-5.36-2.4-5.36-5.36Zm10.2,0c0-2.67-2.17-4.84-4.84-4.84s-4.84,2.17-4.84,4.84,2.17,4.84,4.84,4.84,4.84-2.17,4.84-4.84Z"/>
      <path d="M313.29,122.63v-17.23s19.32,0,19.32,0c.42,0,.76,.34,.76,.76v15.71c0,.42-.34,.76-.76,.76h-19.32Zm.51-16.71v16.2s18.81,0,18.81,0c.13,0,.24-.11,.24-.24v-15.71c0-.13-.11-.24-.24-.24h-18.81Z"/>
      <path d="M313.29,120.97v-13.9s19.32,0,19.32,0c.42,0,.76,.34,.76,.76v12.38c0,.42-.34,.76-.76,.76h-19.32Zm.51-13.38v12.87s18.81,0,18.81,0c.13,0,.24-.11,.24-.24v-12.38c0-.13-.11-.24-.24-.24h-18.81Z"/>
    </g>
    <path d="M91.89,89.37c0-7.07,2.39-12.91,7.1-17.35,4.69-4.41,11.49-7.32,20.23-8.63,6.11-.92,10.99-.7,11.57-.67l77.66-.29v-.02s.3,.01,.3,.01h1.45s0,.02,0,.02c4.67,0,19.17-.69,27.32-8.43,3.85-3.66,5.81-8.5,5.81-14.4,0-5.39-1.88-9.94-5.58-13.52-10.84-10.48-33.7-9.85-33.93-9.84h-.05s-108.66,1.07-108.66,1.07l-.04-4.12h.26s108.38-1.07,108.38-1.07c.63-.02,6.42-.16,13.73,1.03,10.25,1.66,18.05,5.02,23.16,9.97,4.53,4.38,6.83,9.93,6.83,16.48,0,7.07-2.39,12.93-7.1,17.39-4.68,4.44-11.49,7.39-20.22,8.77-5.87,.93-10.59,.79-11.47,.76l-77.97,.29h-.07c-.19-.02-19.04-1.03-28.81,8.18-3.85,3.63-5.8,8.45-5.8,14.34,0,5.39,1.87,9.93,5.57,13.51,10.83,10.48,33.7,9.86,33.93,9.85h.04s108.66-1.07,108.66-1.07l.04,4.12h-.26s-108.37,1.07-108.37,1.07c-.65,.02-6.44,.16-13.74-1.03-10.25-1.66-18.05-5.02-23.16-9.97-4.53-4.38-6.83-9.93-6.83-16.48Zm116.84-26.42h-.04s-77.92,.29-77.92,.29h0c-.53-.03-5.39-.25-11.47,.66-8.63,1.3-15.34,4.16-19.95,8.49-4.61,4.34-6.94,10.05-6.94,16.97,0,6.4,2.25,11.82,6.67,16.11,5.04,4.88,12.74,8.18,22.89,9.83,7.26,1.18,13.01,1.04,13.64,1.02h0s108.12-1.07,108.12-1.07l-.03-3.09-108.14,1.07h-.04c-.23,0-23.32,.64-34.3-9.99-3.8-3.68-5.73-8.35-5.73-13.88,0-6.04,2.01-10.99,5.96-14.72,9.93-9.36,29-8.34,29.19-8.33h.05s77.97-.29,77.97-.29c.89,.04,5.57,.17,11.38-.75,8.63-1.36,15.34-4.27,19.95-8.64,4.61-4.37,6.94-10.09,6.94-17.02,0-6.4-2.25-11.82-6.67-16.11-5.04-4.88-12.74-8.18-22.89-9.83-7.27-1.18-13.01-1.04-13.64-1.02l-108.12,1.07,.03,3.09,108.14-1.07h.04c.23,0,23.3-.65,34.3,9.99,3.8,3.68,5.73,8.35,5.73,13.89,0,6.04-2.01,11.01-5.97,14.77-8.45,8.02-23.51,8.59-27.93,8.57h-.26s0-.03,0-.03h-.95s0,0,0,0Z"/>
  </g>
  <text class="cls-1" transform="translate(110.83 167.44)"><tspan x="0" y="0">Cable USB tipo C a tipo A</tspan></text>
</svg>