<?xml version="1.0" encoding="UTF-8"?>
<svg id="Capa_1" data-name="Capa 1" xmlns="http://www.w3.org/2000/svg" viewBox="0 0 317.57 178.54">
  <defs>
    <style>
      .cls-1 {
        letter-spacing: 0em;
      }

      .cls-2 {
        fill: #2d3338;
        font-family: Roboto-Regular, Roboto;
        font-size: 10px;
      }

      .cls-3 {
        letter-spacing: 0em;
      }
    </style>
  </defs>
  <g>
    <g>
      <path d="M7.66,45.08V.71C7.66,.32,7.97,0,8.36,0h29.11c.91,0,1.8,.33,2.48,.93l9.01,7.88c.82,.72,1.29,1.75,1.29,2.84v22.48c0,1.09-.47,2.12-1.29,2.84l-9.01,7.88c-.69,.6-1.57,.93-2.48,.93H8.36c-.39,0-.71-.32-.71-.71ZM49.74,11.65c0-.94-.41-1.83-1.11-2.45L39.62,1.32c-.59-.52-1.36-.81-2.15-.81H8.36c-.11,0-.19,.09-.19,.19V45.08c0,.11,.09,.19,.19,.19h29.11c.79,0,1.55-.29,2.15-.81l9.01-7.88c.71-.62,1.11-1.51,1.11-2.45V11.65Z"/>
      <g>
        <path d="M0,33.36V12.45c0-.89,.73-1.62,1.62-1.62H7.93s0,24.15,0,24.15H1.62c-.89,0-1.62-.73-1.62-1.62ZM7.41,11.35H1.62c-.61,0-1.1,.49-1.1,1.1v20.91c0,.61,.49,1.1,1.1,1.1H7.41s0-23.12,0-23.12Z"/>
        <path d="M0,14.6v-2.49s7.93,0,7.93,0v2.49s-7.93,0-7.93,0Zm.51-1.98v1.46H7.41v-1.46H.51Z"/>
        <path d="M0,33.47v-2.49s7.93,0,7.93,0v2.49s-7.93,0-7.93,0Zm.51-1.98v1.46H7.41v-1.46H.51Z"/>
      </g>
      <path d="M55.69,26.12v-6.45s17.96,0,17.96,0v6.45s-17.96,0-17.96,0Zm.51-5.93v5.42s16.93,0,16.93,0v-5.42s-16.93,0-16.93,0Z"/>
      <path d="M49.76,32.21V13.58s4.16,0,4.16,0c1.26,0,2.28,1.02,2.28,2.28v14.05c0,1.26-1.02,2.28-2.28,2.28h-4.16Zm.51-18.11V31.69h3.65c.98,0,1.77-.79,1.77-1.77V15.87c0-.98-.79-1.77-1.77-1.77h-3.65Z"/>
      <path d="M0,43.88v-5.6s7.92,0,7.92,0v5.6s-7.92,0-7.92,0Zm.51-5.08v4.57H7.41v-4.57H.52Z"/>
      <path d="M0,7.81V2.21s7.92,0,7.92,0V7.81s-7.92,0-7.92,0ZM.52,2.72V7.29H7.41V2.72H.52Z"/>
      <path d="M0,42.61v-3.06s7.92,0,7.92,0v3.06s-7.92,0-7.92,0Zm.51-2.54v2.03H7.41v-2.03H.52Z"/>
      <path d="M0,6.53V3.48s7.92,0,7.92,0v3.06S0,6.53,0,6.53ZM.51,3.99v2.03H7.4V3.99H.51Z"/>
    </g>
    <path d="M69.92,97.22c0-7.07,2.39-12.91,7.1-17.35,4.69-4.41,11.49-7.32,20.23-8.63,6.11-.92,11-.7,11.57-.67l77.66-.29h0s.3,0,.3,0h1.45s0,.02,0,.02c4.67,0,19.17-.69,27.32-8.43,3.85-3.66,5.81-8.5,5.81-14.4,0-5.39-1.88-9.94-5.58-13.52-10.85-10.5-33.7-9.85-33.93-9.84h-.05s-108.66,1.07-108.66,1.07l-.04-4.12h.26s108.38-1.07,108.38-1.07c.63-.02,6.43-.16,13.73,1.03,10.25,1.66,18.05,5.02,23.16,9.97,4.53,4.38,6.83,9.93,6.83,16.48,0,7.07-2.39,12.93-7.1,17.39-4.68,4.44-11.49,7.39-20.22,8.77-5.87,.93-10.59,.79-11.47,.76l-77.97,.29h-.07c-.19-.02-19.04-1.03-28.81,8.18-3.85,3.63-5.8,8.45-5.8,14.34,0,5.39,1.87,9.93,5.57,13.51,10.83,10.48,33.7,9.86,33.93,9.85h.04s108.66-1.07,108.66-1.07l.04,4.12h-.26s-108.37,1.07-108.37,1.07c-.65,.02-6.43,.16-13.74-1.03-10.25-1.66-18.05-5.02-23.16-9.97-4.53-4.38-6.83-9.93-6.83-16.48Zm116.85-26.42h-.04s-77.92,.29-77.92,.29h0c-.53-.03-5.39-.25-11.47,.66-8.63,1.3-15.35,4.16-19.95,8.49-4.61,4.34-6.94,10.05-6.94,16.97,0,6.41,2.25,11.82,6.67,16.11,5.04,4.88,12.74,8.18,22.89,9.83,7.26,1.18,13.01,1.04,13.64,1.02h0s108.12-1.07,108.12-1.07l-.03-3.09-108.14,1.07h-.04c-.23,0-23.32,.64-34.31-9.99-3.8-3.68-5.73-8.35-5.73-13.88,0-6.04,2.01-10.99,5.96-14.72,9.93-9.36,29-8.34,29.19-8.33h.05s77.97-.29,77.97-.29c.89,.04,5.57,.17,11.38-.75,8.63-1.36,15.34-4.27,19.95-8.64,4.61-4.37,6.94-10.09,6.94-17.02,0-6.41-2.25-11.82-6.67-16.11-5.04-4.88-12.74-8.18-22.89-9.83-7.26-1.18-13.01-1.04-13.64-1.02l-108.12,1.07,.03,3.09,108.14-1.07h.04c.23,0,23.29-.66,34.3,9.99,3.8,3.68,5.73,8.35,5.73,13.89,0,6.04-2.01,11.01-5.97,14.77-8.45,8.02-23.51,8.59-27.93,8.57h-.26s0-.03,0-.03h-.95s0,0,0,0Z"/>
    <g>
      <path d="M251.26,132.85v-22.6c0-2.06,1.68-3.74,3.74-3.74h38.86s0,30.08,0,30.08h-38.86c-2.06,0-3.74-1.68-3.74-3.74Zm42.08-25.83h-38.34c-1.78,0-3.23,1.45-3.23,3.23v22.6c0,1.78,1.45,3.23,3.23,3.23h38.34s0-29.05,0-29.05Z"/>
      <path d="M293.35,134.35v-25.09s24.22,0,24.22,0v25.09s-24.22,0-24.22,0Zm.51-24.57v24.06s23.19,0,23.19,0v-24.06s-23.19,0-23.19,0Z"/>
      <path d="M239.4,127.74v-12.38s12.38,0,12.38,0v12.38s-12.38,0-12.38,0Zm.51-11.87v11.35s11.35,0,11.35,0v-11.35s-11.35,0-11.35,0Z"/>
      <path d="M221.64,124.77v-6.45s18.27,0,18.27,0v6.45s-18.27,0-18.27,0Zm.51-5.93v5.42s17.25,0,17.25,0v-5.42s-17.25,0-17.25,0Z"/>
      <g>
        <rect x="309.08" y="112.73" width="4.89" height="3.3" transform="translate(425.91 -197.14) rotate(90)"/>
        <rect x="308.95" y="127.57" width="4.89" height="3.3" transform="translate(440.61 -182.17) rotate(90)"/>
      </g>
      <path d="M317.31,120.76h-2.97c-.15,0-.28,.14-.28,.32v2.16s-1.92,0-1.92,0v-2.16c0-.18-.12-.32-.28-.32h-9.99c-.15,0-.28,.14-.28,.32v2.16s-2.13,0-2.13,0v-2.16c0-.18-.12-.32-.28-.32h-5.59v.64h5.32s0,2.16,0,2.16c0,.18,.12,.32,.28,.32h2.68c.15,0,.28-.14,.28-.32v-2.16s9.44,0,9.44,0v2.16c0,.18,.12,.32,.28,.32h2.47c.15,0,.28-.14,.28-.32v-2.16s2.7,0,2.7,0v-.64Z"/>
    </g>
  </g>
  <text class="cls-2" transform="translate(103.34 175.83)"><tspan x="0" y="0">Con</tspan><tspan class="cls-3" x="17.73" y="0">v</tspan><tspan x="22.51" y="0">ersor USB – SER</tspan><tspan class="cls-1" x="95.84" y="0">I</tspan><tspan x="98.65" y="0">AL</tspan></text>
</svg>