<?xml version="1.0" encoding="UTF-8"?>
<svg id="Capa_1" data-name="Capa 1" xmlns="http://www.w3.org/2000/svg" viewBox="0 0 305.43 173.66">
  <defs>
    <style>
      .cls-1 {
        letter-spacing: 0em;
      }

      .cls-2 {
        fill: #2d3338;
        font-family: Roboto-Regular, Roboto;
        font-size: 10px;
      }
    </style>
  </defs>
  <g>
    <g>
      <path d="M11.85,50.31V9.94h31.23l11.37,8.76v22.85l-.1,.08-11.27,8.68H11.85Zm.51-39.85V49.8h30.54l11.03-8.5V18.95l-11.03-8.5H12.37Z"/>
      <path d="M11.85,60.25v-10.46h31.21l3.67,2.27v5.92l-3.67,2.27H11.85Zm.51-9.94v9.43h30.55l3.3-2.04v-5.35l-3.3-2.04H12.37Z"/>
      <path d="M11.85,10.46V0h31.21l3.67,2.27v5.92l-3.67,2.27H11.85ZM12.37,.51V9.94h30.55l3.3-2.04V2.55l-3.3-2.04H12.37Z"/>
      <path d="M3.95,41.11V18.64c0-.89,.73-1.62,1.62-1.62h6.8v25.7H5.57c-.89,0-1.62-.73-1.62-1.62Zm7.9-23.57H5.57c-.61,0-1.1,.49-1.1,1.1v22.47c0,.61,.49,1.1,1.1,1.1h6.28V17.54Z"/>
      <path d="M3.95,21v-2.62H12.37v2.62H3.95Zm.51-2.11v1.6h7.39v-1.6H4.47Z"/>
      <path d="M3.95,41.12v-2.62H12.37v2.62H3.95Zm.51-2.11v1.6h7.39v-1.6H4.47Z"/>
      <path d="M59.89,33.35v-6.45h17.96v6.45h-17.96Zm.51-5.93v5.42h16.93v-5.42h-16.93Z"/>
      <path d="M53.96,39.44V20.81h6.45v18.62h-6.45Zm.51-18.11v17.59h5.42V21.33h-5.42Z"/>
      <path d="M.02,57.54v-5.04H12.37v5.04H.02Zm.51-4.52v4.01H11.85v-4.01H.53Z"/>
      <path d="M.02,7.75V2.71H12.37V7.75H.02ZM.53,3.22V7.23H11.85V3.22H.53Z"/>
      <path d="M46.22,57.54v-5.04h5.86v5.04h-5.86Zm.51-4.52v4.01h4.83v-4.01h-4.83Z"/>
      <path d="M46.22,56.41v-2.78h5.86v2.78h-5.86Zm.51-2.26v1.75h4.83v-1.75h-4.83Z"/>
      <path d="M46.22,7.75V2.71h5.86V7.75h-5.86Zm.51-4.52V7.23h4.83V3.22h-4.83Z"/>
      <path d="M51.57,58.99v-7.93h16.21v1.84c0,.38-.28,.72-.72,.86l-2.85,.93c-.2,.07-.33,.19-.33,.33s.13,.27,.33,.33l2.86,.94c.43,.14,.71,.48,.71,.85v1.85h-16.21Zm.51-7.42v6.9h15.18v-1.33c0-.15-.14-.29-.35-.36l-2.86-.94c-.42-.14-.68-.45-.68-.82h0c0-.37,.26-.68,.68-.82l2.85-.93c.22-.07,.36-.22,.36-.38v-1.32h-15.18Z"/>
      <path d="M51.57,9.19V1.26h16.21v1.84c0,.38-.28,.72-.72,.86l-2.85,.93c-.2,.07-.33,.19-.33,.33s.13,.27,.33,.33l2.86,.94c.43,.14,.71,.48,.71,.85v1.85h-16.21Zm.51-7.42v6.9h15.18v-1.33c0-.15-.14-.29-.35-.36l-2.86-.94c-.42-.14-.68-.45-.68-.82s.26-.68,.68-.82l2.85-.93c.22-.07,.36-.22,.36-.38V1.78h-15.18Z"/>
      <path d="M.02,56.41v-2.78H12.37v2.78H.02Zm.51-2.26v1.75H11.85v-1.75H.53Z"/>
      <path d="M46.2,6.62V3.84h5.86v2.78h-5.86Zm.51-2.26v1.75h4.83v-1.75h-4.83Z"/>
      <path d="M0,6.62V3.84H12.35v2.78H0Zm.51-2.26v1.75H11.84v-1.75H.51Z"/>
    </g>
    <g>
      <path d="M225.94,132.19v-6.45h18.27v6.45h-18.27Zm.51-5.93v5.42h17.25v-5.42h-17.25Z"/>
      <path d="M285.36,139.39v-20.83h19.32c.42,0,.76,.34,.76,.76v19.32c0,.42-.34,.76-.76,.76h-19.32Zm.51-20.32v19.8h18.81c.13,0,.24-.11,.24-.24v-19.32c0-.13-.11-.24-.24-.24h-18.81Z"/>
      <path d="M291.54,136.05v-13.9h13.14c.42,0,.76,.34,.76,.76v12.38c0,.42-.34,.76-.76,.76h-13.14Zm.51-13.38v12.87h12.62c.13,0,.24-.11,.24-.24v-12.38c0-.13-.11-.24-.24-.24h-12.62Z"/>
      <path d="M291.54,125.11v-1.51h13.14c.42,0,.76,.34,.76,.76s-.34,.76-.76,.76h-13.14Zm.51-1v.48h12.62c.13,0,.24-.11,.24-.24s-.11-.24-.24-.24h-12.62Z"/>
      <path d="M291.54,127.44v-1.51h13.14c.42,0,.76,.34,.76,.76s-.34,.76-.76,.76h-13.14Zm.51-1v.48h12.62c.13,0,.24-.11,.24-.24s-.11-.24-.24-.24h-12.62Z"/>
      <path d="M291.54,129.78v-1.51h13.14c.42,0,.76,.34,.76,.76s-.34,.76-.76,.76h-13.14Zm.51-1v.48h12.62c.13,0,.24-.11,.24-.24s-.11-.24-.24-.24h-12.62Z"/>
      <path d="M291.54,132.12v-1.51h13.14c.42,0,.76,.34,.76,.76s-.34,.76-.76,.76h-13.14Zm.51-1v.48h12.62c.13,0,.24-.11,.24-.24s-.11-.24-.24-.24h-12.62Z"/>
      <path d="M291.54,134.46v-1.51h13.14c.42,0,.76,.34,.76,.76s-.34,.76-.76,.76h-13.14Zm.51-1v.48h12.62c.13,0,.24-.11,.24-.24s-.11-.24-.24-.24h-12.62Z"/>
      <g>
        <path d="M267.39,137.73v-17.52c0-2.06,1.69-3.74,3.78-3.74h14.7v25h-14.7c-2.08,0-3.78-1.68-3.78-3.74Zm17.96-20.75h-14.18c-1.8,0-3.26,1.45-3.26,3.23v17.52c0,1.78,1.46,3.23,3.26,3.23h14.18v-23.97Z"/>
        <path d="M243.68,134.07v-10.2c0-.89,.91-1.62,2.03-1.62h.83c1.08,0,1.97,.68,2.03,1.53l1.55-.13v-.99c0-.89,.91-1.62,2.03-1.62h.83c1.12,0,2.03,.73,2.03,1.62v.58l1.54-.13v-1.33c0-.89,.91-1.62,2.03-1.62h.83c1.12,0,2.03,.73,2.03,1.62v.92l1.54-.13v-1.63c0-.89,.91-1.62,2.03-1.62h.83c1.12,0,2.03,.73,2.03,1.62v16.03c0,.89-.91,1.62-2.03,1.62h-.83c-1.12,0-2.03-.73-2.03-1.62v-1.63l-1.54-.13v.92c0,.89-.91,1.62-2.03,1.62h-.83c-1.12,0-2.03-.73-2.03-1.62v-1.33l-1.54-.13v.58c0,.89-.91,1.62-2.03,1.62h-.83c-1.12,0-2.03-.73-2.03-1.62v-.99l-1.55-.13c-.06,.85-.95,1.53-2.03,1.53h-.83c-1.12,0-2.03-.73-2.03-1.62Zm4.38-10.2c0-.61-.68-1.1-1.52-1.1h-.83c-.84,0-1.52,.49-1.52,1.1v10.2c0,.61,.68,1.1,1.52,1.1h.83c.84,0,1.52-.49,1.52-1.1v-.47l2.57,.21v1.46c0,.61,.68,1.1,1.52,1.1h.83c.84,0,1.52-.49,1.52-1.1v-1.14l2.57,.21v1.8c0,.61,.68,1.1,1.52,1.1h.83c.84,0,1.52-.49,1.52-1.1v-1.48l2.57,.21v2.1c0,.61,.68,1.1,1.52,1.1h.83c.84,0,1.52-.49,1.52-1.1v-16.03c0-.61-.68-1.1-1.52-1.1h-.83c-.84,0-1.52,.49-1.52,1.1v2.1l-2.57,.21v-1.48c0-.61-.68-1.1-1.52-1.1h-.83c-.84,0-1.52,.49-1.52,1.1v1.8l-2.57,.21v-1.14c0-.61-.68-1.1-1.52-1.1h-.83c-.84,0-1.52,.49-1.52,1.1v1.46l-2.57,.21v-.47Z"/>
      </g>
    </g>
    <path d="M74.12,104.45c0-7.07,2.39-12.91,7.1-17.35,4.69-4.41,11.49-7.32,20.23-8.63,6.11-.92,11-.7,11.57-.67l77.66-.29v-.02s.3,.01,.3,.01h1.45s0,.02,0,.02c4.67,0,19.17-.69,27.32-8.43,3.85-3.66,5.81-8.5,5.81-14.4,0-5.39-1.88-9.94-5.58-13.52-10.85-10.5-33.7-9.85-33.93-9.84h-.05s-108.66,1.07-108.66,1.07l-.04-4.12h.26s108.38-1.07,108.38-1.07c.63-.02,6.43-.16,13.73,1.03,10.25,1.66,18.05,5.02,23.16,9.97,4.53,4.38,6.83,9.93,6.83,16.48,0,7.07-2.39,12.93-7.1,17.39-4.68,4.44-11.49,7.39-20.22,8.77-5.87,.93-10.59,.79-11.47,.76l-77.97,.29h-.07c-.19-.02-19.04-1.03-28.81,8.18-3.85,3.63-5.8,8.45-5.8,14.34,0,5.39,1.87,9.93,5.57,13.51,10.83,10.48,33.7,9.86,33.93,9.85h.04s108.66-1.07,108.66-1.07l.04,4.12h-.26s-108.37,1.07-108.37,1.07c-.65,.02-6.43,.16-13.74-1.03-10.25-1.66-18.05-5.02-23.16-9.97-4.53-4.38-6.83-9.93-6.83-16.48Zm116.84-26.42h-.04s-77.92,.29-77.92,.29h0c-.53-.03-5.39-.25-11.47,.66-8.63,1.3-15.35,4.16-19.95,8.49-4.61,4.34-6.94,10.05-6.94,16.97,0,6.4,2.25,11.82,6.67,16.11,5.04,4.88,12.74,8.18,22.89,9.83,7.26,1.18,13.01,1.04,13.64,1.02h0s108.12-1.07,108.12-1.07l-.03-3.09-108.14,1.07h-.04c-.23,0-23.32,.64-34.31-9.99-3.8-3.68-5.73-8.35-5.73-13.88,0-6.04,2.01-10.99,5.96-14.72,9.93-9.36,29-8.34,29.19-8.33h.05s77.97-.29,77.97-.29c.89,.04,5.57,.17,11.38-.75,8.63-1.36,15.34-4.27,19.95-8.64,4.61-4.37,6.94-10.09,6.94-17.02,0-6.41-2.25-11.82-6.67-16.11-5.04-4.88-12.74-8.18-22.89-9.83-7.26-1.18-13.01-1.04-13.64-1.02l-108.12,1.07,.03,3.09,108.14-1.07h.04c.23,0,23.29-.66,34.3,9.99,3.8,3.68,5.73,8.35,5.73,13.89,0,6.04-2.01,11.01-5.97,14.77-8.45,8.02-23.51,8.59-27.93,8.57h-.26s0-.03,0-.03h-.95s0,0,0,0Z"/>
  </g>
  <text class="cls-2" transform="translate(76.03 170.95)"><tspan x="0" y="0">Cable RS232A o RS232B – SER</tspan><tspan class="cls-1" x="138.32" y="0">I</tspan><tspan x="141.13" y="0">AL</tspan></text>
</svg>