<svg width="209" height="258" viewBox="0 0 209 258" fill="none" xmlns="http://www.w3.org/2000/svg">
    <path d="M129.28 255.49L129.41 255.5L129.48 254.95L129.35 254.93L129.28 255.49Z" fill="black"/>
    <path d="M128.98 255.39L129.24 255.48L129.39 254.94L129.2 254.87L128.98 255.39Z" fill="black"/>
    <path d="M128.98 255.39L129.13 255.45L129.41 255.5L129.48 254.95L129.2 254.87L128.98 255.39Z" fill="black"/>
    <path d="M109.779 244.837L109.521 245.334L128.961 255.376L129.218 254.879L109.779 244.837Z" fill="black"/>
    <path d="M109.706 244.776L109.348 245.207L109.409 245.258L109.767 244.827L109.706 244.776Z" fill="black"/>
    <path d="M109.67 244.699L109.23 245.046L109.274 245.101L109.713 244.754L109.67 244.699Z" fill="black"/>
    <path d="M129.463 254.972L129.434 255.531L163.836 257.334L163.866 256.775L129.463 254.972Z" fill="black"/>
    <path d="M129.266 254.936L129.241 255.495L129.401 255.503L129.426 254.943L129.266 254.936Z" fill="black"/>
    <path d="M163.84 231.89H159.52V232.45H163.84V231.89Z" fill="black"/>
    <path d="M163.5 231.72H128.74V232.28H163.5V231.72Z" fill="black"/>
    <path d="M125.025 231.502L124.996 232.062L127.413 232.189L127.442 231.629L125.025 231.502Z" fill="black"/>
    <path d="M109.639 244.673L109.123 244.89L109.177 245.019L109.694 244.802L109.639 244.673Z" fill="black"/>
    <path d="M182.486 221.734L163.852 222.203L163.866 222.763L182.5 222.294L182.486 221.734Z" fill="black"/>
    <path d="M185.092 204.468L185.015 205.023L188.095 205.455L188.172 204.9L185.092 204.468Z" fill="black"/>
    <path d="M190.16 204.43L191.19 204.58L191.26 204.02L190.23 203.88L190.16 204.43Z" fill="black"/>
    <path d="M188.296 202.927L188.217 203.482L188.563 203.531L188.643 202.977L188.296 202.927Z" fill="black"/>
    <path d="M188.31 203.3L188.65 203.35L188.73 202.8L188.39 202.75L188.31 203.3Z" fill="black"/>
    <path d="M190.28 203.58L190.79 203.65L190.87 203.1L190.36 203.02L190.28 203.58Z" fill="black"/>
    <path d="M188.525 201.818L188.447 202.373L190.933 202.721L191.011 202.166L188.525 201.818Z" fill="black"/>
    <path d="M188.465 201.635L188.387 202.189L191.466 202.622L191.544 202.068L188.465 201.635Z" fill="black"/>
    <path d="M109.639 244.606L109.084 244.68L109.102 244.818L109.658 244.745L109.639 244.606Z" fill="black"/>
    <path d="M109.65 13.17H109.09V244.63H109.65V13.17Z" fill="black"/>
    <path d="M188.598 184.473L188.521 185.028L193.829 185.772L193.906 185.217L188.598 184.473Z" fill="black"/>
    <path d="M120.37 33.7H119.81V226.6H120.37V33.7Z" fill="black"/>
    <path d="M123.83 33.48H123.27V226.82H123.83V33.48Z" fill="black"/>
    <path d="M159.623 232.111L159.072 232.212L159.103 232.379L159.654 232.278L159.623 232.111Z" fill="black"/>
    <path d="M129.54 255.24V255.21L128.98 255.19L129.54 255.24Z" fill="black"/>
    <path d="M159.096 27.9123L159.065 28.0795L159.616 28.1805L159.647 28.0133L159.096 27.9123Z" fill="black"/>
    <path d="M191.99 155.45L192.5 155.52L192.58 154.96L192.07 154.89L191.99 155.45Z" fill="black"/>
    <path d="M192.402 152.498L192.324 153.053L192.839 153.125L192.917 152.57L192.402 152.498Z" fill="black"/>
    <path d="M159.8 231.99H159.24V232.16H159.8V231.99Z" fill="black"/>
    <path d="M159.8 28.13H159.24V28.3H159.8V28.13Z" fill="black"/>
    <path d="M163.26 28.13H162.7V28.3H163.26V28.13Z" fill="black"/>
    <path d="M163.26 231.99H162.7V232.16H163.26V231.99Z" fill="black"/>
    <path d="M164.12 3.27002H163.56V257.02H164.12V3.27002Z" fill="black"/>
    <path d="M163.58 37.89L163.63 38.05L163.56 39.4L164.12 39.45L164.19 38.55V37.95L164.1 37.71L163.58 37.89Z" fill="black"/>
    <path d="M196.49 123.48L197 123.55L197.08 123L196.57 122.93L196.49 123.48Z" fill="black"/>
    <path d="M196.588 122.885L196.511 123.44L197.026 123.512L197.103 122.958L196.588 122.885Z" fill="black"/>
    <path d="M196.51 123.32L197.03 123.39L197.1 122.84L196.59 122.76L196.51 123.32Z" fill="black"/>
    <path d="M196.629 122.55L196.551 123.105L197.066 123.177L197.143 122.622L196.629 122.55Z" fill="black"/>
    <path d="M196.58 122.88L197.09 122.95L197.17 122.4L196.65 122.33L196.58 122.88Z" fill="black"/>
    <path d="M196.61 122.61L197.13 122.68L197.2 122.13L196.69 122.05L196.61 122.61Z" fill="black"/>
    <path d="M196.66 122.29L197.17 122.36L197.25 121.8L196.74 121.73L196.66 122.29Z" fill="black"/>
    <path d="M197.02 119.72L197.53 119.79L197.61 119.24L197.1 119.17L197.02 119.72Z" fill="black"/>
    <path d="M207.368 45.2254L182.207 221.792L182.761 221.871L207.922 45.3044L207.368 45.2254Z" fill="black"/>
    <path d="M197.32 123.32L196.77 123.24L197.3 119.48L197.85 119.55L197.32 123.32Z" fill="black"/>
    <path d="M192.591 152.8L192.254 155.196L192.808 155.274L193.146 152.878L192.591 152.8Z" fill="black"/>
    <path d="M205.38 70.72L204.83 70.64L206.36 59.77L206.91 59.85L205.38 70.72Z" fill="black"/>
    <path d="M205.9 69.96L205.34 69.88L206.64 60.65L207.2 60.73L205.9 69.96Z" fill="black"/>
    <path d="M207.01 70.1201L206.46 70.0401L207.76 60.8101L208.31 60.8801L207.01 70.1201Z" fill="black"/>
    <path d="M187.931 201.992L187.799 202.933L188.353 203.011L188.486 202.07L187.931 201.992Z" fill="black"/>
    <path d="M188.013 202.206L187.929 202.8L188.483 202.879L188.568 202.285L188.013 202.206Z" fill="black"/>
    <path d="M207.29 69.91L206.73 69.83L207.96 61.08L208.52 61.16L207.29 69.91Z" fill="black"/>
    <path d="M188.453 203.403L188.245 204.858L188.8 204.937L189.007 203.482L188.453 203.403Z" fill="black"/>
    <path d="M188.559 203.238L188.33 204.862L188.885 204.94L189.114 203.316L188.559 203.238Z" fill="black"/>
    <path d="M189.857 203.421L189.783 203.936L190.338 204.015L190.411 203.5L189.857 203.421Z" fill="black"/>
    <path d="M190.848 202.601L190.764 203.195L191.318 203.274L191.403 202.68L190.848 202.601Z" fill="black"/>
    <path d="M194.333 186.422L191.898 203.51L192.453 203.589L194.888 186.501L194.333 186.422Z" fill="black"/>
    <path d="M205.381 69.7638L204.865 70.5258L205.329 70.8396L205.845 70.0777L205.381 69.7638Z" fill="black"/>
    <path d="M206.835 69.6377L206.563 69.8417L206.899 70.2897L207.171 70.0857L206.835 69.6377Z" fill="black"/>
    <path d="M159.14 28.1201L159.34 28.35L159.68 27.91L159.6 27.8L159.14 28.1201Z" fill="black"/>
    <path d="M206.37 59.9L206.65 60.78L207.19 60.6L206.9 59.72L206.37 59.9Z" fill="black"/>
    <path d="M203.993 70.2397L203.915 70.7942L205.074 70.9576L205.152 70.4031L203.993 70.2397Z" fill="black"/>
    <path d="M205.674 69.6417L205.596 70.1962L206.705 70.3528L206.783 69.7983L205.674 69.6417Z" fill="black"/>
    <path d="M206.974 60.4171L206.896 60.9717L208.006 61.1274L208.083 60.5728L206.974 60.4171Z" fill="black"/>
    <path d="M205.524 59.3763L205.445 59.9308L206.604 60.0942L206.682 59.5397L205.524 59.3763Z" fill="black"/>
    <path d="M208.252 60.6547L207.805 60.9921L208.009 61.2635L208.456 60.9261L208.252 60.6547Z" fill="black"/>
    <path d="M159.14 232.18L159.6 232.5L159.66 232.41L159.2 232.09L159.14 232.18Z" fill="black"/>
    <path d="M163.874 37.5242L163.782 38.0765L207.3 45.3432L207.392 44.7909L163.874 37.5242Z" fill="black"/>
    <path d="M124.99 28.25L125.02 28.81L127.44 28.68L127.41 28.12L124.99 28.25Z" fill="black"/>
    <path d="M163.5 28.03H128.74V28.59H163.5V28.03Z" fill="black"/>
    <path d="M163.84 27.85H159.52V28.41H163.84V27.85Z" fill="black"/>
    <path d="M159.24 232.05L159.63 232.45L159.7 232.38L159.52 232.17L159.3 231.99L159.24 232.05Z" fill="black"/>
    <path d="M163.818 2.96908L116.396 5.51245L116.426 6.07165L163.848 3.52827L163.818 2.96908Z" fill="black"/>
    <path d="M126.91 254.32L116.47 248.92L116.73 248.43L127.17 253.82L126.91 254.32Z" fill="black"/>
    <path d="M161.2 256.877L161.159 257.164L161.714 257.243L161.755 256.956L161.2 256.877Z" fill="#FC9E26"/>
    <path d="M79.04 252.95L79.11 253.51L79.24 253.49L79.17 252.93L79.04 252.95Z" fill="black"/>
    <path d="M79.1299 252.94L79.2799 253.48L79.5399 253.39L79.3099 252.88L79.1299 252.94Z" fill="black"/>
    <path d="M79.04 252.95L79.11 253.51L79.39 253.45L79.54 253.39L79.32 252.87L79.04 252.95Z" fill="black"/>
    <path d="M98.7402 242.841L79.3008 252.883L79.5578 253.38L98.9972 243.338L98.7402 242.841Z" fill="black"/>
    <path d="M98.7598 242.83L99.1098 243.26L99.1698 243.21L98.8098 242.78L98.7598 242.83Z" fill="black"/>
    <path d="M98.8618 242.698L98.8184 242.752L99.2577 243.1L99.3011 243.045L98.8618 242.698Z" fill="black"/>
    <path d="M44.6902 255.31L79.0902 253.51L79.0602 252.95L44.6602 254.75L44.6902 255.31Z" fill="black"/>
    <path d="M79.0898 252.95L79.1199 253.51L79.2798 253.5L79.2498 252.94L79.0898 252.95Z" fill="black"/>
    <path d="M48.9997 229.89H44.6797V230.45H48.9997V229.89Z" fill="black"/>
    <path d="M79.7795 229.72H45.0195V230.28H79.7795V229.72Z" fill="black"/>
    <path d="M83.4812 229.503L81.0645 229.628L81.0934 230.187L83.5101 230.062L83.4812 229.503Z" fill="black"/>
    <path d="M98.8203 242.78L99.3303 243L99.3903 242.87L98.8703 242.66L98.8203 242.78Z" fill="black"/>
    <path d="M44.67 220.78L44.68 220.22L26.05 219.74L26.04 220.3L44.67 220.78Z" fill="black"/>
    <path d="M23.4369 202.469L20.3564 202.896L20.4334 203.451L23.5139 203.023L23.4369 202.469Z" fill="black"/>
    <path d="M18.2958 201.884L17.2656 202.026L17.3426 202.581L18.3727 202.438L18.2958 201.884Z" fill="black"/>
    <path d="M20.2506 200.903L19.9141 200.951L19.9933 201.505L20.3298 201.457L20.2506 200.903Z" fill="black"/>
    <path d="M19.79 200.8L19.87 201.35L20.21 201.31L20.13 200.75L19.79 200.8Z" fill="black"/>
    <path d="M17.6504 201.1L17.7304 201.65L18.2404 201.58L18.1604 201.03L17.6504 201.1Z" fill="black"/>
    <path d="M20.0086 199.806L17.5225 200.151L17.5994 200.705L20.0856 200.36L20.0086 199.806Z" fill="black"/>
    <path d="M20.059 199.629L16.9785 200.056L17.0555 200.611L20.136 200.184L20.059 199.629Z" fill="black"/>
    <path d="M98.8721 242.595L98.8535 242.734L99.4086 242.808L99.4271 242.669L98.8721 242.595Z" fill="black"/>
    <path d="M99.4301 11.17H98.8701V242.63H99.4301V11.17Z" fill="black"/>
    <path d="M19.9224 182.475L14.6143 183.219L14.692 183.774L20.0001 183.03L19.9224 182.475Z" fill="black"/>
    <path d="M88.7104 31.7H88.1504V224.6H88.7104V31.7Z" fill="black"/>
    <path d="M85.2504 31.48H84.6904V224.82H85.2504V31.48Z" fill="black"/>
    <path d="M48.9076 230.134L48.877 230.301L49.4278 230.402L49.4584 230.235L48.9076 230.134Z" fill="black"/>
    <path d="M78.9805 253.22V253.24L79.5405 253.2L78.9805 253.22Z" fill="black"/>
    <path d="M49.4307 25.9025L48.8799 26.0035L48.9105 26.1708L49.4614 26.0698L49.4307 25.9025Z" fill="black"/>
    <path d="M15.9404 152.97L16.0104 153.52L16.5304 153.45L16.4504 152.89L15.9404 152.97Z" fill="black"/>
    <path d="M16.1186 150.5L15.6035 150.571L15.6805 151.126L16.1955 151.055L16.1186 150.5Z" fill="black"/>
    <path d="M49.2797 230H48.7197V230.17H49.2797V230Z" fill="black"/>
    <path d="M49.2797 26.14H48.7197V26.31H49.2797V26.14Z" fill="black"/>
    <path d="M45.8198 26.14H45.2598V26.31H45.8198V26.14Z" fill="black"/>
    <path d="M45.8198 230H45.2598V230.17H45.8198V230Z" fill="black"/>
    <path d="M44.9604 1.28003H44.4004V255.03H44.9604V1.28003Z" fill="black"/>
    <path d="M44.3301 35.95V36.55L44.4001 37.45L44.9601 37.41L44.8901 36.05L44.9401 35.9L44.4101 35.71L44.3301 35.95Z" fill="black"/>
    <path d="M11.4404 121L11.5104 121.56L12.0304 121.48L11.9504 120.93L11.4404 121Z" fill="black"/>
    <path d="M11.9319 120.881L11.417 120.953L11.495 121.508L12.01 121.435L11.9319 120.881Z" fill="black"/>
    <path d="M11.9368 120.768L11.4219 120.841L11.4998 121.395L12.0148 121.323L11.9368 120.768Z" fill="black"/>
    <path d="M11.3799 120.62L11.4599 121.17L11.9699 121.1L11.8999 120.55L11.3799 120.62Z" fill="black"/>
    <path d="M11.3496 120.4L11.4296 120.96L11.9396 120.88L11.8696 120.33L11.3496 120.4Z" fill="black"/>
    <path d="M11.8382 120.059L11.3232 120.131L11.4012 120.686L11.9161 120.614L11.8382 120.059Z" fill="black"/>
    <path d="M11.2695 119.8L11.3395 120.36L11.8595 120.29L11.7795 119.73L11.2695 119.8Z" fill="black"/>
    <path d="M10.9102 117.24L10.9802 117.79L11.5002 117.72L11.4202 117.17L10.9102 117.24Z" fill="black"/>
    <path d="M1.14032 43.2556L0.585938 43.3347L25.7773 219.897L26.3317 219.818L1.14032 43.2556Z" fill="black"/>
    <path d="M11.1999 121.32L11.7499 121.24L11.2199 117.48L10.6699 117.56L11.1999 121.32Z" fill="black"/>
    <path d="M15.9285 150.81L15.374 150.888L15.7117 153.284L16.2662 153.206L15.9285 150.81Z" fill="black"/>
    <path d="M3.14035 68.73L3.69035 68.65L2.16035 57.77L1.61035 57.85L3.14035 68.73Z" fill="black"/>
    <path d="M1.86788 58.6565L1.31348 58.7355L2.62829 67.9623L3.18269 67.8833L1.86788 58.6565Z" fill="black"/>
    <path d="M1.50996 68.1201L2.05996 68.0401L0.759961 58.8101L0.209961 58.8901L1.50996 68.1201Z" fill="black"/>
    <path d="M20.5613 200.018L20.0068 200.097L20.1399 201.037L20.6944 200.959L20.5613 200.018Z" fill="black"/>
    <path d="M20.5232 200.194L19.9688 200.273L20.0532 200.867L20.6076 200.788L20.5232 200.194Z" fill="black"/>
    <path d="M1.23 67.91L1.79 67.83L0.55 59.08L0 59.16L1.23 67.91Z" fill="black"/>
    <path d="M20.0448 201.396L19.4902 201.474L19.6953 202.93L20.2498 202.851L20.0448 201.396Z" fill="black"/>
    <path d="M19.4004 201.31L19.6304 202.93L20.1904 202.86L19.9604 201.23L19.4004 201.31Z" fill="black"/>
    <path d="M18.6805 201.413L18.126 201.491L18.1983 202.006L18.7528 201.928L18.6805 201.413Z" fill="black"/>
    <path d="M17.6872 200.588L17.1328 200.667L17.2172 201.261L17.7717 201.182L17.6872 200.588Z" fill="black"/>
    <path d="M14.1794 184.438L13.625 184.517L16.0629 201.604L16.6173 201.525L14.1794 184.438Z" fill="black"/>
    <path d="M3.12642 67.7597L2.66309 68.0742L3.17981 68.8354L3.64314 68.5209L3.12642 67.7597Z" fill="black"/>
    <path d="M1.6783 67.6489L1.34277 68.0973L1.61498 68.301L1.95052 67.8527L1.6783 67.6489Z" fill="black"/>
    <path d="M48.8301 25.91L49.1801 26.35L49.3801 26.13L48.9201 25.8L48.8301 25.91Z" fill="black"/>
    <path d="M1.33008 58.6L1.86008 58.78L2.15008 57.9L1.62008 57.73L1.33008 58.6Z" fill="black"/>
    <path d="M4.54553 68.2542L3.38672 68.4156L3.46398 68.9703L4.62279 68.8089L4.54553 68.2542Z" fill="black"/>
    <path d="M2.8623 67.6482L1.75293 67.8021L1.8299 68.3568L2.93927 68.2029L2.8623 67.6482Z" fill="black"/>
    <path d="M1.55664 58.4144L0.447266 58.5684L0.524234 59.123L1.6336 58.9691L1.55664 58.4144Z" fill="black"/>
    <path d="M3.00842 57.3693L1.84961 57.5308L1.92687 58.0854L3.08568 57.924L3.00842 57.3693Z" fill="black"/>
    <path d="M0.256422 58.6736L0.0517578 58.9451L0.498933 59.2822L0.703597 59.0107L0.256422 58.6736Z" fill="black"/>
    <path d="M48.8604 230.41L48.9203 230.5L49.3804 230.18L49.3204 230.09L48.8604 230.41Z" fill="black"/>
    <path d="M44.6307 35.5305L1.11328 42.7972L1.20552 43.3496L44.723 36.0829L44.6307 35.5305Z" fill="black"/>
    <path d="M81.0801 26.68L83.4901 26.81L83.5201 26.25L81.1101 26.13L81.0801 26.68Z" fill="black"/>
    <path d="M79.7795 26.03H45.0195V26.59H79.7795V26.03Z" fill="black"/>
    <path d="M48.9997 25.86H44.6797V26.42H48.9997V25.86Z" fill="black"/>
    <path d="M49.0003 230.17L48.8203 230.38L48.8903 230.45L49.2803 230.05L49.2203 229.99L49.0003 230.17Z" fill="black"/>
    <path d="M44.6999 0.968516L44.6699 1.52771L92.0918 4.07108L92.1218 3.51189L44.6999 0.968516Z" fill="black"/>
    <path d="M81.5996 252.32L92.0496 246.93L91.7896 246.43L81.3496 251.83L81.5996 252.32Z" fill="black"/>
    <path d="M46.7695 254.94L46.8195 255.23L47.3695 255.15L47.3295 254.86L46.7695 254.94Z" fill="#FC9E26"/>
    </svg>
    
    