<?xml version="1.0" encoding="utf-8"?>
<!-- Generator: Adobe Illustrator 26.3.1, SVG Export Plug-In . SVG Version: 6.00 Build 0)  -->
<svg version="1.1" id="Capa_1" xmlns="http://www.w3.org/2000/svg" xmlns:xlink="http://www.w3.org/1999/xlink" x="0px" y="0px"
	 viewBox="0 0 317.57 136.59" style="enable-background:new 0 0 317.57 136.59;" xml:space="preserve">
<style type="text/css">
	.st0{fill:#020203;}
</style>
<g>
	<g>
		<path class="st0" d="M7.66,45.08l0-44.38C7.66,0.32,7.97,0,8.36,0l29.11,0c0.91,0,1.8,0.33,2.48,0.93l9.01,7.88
			c0.82,0.72,1.29,1.75,1.29,2.84l0,22.48c0,1.09-0.47,2.12-1.29,2.84l-9.01,7.88c-0.69,0.6-1.57,0.93-2.48,0.93l-29.11,0
			C7.97,45.79,7.66,45.47,7.66,45.08z M49.74,11.65c0-0.94-0.41-1.83-1.11-2.45l-9.01-7.88c-0.59-0.52-1.36-0.81-2.15-0.81l-29.11,0
			c-0.11,0-0.19,0.09-0.19,0.19l0,44.38c0,0.11,0.09,0.19,0.19,0.19l29.11,0c0.79,0,1.55-0.29,2.15-0.81l9.01-7.88
			c0.71-0.62,1.11-1.51,1.11-2.45L49.74,11.65z"/>
		<g>
			<path class="st0" d="M0,33.36l0-20.91c0-0.89,0.73-1.62,1.62-1.62l6.31,0l0,24.15l-6.31,0C0.73,34.98,0,34.25,0,33.36z
				 M7.41,11.35l-5.8,0c-0.61,0-1.1,0.49-1.1,1.1l0,20.91c0,0.61,0.49,1.1,1.1,1.1l5.8,0L7.41,11.35z"/>
			<path class="st0" d="M0,14.6l0-2.49l7.93,0l0,2.49L0,14.6z M0.51,12.62l0,1.46l6.9,0l0-1.46L0.51,12.62z"/>
			<path class="st0" d="M0,33.47l0-2.49l7.93,0l0,2.49L0,33.47z M0.51,31.49l0,1.46l6.9,0l0-1.46L0.51,31.49z"/>
		</g>
		<path class="st0" d="M55.69,26.12l0-6.45l17.96,0v6.45L55.69,26.12z M56.2,20.19l0,5.42l16.93,0v-5.42L56.2,20.19z"/>
		<path class="st0" d="M49.76,32.21l0-18.62l4.16,0c1.26,0,2.28,1.02,2.28,2.28l0,14.05c0,1.26-1.02,2.28-2.28,2.28L49.76,32.21z
			 M50.27,14.1l0,17.59h3.65c0.98,0,1.77-0.79,1.77-1.77l0-14.05c0-0.98-0.79-1.77-1.77-1.77L50.27,14.1z"/>
		<path class="st0" d="M0.01,43.88l0-5.6l7.92,0l0,5.6L0.01,43.88z M0.52,38.8l0,4.57h6.89l0-4.57H0.52z"/>
		<path class="st0" d="M0.01,7.81l0-5.6l7.92,0l0,5.6L0.01,7.81z M0.52,2.72l0,4.57l6.89,0l0-4.57L0.52,2.72z"/>
		<path class="st0" d="M0.01,42.61l0-3.06l7.92,0l0,3.06L0.01,42.61z M0.52,40.07l0,2.03l6.89,0l0-2.03L0.52,40.07z"/>
		<path class="st0" d="M0,6.53l0-3.06l7.92,0l0,3.06L0,6.53z M0.51,3.99l0,2.03l6.89,0l0-2.03L0.51,3.99z"/>
	</g>
	<path class="st0" d="M69.92,97.22c0-7.07,2.39-12.91,7.1-17.35c4.69-4.41,11.49-7.32,20.23-8.63c6.11-0.92,11-0.7,11.57-0.67
		l77.66-0.29l0-0.01l0.3,0.01l1.45-0.01l0,0.03c4.67-0.01,19.17-0.69,27.32-8.43c3.85-3.66,5.81-8.5,5.81-14.4
		c0-5.39-1.88-9.94-5.58-13.52c-10.85-10.5-33.7-9.85-33.93-9.84l-0.05,0L73.16,25.2l-0.04-4.12l0.26,0l108.38-1.07
		c0.63-0.02,6.43-0.16,13.73,1.03c10.25,1.66,18.05,5.02,23.16,9.97c4.53,4.38,6.83,9.93,6.83,16.48c0,7.07-2.39,12.93-7.1,17.39
		c-4.68,4.44-11.49,7.39-20.22,8.77c-5.87,0.93-10.59,0.79-11.47,0.76l-77.97,0.29l-0.07,0c-0.19-0.01-19.04-1.02-28.81,8.19
		c-3.85,3.63-5.8,8.45-5.8,14.34c0,5.39,1.87,9.93,5.57,13.51c10.83,10.48,33.7,9.86,33.93,9.85l0.04,0l108.66-1.07l0.04,4.12
		l-0.26,0l-108.37,1.07c-0.65,0.02-6.43,0.16-13.74-1.03c-10.25-1.66-18.05-5.02-23.16-9.97C72.22,109.31,69.92,103.77,69.92,97.22z
		 M186.76,70.8l-0.04,0l-77.92,0.29l-0.01,0c-0.53-0.03-5.39-0.25-11.47,0.66c-8.63,1.3-15.35,4.16-19.95,8.49
		c-4.61,4.34-6.94,10.05-6.94,16.97c0,6.41,2.25,11.82,6.67,16.11c5.04,4.88,12.74,8.18,22.89,9.83c7.26,1.18,13.01,1.04,13.64,1.02
		l0.01,0l108.12-1.07l-0.03-3.09l-108.14,1.07l-0.04,0c-0.23,0.01-23.32,0.63-34.31-9.99c-3.8-3.68-5.73-8.35-5.73-13.88
		c0-6.04,2.01-10.99,5.96-14.72c9.93-9.36,29-8.34,29.19-8.33l0.05,0l77.97-0.29c0.89,0.04,5.57,0.17,11.38-0.75
		c8.63-1.36,15.34-4.27,19.95-8.64c4.61-4.37,6.94-10.09,6.94-17.02c0-6.41-2.25-11.82-6.67-16.11c-5.04-4.88-12.74-8.18-22.89-9.83
		c-7.26-1.18-13.01-1.04-13.64-1.02L73.64,21.59l0.03,3.09l108.14-1.07l0.04,0c0.23-0.01,23.29-0.66,34.3,9.99
		c3.8,3.68,5.73,8.35,5.73,13.89c0,6.04-2.01,11.01-5.97,14.77c-8.45,8.02-23.51,8.59-27.93,8.57l-0.26,0l0-0.03L186.76,70.8
		L186.76,70.8z"/>
	<g>
		<path class="st0" d="M251.26,132.85l0-22.6c0-2.06,1.68-3.74,3.74-3.74l38.86,0v30.08l-38.86,0
			C252.94,136.59,251.26,134.91,251.26,132.85z M293.35,107.02l-38.34,0c-1.78,0-3.23,1.45-3.23,3.23l0,22.6
			c0,1.78,1.45,3.23,3.23,3.23l38.34,0L293.35,107.02z"/>
		<path class="st0" d="M293.35,134.35l0-25.09l24.22,0v25.09H293.35z M293.86,109.77v24.06h23.19v-24.06L293.86,109.77z"/>
		<path class="st0" d="M239.4,127.74v-12.38l12.38,0l0,12.38L239.4,127.74z M239.91,115.87v11.35l11.35,0v-11.35H239.91z"/>
		<path class="st0" d="M221.64,124.77v-6.45l18.27,0v6.45L221.64,124.77z M222.15,118.84v5.42l17.25,0v-5.42H222.15z"/>
		<g>
			
				<rect x="309.08" y="112.73" transform="matrix(6.928203e-07 1 -1 6.928203e-07 425.9086 -197.1405)" class="st0" width="4.89" height="3.3"/>
			
				<rect x="308.95" y="127.57" transform="matrix(6.928203e-07 1 -1 6.928203e-07 440.6098 -182.1734)" class="st0" width="4.89" height="3.3"/>
		</g>
		<g>
			<path class="st0" d="M317.31,120.76l-2.97,0c-0.15,0-0.28,0.14-0.28,0.32v2.16h-1.92v-2.16c0-0.18-0.12-0.32-0.28-0.32l-9.99,0
				c-0.15,0-0.28,0.14-0.28,0.32v2.16h-2.13v-2.16c0-0.18-0.12-0.32-0.28-0.32l-5.59,0v0.64h5.32v2.16c0,0.18,0.12,0.32,0.28,0.32
				l2.68,0c0.15,0,0.28-0.14,0.28-0.32v-2.16l9.44,0v2.16c0,0.18,0.12,0.32,0.28,0.32h2.47c0.15,0,0.28-0.14,0.28-0.32v-2.16h2.7
				V120.76z"/>
		</g>
	</g>
</g>
</svg>
