<?xml version="1.0" encoding="utf-8"?>
<!-- Generator: Adobe Illustrator 26.3.1, SVG Export Plug-In . SVG Version: 6.00 Build 0)  -->
<svg version="1.1" id="Capa_1" xmlns="http://www.w3.org/2000/svg" xmlns:xlink="http://www.w3.org/1999/xlink" x="0px" y="0px"
	 viewBox="0 0 333.36 126.52" style="enable-background:new 0 0 333.36 126.52;" xml:space="preserve">
<style type="text/css">
	.st0{fill:#020203;}
</style>
<g>
	<g>
		<path class="st0" d="M23.71,30.08l0-30.08l38.86,0c2.06,0,3.74,1.68,3.74,3.74l0,22.6c0,2.06-1.68,3.74-3.74,3.74L23.71,30.08z
			 M24.22,0.51l0,29.05l38.34,0c1.78,0,3.23-1.45,3.23-3.23l0-22.6c0-1.78-1.45-3.23-3.23-3.23L24.22,0.51z"/>
		<path class="st0" d="M0,27.33L0,2.24l24.22,0l0,25.09L0,27.33z M0.51,2.76l0,24.06l23.19,0l0-24.06L0.51,2.76z"/>
		<path class="st0" d="M65.79,21.23V8.85l12.38,0v12.38L65.79,21.23z M66.3,9.36l0,11.35l11.35,0l0-11.35L66.3,9.36z"/>
		<path class="st0" d="M77.66,18.26l0-6.45l18.27,0v6.45L77.66,18.26z M78.17,12.33v5.42l17.25,0v-5.42L78.17,12.33z"/>
		<g>
			
				<rect x="3.6" y="20.55" transform="matrix(-3.464102e-07 -1 1 -3.464102e-07 -16.1625 28.2482)" class="st0" width="4.89" height="3.3"/>
			
				<rect x="3.73" y="5.72" transform="matrix(-3.464102e-07 -1 1 -3.464102e-07 -1.1953 13.5469)" class="st0" width="4.89" height="3.3"/>
		</g>
		<g>
			<path class="st0" d="M0.26,15.83l2.97,0c0.15,0,0.28-0.14,0.28-0.32l0-2.16h1.92l0,2.16c0,0.18,0.12,0.32,0.28,0.32l9.99,0
				c0.15,0,0.28-0.14,0.28-0.32l0-2.16l2.13,0l0,2.16c0,0.18,0.12,0.32,0.28,0.32l5.59,0v-0.64l-5.32,0v-2.16
				c0-0.18-0.12-0.32-0.28-0.32l-2.68,0c-0.15,0-0.28,0.14-0.28,0.32l0,2.16l-9.44,0l0-2.16c0-0.18-0.12-0.32-0.28-0.32l-2.47,0
				c-0.15,0-0.28,0.14-0.28,0.32l0,2.16l-2.7,0L0.26,15.83z"/>
		</g>
	</g>
	<g>
		<path class="st0" d="M273.34,122.78v-17.52c0-2.06,1.68-3.74,3.74-3.74l36.72,0l0,25l-36.72,0
			C275.02,126.52,273.34,124.84,273.34,122.78z M313.29,102.03l-36.21,0c-1.78,0-3.23,1.45-3.23,3.23l0,17.52
			c0,1.78,1.45,3.23,3.23,3.23l36.21,0L313.29,102.03z"/>
		<path class="st0" d="M261.47,120.07v-12.38l12.38,0l0,12.38L261.47,120.07z M261.99,108.21v11.35h11.35v-11.35H261.99z"/>
		<path class="st0" d="M243.71,117.11v-6.45l18.27,0v6.45H243.71z M244.23,111.17l0,5.42l17.25,0v-5.42L244.23,111.17z"/>
		<path class="st0" d="M283.98,114.02c0-2.95,2.4-5.36,5.36-5.36c2.95,0,5.36,2.4,5.36,5.36c0,2.95-2.4,5.36-5.36,5.36
			C286.38,119.37,283.98,116.97,283.98,114.02z M294.18,114.02c0-2.67-2.17-4.84-4.84-4.84c-2.67,0-4.84,2.17-4.84,4.84
			s2.17,4.84,4.84,4.84C292,118.86,294.18,116.69,294.18,114.02z"/>
		<path class="st0" d="M313.29,122.63V105.4l19.32,0c0.42,0,0.76,0.34,0.76,0.76v15.71c0,0.42-0.34,0.76-0.76,0.76L313.29,122.63z
			 M313.8,105.92l0,16.2h18.81c0.13,0,0.24-0.11,0.24-0.24v-15.71c0-0.13-0.11-0.24-0.24-0.24L313.8,105.92z"/>
		<path class="st0" d="M313.29,120.97v-13.9l19.32,0c0.42,0,0.76,0.34,0.76,0.76v12.38c0,0.42-0.34,0.76-0.76,0.76L313.29,120.97z
			 M313.8,107.58l0,12.87l18.81,0c0.13,0,0.24-0.11,0.24-0.24v-12.38c0-0.13-0.11-0.24-0.24-0.24L313.8,107.58z"/>
	</g>
	<path class="st0" d="M91.89,89.37c0-7.07,2.39-12.91,7.1-17.35c4.69-4.41,11.49-7.32,20.23-8.63c6.11-0.92,10.99-0.7,11.57-0.67
		l77.66-0.29l0-0.02l0.3,0.01l1.45-0.01l0,0.03c4.67-0.01,19.17-0.69,27.32-8.43c3.85-3.66,5.81-8.5,5.81-14.4
		c0-5.39-1.88-9.94-5.58-13.52c-10.84-10.48-33.7-9.85-33.93-9.84l-0.05,0L95.13,17.34l-0.04-4.12l0.26,0l108.38-1.07
		c0.63-0.02,6.42-0.16,13.73,1.03c10.25,1.66,18.05,5.02,23.16,9.97c4.53,4.38,6.83,9.93,6.83,16.48c0,7.07-2.39,12.93-7.1,17.39
		c-4.68,4.44-11.49,7.39-20.22,8.77c-5.87,0.93-10.59,0.79-11.47,0.76l-77.97,0.29l-0.07,0c-0.19-0.01-19.04-1.02-28.81,8.19
		c-3.85,3.63-5.8,8.45-5.8,14.34c0,5.39,1.87,9.93,5.57,13.51c10.83,10.48,33.7,9.86,33.93,9.85l0.04,0l108.66-1.07l0.04,4.12
		l-0.26,0l-108.37,1.07c-0.65,0.02-6.44,0.16-13.74-1.03c-10.25-1.66-18.05-5.02-23.16-9.97C94.18,101.46,91.89,95.92,91.89,89.37z
		 M208.73,62.95l-0.04,0l-77.92,0.29l-0.01,0c-0.53-0.03-5.39-0.25-11.47,0.66c-8.63,1.3-15.34,4.16-19.95,8.49
		c-4.61,4.34-6.94,10.05-6.94,16.97c0,6.4,2.25,11.82,6.67,16.11c5.04,4.88,12.74,8.18,22.89,9.83c7.26,1.18,13.01,1.04,13.64,1.02
		l0.01,0l108.12-1.07l-0.03-3.09l-108.14,1.07l-0.04,0c-0.23,0.01-23.32,0.63-34.3-9.99c-3.8-3.68-5.73-8.35-5.73-13.88
		c0-6.04,2.01-10.99,5.96-14.72c9.93-9.36,29-8.34,29.19-8.33l0.05,0l77.97-0.29c0.89,0.04,5.57,0.17,11.38-0.75
		c8.63-1.36,15.34-4.27,19.95-8.64c4.61-4.37,6.94-10.09,6.94-17.02c0-6.4-2.25-11.82-6.67-16.11c-5.04-4.88-12.74-8.18-22.89-9.83
		c-7.27-1.18-13.01-1.04-13.64-1.02L95.61,13.73l0.03,3.09l108.14-1.07l0.04,0c0.23-0.01,23.3-0.65,34.3,9.99
		c3.8,3.68,5.73,8.35,5.73,13.89c0,6.04-2.01,11.01-5.97,14.77c-8.45,8.02-23.51,8.59-27.93,8.57l-0.26,0l0-0.03L208.73,62.95
		L208.73,62.95z"/>
</g>
</svg>
