<?xml version="1.0" encoding="utf-8"?>
<!-- Generator: Adobe Illustrator 26.3.1, SVG Export Plug-In . SVG Version: 6.00 Build 0)  -->
<svg version="1.1" id="Capa_1" xmlns="http://www.w3.org/2000/svg" xmlns:xlink="http://www.w3.org/1999/xlink" x="0px" y="0px"
	 viewBox="0 0 305.43 141.47" style="enable-background:new 0 0 305.43 141.47;" xml:space="preserve">
<style type="text/css">
	.st0{fill:#020203;}
</style>
<g>
	<g>
		<path class="st0" d="M11.85,50.31V9.94h31.23l11.37,8.76v22.85l-0.1,0.08l-11.27,8.68H11.85z M12.37,10.46V49.8h30.54l11.03-8.5
			V18.95l-11.03-8.5H12.37z"/>
		<path class="st0" d="M11.85,60.25V49.8h31.21l3.67,2.27v5.92l-3.67,2.27H11.85z M12.37,50.31v9.43h30.55l3.3-2.04v-5.35l-3.3-2.04
			H12.37z"/>
		<path class="st0" d="M11.85,10.46V0h31.21l3.67,2.27v5.92l-3.67,2.27H11.85z M12.37,0.51v9.43h30.55l3.3-2.04V2.55l-3.3-2.04
			H12.37z"/>
		<path class="st0" d="M3.95,41.11V18.64c0-0.89,0.73-1.62,1.62-1.62h6.8v25.7h-6.8C4.68,42.73,3.95,42,3.95,41.11z M11.85,17.54
			H5.57c-0.61,0-1.1,0.49-1.1,1.1v22.47c0,0.61,0.49,1.1,1.1,1.1h6.28V17.54z"/>
		<path class="st0" d="M3.95,21v-2.62h8.42V21H3.95z M4.47,18.89v1.6h7.39v-1.6H4.47z"/>
		<path class="st0" d="M3.95,41.12V38.5h8.42v2.62H3.95z M4.47,39.01v1.6h7.39v-1.6H4.47z"/>
		<path class="st0" d="M59.89,33.35V26.9h17.96v6.45H59.89z M60.4,27.42v5.42h16.93v-5.42H60.4z"/>
		<path class="st0" d="M53.96,39.44V20.81h6.45v18.62H53.96z M54.47,21.33v17.59h5.42V21.33H54.47z"/>
		<path class="st0" d="M0.02,57.54v-5.04h12.35v5.04H0.02z M0.53,53.02v4.01h11.32v-4.01H0.53z"/>
		<path class="st0" d="M0.02,7.75V2.71h12.35v5.04H0.02z M0.53,3.22v4.01h11.32V3.22H0.53z"/>
		<path class="st0" d="M46.22,57.54v-5.04h5.86v5.04H46.22z M46.73,53.02v4.01h4.83v-4.01H46.73z"/>
		<path class="st0" d="M46.22,56.41v-2.78h5.86v2.78H46.22z M46.73,54.15v1.75h4.83v-1.75H46.73z"/>
		<path class="st0" d="M46.22,7.75V2.71h5.86v5.04H46.22z M46.73,3.22v4.01h4.83V3.22H46.73z"/>
		<path class="st0" d="M51.57,58.99v-7.93h16.21v1.84c0,0.38-0.28,0.72-0.72,0.86l-2.85,0.93c-0.2,0.07-0.33,0.19-0.33,0.33
			s0.13,0.27,0.33,0.33l2.86,0.94c0.43,0.14,0.71,0.48,0.71,0.85v1.85H51.57z M52.08,51.57v6.9h15.18v-1.33
			c0-0.15-0.14-0.29-0.35-0.36l-2.86-0.94c-0.42-0.14-0.68-0.45-0.68-0.82l0,0c0-0.37,0.26-0.68,0.68-0.82l2.85-0.93
			c0.22-0.07,0.36-0.22,0.36-0.38v-1.32H52.08z"/>
		<path class="st0" d="M51.57,9.19V1.26h16.21V3.1c0,0.38-0.28,0.72-0.72,0.86L64.21,4.9c-0.2,0.07-0.33,0.19-0.33,0.33
			s0.13,0.27,0.33,0.33l2.86,0.94c0.43,0.14,0.71,0.48,0.71,0.85v1.85H51.57z M52.08,1.78v6.9h15.18V7.35
			c0-0.15-0.14-0.29-0.35-0.36l-2.86-0.94c-0.42-0.14-0.68-0.45-0.68-0.82c0-0.37,0.26-0.68,0.68-0.82l2.85-0.93
			c0.22-0.07,0.36-0.22,0.36-0.38V1.78H52.08z"/>
		<path class="st0" d="M0.02,56.41v-2.78h12.35v2.78H0.02z M0.53,54.15v1.75h11.32v-1.75H0.53z"/>
		<path class="st0" d="M46.2,6.62V3.84h5.86v2.78H46.2z M46.71,4.35V6.1h4.83V4.35H46.71z"/>
		<path class="st0" d="M0,6.62V3.84h12.35v2.78H0z M0.51,4.35V6.1h11.32V4.35H0.51z"/>
	</g>
	<g>
		<path class="st0" d="M225.94,132.19v-6.45h18.27v6.45H225.94z M226.46,126.26v5.42h17.25v-5.42H226.46z"/>
		<path class="st0" d="M285.36,139.39v-20.83h19.32c0.42,0,0.76,0.34,0.76,0.76v19.32c0,0.42-0.34,0.76-0.76,0.76L285.36,139.39z
			 M285.87,119.07v19.8l18.81,0c0.13,0,0.24-0.11,0.24-0.24v-19.32c0-0.13-0.11-0.24-0.24-0.24H285.87z"/>
		<path class="st0" d="M291.54,136.05v-13.9l13.14,0c0.42,0,0.76,0.34,0.76,0.76v12.38c0,0.42-0.34,0.76-0.76,0.76H291.54z
			 M292.05,122.67v12.87h12.62c0.13,0,0.24-0.11,0.24-0.24v-12.38c0-0.13-0.11-0.24-0.24-0.24L292.05,122.67z"/>
		<path class="st0" d="M291.54,125.11v-1.51h13.14c0.42,0,0.76,0.34,0.76,0.76s-0.34,0.76-0.76,0.76H291.54z M292.05,124.11v0.48
			h12.62c0.13,0,0.24-0.11,0.24-0.24c0-0.13-0.11-0.24-0.24-0.24H292.05z"/>
		<path class="st0" d="M291.54,127.44v-1.51h13.14c0.42,0,0.76,0.34,0.76,0.76s-0.34,0.76-0.76,0.76H291.54z M292.05,126.45v0.48
			h12.62c0.13,0,0.24-0.11,0.24-0.24s-0.11-0.24-0.24-0.24H292.05z"/>
		<path class="st0" d="M291.54,129.78v-1.51h13.14c0.42,0,0.76,0.34,0.76,0.76c0,0.42-0.34,0.76-0.76,0.76H291.54z M292.05,128.78
			v0.48h12.62c0.13,0,0.24-0.11,0.24-0.24c0-0.13-0.11-0.24-0.24-0.24H292.05z"/>
		<path class="st0" d="M291.54,132.12v-1.51h13.14c0.42,0,0.76,0.34,0.76,0.76c0,0.42-0.34,0.76-0.76,0.76H291.54z M292.05,131.12
			v0.48h12.62c0.13,0,0.24-0.11,0.24-0.24c0-0.13-0.11-0.24-0.24-0.24H292.05z"/>
		<path class="st0" d="M291.54,134.46v-1.51h13.14c0.42,0,0.76,0.34,0.76,0.76c0,0.42-0.34,0.76-0.76,0.76H291.54z M292.05,133.46
			v0.48h12.62c0.13,0,0.24-0.11,0.24-0.24c0-0.13-0.11-0.24-0.24-0.24H292.05z"/>
		<g>
			<path class="st0" d="M267.39,137.73v-17.52c0-2.06,1.69-3.74,3.78-3.74h14.7v25h-14.7C269.09,141.47,267.39,139.79,267.39,137.73
				z M285.36,116.98h-14.18c-1.8,0-3.26,1.45-3.26,3.23v17.52c0,1.78,1.46,3.23,3.26,3.23h14.18V116.98z"/>
			<path class="st0" d="M243.68,134.07v-10.2c0-0.89,0.91-1.62,2.03-1.62h0.83c1.08,0,1.97,0.68,2.03,1.53l1.55-0.13v-0.99
				c0-0.89,0.91-1.62,2.03-1.62h0.83c1.12,0,2.03,0.73,2.03,1.62v0.58l1.54-0.13v-1.33c0-0.89,0.91-1.62,2.03-1.62h0.83
				c1.12,0,2.03,0.73,2.03,1.62v0.92l1.54-0.13v-1.63c0-0.89,0.91-1.62,2.03-1.62h0.83c1.12,0,2.03,0.73,2.03,1.62v16.03
				c0,0.89-0.91,1.62-2.03,1.62h-0.83c-1.12,0-2.03-0.73-2.03-1.62v-1.63l-1.54-0.13v0.92c0,0.89-0.91,1.62-2.03,1.62h-0.83
				c-1.12,0-2.03-0.73-2.03-1.62v-1.33l-1.54-0.13v0.58c0,0.89-0.91,1.62-2.03,1.62h-0.83c-1.12,0-2.03-0.73-2.03-1.62v-0.99
				l-1.55-0.13c-0.06,0.85-0.95,1.53-2.03,1.53h-0.83C244.59,135.68,243.68,134.96,243.68,134.07z M248.07,123.87
				c0-0.61-0.68-1.1-1.52-1.1h-0.83c-0.84,0-1.52,0.49-1.52,1.1v10.2c0,0.61,0.68,1.1,1.52,1.1h0.83c0.84,0,1.52-0.49,1.52-1.1
				v-0.47l2.57,0.21v1.46c0,0.61,0.68,1.1,1.52,1.1h0.83c0.84,0,1.52-0.49,1.52-1.1v-1.14l2.57,0.21v1.8c0,0.61,0.68,1.1,1.52,1.1
				h0.83c0.84,0,1.52-0.49,1.52-1.1v-1.48l2.57,0.21v2.1c0,0.61,0.68,1.1,1.52,1.1h0.83c0.84,0,1.52-0.49,1.52-1.1v-16.03
				c0-0.61-0.68-1.1-1.52-1.1h-0.83c-0.84,0-1.52,0.49-1.52,1.1v2.1l-2.57,0.21v-1.48c0-0.61-0.68-1.1-1.52-1.1h-0.83
				c-0.84,0-1.52,0.49-1.52,1.1v1.8l-2.57,0.21v-1.14c0-0.61-0.68-1.1-1.52-1.1h-0.83c-0.84,0-1.52,0.49-1.52,1.1v1.46l-2.57,0.21
				V123.87z"/>
		</g>
	</g>
	<path class="st0" d="M74.12,104.45c0-7.07,2.39-12.91,7.1-17.35c4.69-4.41,11.49-7.32,20.23-8.63c6.11-0.92,11-0.7,11.57-0.67
		l77.66-0.29l0-0.02l0.3,0.01l1.45-0.01l0,0.03c4.67-0.01,19.17-0.69,27.32-8.43c3.85-3.66,5.81-8.5,5.81-14.4
		c0-5.39-1.88-9.94-5.58-13.52c-10.85-10.5-33.7-9.85-33.93-9.84l-0.05,0L77.36,32.43l-0.04-4.12l0.26,0l108.38-1.07
		c0.63-0.02,6.43-0.16,13.73,1.03c10.25,1.66,18.05,5.02,23.16,9.97c4.53,4.38,6.83,9.93,6.83,16.48c0,7.07-2.39,12.93-7.1,17.39
		c-4.68,4.44-11.49,7.39-20.22,8.77c-5.87,0.93-10.59,0.79-11.47,0.76l-77.97,0.29l-0.07,0c-0.19-0.01-19.04-1.02-28.81,8.19
		c-3.85,3.63-5.8,8.45-5.8,14.34c0,5.39,1.87,9.93,5.57,13.51c10.83,10.48,33.7,9.86,33.93,9.85l0.04,0l108.66-1.07l0.04,4.12
		l-0.26,0l-108.37,1.07c-0.65,0.02-6.43,0.16-13.74-1.03c-10.25-1.66-18.05-5.02-23.16-9.97C76.41,116.55,74.12,111,74.12,104.45z
		 M190.96,78.04l-0.04,0l-77.92,0.29l-0.01,0c-0.53-0.03-5.39-0.25-11.47,0.66c-8.63,1.3-15.35,4.16-19.95,8.49
		c-4.61,4.34-6.94,10.05-6.94,16.97c0,6.4,2.25,11.82,6.67,16.11c5.04,4.88,12.74,8.18,22.89,9.83c7.26,1.18,13.01,1.04,13.64,1.02
		l0.01,0l108.12-1.07l-0.03-3.09l-108.14,1.07l-0.04,0c-0.23,0.01-23.32,0.63-34.31-9.99c-3.8-3.68-5.73-8.35-5.73-13.88
		c0-6.04,2.01-10.99,5.96-14.72c9.93-9.36,29-8.34,29.19-8.33l0.05,0l77.97-0.29c0.89,0.04,5.57,0.17,11.38-0.75
		c8.63-1.36,15.34-4.27,19.95-8.64c4.61-4.37,6.94-10.09,6.94-17.02c0-6.41-2.25-11.82-6.67-16.11c-5.04-4.88-12.74-8.18-22.89-9.83
		c-7.26-1.18-13.01-1.04-13.64-1.02L77.84,28.82l0.03,3.09l108.14-1.07l0.04,0c0.23-0.01,23.29-0.66,34.3,9.99
		c3.8,3.68,5.73,8.35,5.73,13.89c0,6.04-2.01,11.01-5.97,14.77c-8.45,8.02-23.51,8.59-27.93,8.57l-0.26,0l0-0.03L190.96,78.04
		L190.96,78.04z"/>
</g>
</svg>
