<svg width="33" height="32" viewBox="0 0 33 32" fill="none" xmlns="http://www.w3.org/2000/svg">
<path fill-rule="evenodd" clip-rule="evenodd" d="M18.3154 16.0001L24.0394 10.2761C24.5607 9.75476 24.5607 8.91209 24.0394 8.39076C23.518 7.86942 22.6754 7.86942 22.154 8.39076L16.43 14.1148L10.706 8.39076C10.1847 7.86942 9.34202 7.86942 8.82069 8.39076C8.29935 8.91209 8.29935 9.75476 8.82069 10.2761L14.5447 16.0001L8.82069 21.7241C8.29935 22.2454 8.29935 23.0881 8.82069 23.6094C9.08069 23.8694 9.42202 24.0001 9.76335 24.0001C10.1047 24.0001 10.446 23.8694 10.706 23.6094L16.43 17.8854L22.154 23.6094C22.414 23.8694 22.7554 24.0001 23.0967 24.0001C23.438 24.0001 23.7794 23.8694 24.0394 23.6094C24.5607 23.0881 24.5607 22.2454 24.0394 21.7241L18.3154 16.0001Z" fill="#707382"/>
</svg>
