<svg width="252" height="200" viewBox="0 0 252 200" fill="none" xmlns="http://www.w3.org/2000/svg">
<g clip-path="url(#clip0_2177_64179)">
<path d="M102.832 78.3066H31.1885V92.338H102.832V78.3066Z" fill="#B5B9C6"/>
<path d="M104.775 64.4994H29.2937C28.3699 64.4902 27.4795 64.8442 26.8142 65.4851C26.1488 66.1259 25.7618 67.0025 25.7363 67.9259V73.4226H108.318V67.9259C108.3 67.0025 107.917 66.1237 107.254 65.4816C106.59 64.8395 105.699 64.4864 104.775 64.4994ZM31.5768 70.5117C31.3226 70.5051 31.0761 70.4237 30.8679 70.2777C30.6598 70.1317 30.4993 69.9275 30.4066 69.6908C30.3138 69.454 30.293 69.1952 30.3466 68.9466C30.4002 68.6981 30.5259 68.4709 30.708 68.2934C30.8901 68.1159 31.1205 67.9961 31.3703 67.9489C31.6202 67.9016 31.8784 67.9291 32.1127 68.0279C32.347 68.1267 32.5469 68.2923 32.6876 68.5042C32.8282 68.716 32.9033 68.9646 32.9033 69.2188C32.9019 69.3901 32.8667 69.5594 32.7998 69.7171C32.7329 69.8747 32.6356 70.0177 32.5135 70.1377C32.3913 70.2578 32.2467 70.3526 32.0879 70.4168C31.9292 70.4809 31.7593 70.5132 31.588 70.5117H31.5768ZM36.9128 70.5117C36.6585 70.5059 36.4115 70.4251 36.2029 70.2795C35.9942 70.1339 35.8332 69.93 35.7399 69.6932C35.6466 69.4565 35.6252 69.1976 35.6784 68.9488C35.7316 68.7 35.8571 68.4724 36.039 68.2946C36.221 68.1167 36.4513 67.9965 36.7013 67.949C36.9512 67.9015 37.2096 67.9288 37.4442 68.0275C37.6787 68.1262 37.8789 68.2918 38.0196 68.5037C38.1604 68.7157 38.2356 68.9644 38.2356 69.2188C38.2357 69.3912 38.2013 69.5618 38.1344 69.7206C38.0676 69.8795 37.9697 70.0233 37.8464 70.1438C37.7232 70.2642 37.5771 70.3588 37.4168 70.422C37.2565 70.4852 37.0851 70.5157 36.9128 70.5117Z" fill="#DDDEDF"/>
<path d="M105.616 131.263H28.4832C27.6044 131.275 26.7567 130.938 26.1262 130.326C25.4957 129.714 25.1339 128.876 25.1201 127.997V67.2796C25.1397 66.4233 25.4973 65.6094 26.1148 65.0158C26.7322 64.4221 27.5595 64.0968 28.4159 64.1109H105.646C106.495 64.0958 107.315 64.4177 107.927 65.0059C108.539 65.5942 108.893 66.401 108.912 67.2497V128.031C108.912 128.456 108.828 128.877 108.665 129.27C108.502 129.662 108.264 130.019 107.963 130.319C107.662 130.619 107.305 130.857 106.912 131.019C106.519 131.181 106.098 131.264 105.672 131.263H105.616ZM28.4421 65.3402C28.181 65.3338 27.9212 65.3788 27.6775 65.4728C27.4339 65.5668 27.2111 65.7079 27.022 65.888C26.8329 66.0681 26.6811 66.2837 26.5753 66.5224C26.4695 66.7612 26.4118 67.0185 26.4055 67.2796V127.964C26.4124 128.509 26.6349 129.029 27.0242 129.411C27.4135 129.792 27.938 130.004 28.4832 130H105.646C106.186 130.006 106.705 129.799 107.093 129.424C107.481 129.049 107.705 128.537 107.716 127.997V67.2609C107.7 66.7438 107.48 66.2541 107.106 65.8975C106.731 65.5409 106.231 65.3461 105.714 65.3552L28.4421 65.3402Z" fill="#B5B9C6"/>
<path d="M98.2103 74.2636H26.372C26.206 74.2648 26.0459 74.2016 25.9254 74.0873C25.8049 73.9731 25.7333 73.8167 25.7256 73.6508C25.7261 73.569 25.7427 73.4881 25.7746 73.4128C25.8064 73.3375 25.8529 73.2692 25.9112 73.2119C25.9696 73.1546 26.0387 73.1094 26.1145 73.0789C26.1904 73.0484 26.2716 73.0332 26.3534 73.0342H98.2103C98.3676 73.0353 98.5186 73.0964 98.6323 73.2051C98.746 73.3138 98.8138 73.4619 98.8219 73.619C98.83 73.776 98.7778 73.9303 98.6759 74.0501C98.574 74.17 98.4302 74.2463 98.2738 74.2636H98.2103Z" fill="#B5B9C6"/>
<path d="M41.8906 73.7141C41.7245 73.7153 41.5645 73.6521 41.444 73.5379C41.3235 73.4236 41.2519 73.2672 41.2441 73.1013V65.2542C41.2451 65.1728 41.2621 65.0923 41.2942 65.0174C41.3263 64.9425 41.3728 64.8747 41.4311 64.8178C41.4894 64.7609 41.5583 64.716 41.634 64.6858C41.7096 64.6555 41.7904 64.6404 41.8719 64.6414C42.0382 64.6393 42.1988 64.7022 42.3195 64.8166C42.4402 64.931 42.5116 65.088 42.5184 65.2542V73.1013C42.5174 73.1828 42.5004 73.2632 42.4683 73.3381C42.4362 73.413 42.3897 73.4809 42.3314 73.5378C42.2731 73.5947 42.2042 73.6395 42.1285 73.6698C42.0529 73.7001 41.972 73.7151 41.8906 73.7141Z" fill="#B5B9C6"/>
<path d="M31.5775 70.9976C31.0647 70.9989 30.5718 70.8 30.2033 70.4435C29.8349 70.0869 29.6201 69.6007 29.6045 69.0882C29.6104 68.5775 29.8187 68.0899 30.1837 67.7326C30.5487 67.3754 31.0406 67.1775 31.5513 67.1825H31.5775C32.0896 67.1812 32.582 67.3795 32.9504 67.7353C33.3187 68.0911 33.5339 68.5764 33.5505 69.0882C33.5416 69.6029 33.3289 70.0931 32.959 70.4511C32.5891 70.8091 32.0922 71.0056 31.5775 70.9976ZM31.5775 68.382C31.4906 68.38 31.4042 68.3951 31.3232 68.4265C31.2422 68.458 31.1682 68.505 31.1054 68.5651C31.0426 68.6251 30.9922 68.6969 30.9572 68.7764C30.9221 68.8559 30.9031 68.9415 30.9011 69.0284V69.062C30.9011 69.1967 30.9411 69.3283 31.016 69.4403C31.0909 69.5522 31.1973 69.6393 31.3218 69.6907C31.4463 69.7421 31.5832 69.7553 31.7153 69.7288C31.8473 69.7022 31.9685 69.6371 32.0634 69.5416C32.1584 69.4461 32.2229 69.3246 32.2487 69.1924C32.2745 69.0602 32.2605 68.9234 32.2084 68.7992C32.1564 68.675 32.0687 68.569 31.9563 68.4947C31.844 68.4205 31.7121 68.3812 31.5775 68.382Z" fill="#B5B9C6"/>
<path d="M36.9134 70.9976C36.401 70.9998 35.9081 70.8018 35.5395 70.4458C35.171 70.0898 34.956 69.604 34.9404 69.0918C34.9463 68.5811 35.1547 68.0936 35.5197 67.7363C35.8847 67.379 36.3765 67.1811 36.8873 67.1861H36.9134C37.4255 67.1849 37.918 67.3832 38.2863 67.739C38.6546 68.0947 38.8699 68.58 38.8864 69.0918C38.8756 69.6056 38.6621 70.0942 38.2925 70.4512C37.923 70.8082 37.4272 71.0046 36.9134 70.9976ZM36.9134 68.3819C36.7379 68.3788 36.5682 68.4449 36.441 68.5658C36.3138 68.6868 36.2392 68.8529 36.2333 69.0283V69.062C36.2353 69.2417 36.3076 69.4136 36.4347 69.5407C36.5618 69.6678 36.7336 69.7401 36.9134 69.742C37.0938 69.742 37.2668 69.6704 37.3943 69.5428C37.5218 69.4153 37.5935 69.2423 37.5935 69.062C37.5935 68.8816 37.5218 68.7086 37.3943 68.5811C37.2668 68.4535 37.0938 68.3819 36.9134 68.3819Z" fill="#B5B9C6"/>
<path d="M87.8973 68.5724H46.4834C46.317 68.5745 46.1565 68.5117 46.0358 68.3972C45.915 68.2828 45.8437 68.1258 45.8369 67.9596C45.8374 67.8778 45.8541 67.797 45.8859 67.7217C45.9178 67.6463 45.9642 67.5781 46.0226 67.5208C46.0809 67.4635 46.15 67.4183 46.2259 67.3878C46.3017 67.3573 46.3829 67.3421 46.4647 67.3431H87.8973C88.0546 67.3441 88.2056 67.4052 88.3193 67.514C88.433 67.6227 88.5008 67.7707 88.5089 67.9278C88.5171 68.0849 88.4648 68.2391 88.3629 68.359C88.2611 68.4788 88.1172 68.5552 87.9609 68.5724C87.9398 68.5761 87.9184 68.5761 87.8973 68.5724Z" fill="#B5B9C6"/>
<path d="M68.7276 71.1284H46.5166C46.3499 71.1295 46.1893 71.0658 46.0687 70.9507C45.9481 70.8357 45.8769 70.6783 45.8701 70.5118C45.8711 70.4303 45.8881 70.3499 45.9202 70.275C45.9523 70.2001 45.9988 70.1323 46.0571 70.0754C46.1154 70.0184 46.1843 69.9736 46.2599 69.9433C46.3356 69.9131 46.4164 69.898 46.4979 69.899H68.7276C68.8936 69.8978 69.0537 69.961 69.1742 70.0752C69.2947 70.1895 69.3663 70.3459 69.374 70.5118C69.3612 70.6762 69.2881 70.83 69.1688 70.9438C69.0495 71.0576 68.8924 71.1233 68.7276 71.1284Z" fill="#B5B9C6"/>
<path d="M107.522 74.2636H103.386C103.219 74.2657 103.059 74.2028 102.938 74.0884C102.817 73.974 102.746 73.817 102.739 73.6508C102.74 73.569 102.756 73.4881 102.788 73.4128C102.82 73.3375 102.867 73.2692 102.925 73.2119C102.983 73.1546 103.052 73.1094 103.128 73.0789C103.204 73.0484 103.285 73.0332 103.367 73.0342H107.522C107.689 73.0331 107.849 73.0968 107.97 73.2118C108.091 73.3269 108.162 73.4843 108.169 73.6508C108.15 73.8127 108.076 73.9631 107.957 74.0752C107.839 74.1873 107.685 74.2541 107.522 74.2636Z" fill="#B5B9C6"/>
<path d="M103.546 92.297C103.544 92.4618 103.477 92.6192 103.36 92.7347C103.242 92.8502 103.083 92.9145 102.918 92.9135H31.2558C31.0889 92.9156 30.9278 92.8522 30.807 92.737C30.6861 92.6218 30.6152 92.4638 30.6094 92.297V78.2731C30.6099 78.1913 30.6265 78.1104 30.6584 78.0351C30.6902 77.9598 30.7367 77.8915 30.795 77.8342C30.8534 77.7769 30.9225 77.7317 30.9983 77.7012C31.0742 77.6707 31.1554 77.6556 31.2371 77.6565H102.9C103.066 77.6554 103.226 77.7186 103.346 77.8328C103.467 77.947 103.539 78.1035 103.546 78.2694V92.297ZM31.8686 91.6916H102.253V78.8859H31.8686V91.6916Z" fill="#B5B9C6"/>
<path d="M102.933 124.732H31.1881C31.0311 124.73 30.8807 124.668 30.7677 124.559C30.6546 124.45 30.5875 124.302 30.5798 124.145C30.5722 123.988 30.6247 123.834 30.7266 123.715C30.8286 123.595 30.9722 123.519 31.1283 123.502H102.933C103.09 123.504 103.24 123.566 103.353 123.675C103.466 123.784 103.534 123.932 103.541 124.089C103.549 124.246 103.496 124.399 103.394 124.519C103.292 124.638 103.149 124.714 102.993 124.732H102.933Z" fill="#B5B9C6"/>
<path d="M42.8625 109.247C42.8615 109.328 42.8445 109.408 42.8124 109.483C42.7803 109.558 42.7338 109.626 42.6755 109.683C42.6172 109.74 42.5483 109.785 42.4727 109.815C42.397 109.845 42.3162 109.86 42.2347 109.859H31.2226C31.0566 109.861 30.8965 109.797 30.776 109.683C30.6555 109.569 30.5839 109.412 30.5762 109.247V98.511C30.5791 98.3471 30.6468 98.1911 30.7644 98.077C30.8821 97.9628 31.0401 97.8999 31.2039 97.9019H42.216C42.3821 97.9008 42.5421 97.9639 42.6626 98.0782C42.7831 98.1924 42.8548 98.3489 42.8625 98.5147V109.247ZM31.8691 108.63H41.5845V99.1275H31.8691V108.63Z" fill="#B5B9C6"/>
<path d="M63.0705 109.247C63.0695 109.328 63.0524 109.409 63.0201 109.484C62.9878 109.559 62.9409 109.627 62.8822 109.684C62.8235 109.741 62.7542 109.786 62.6781 109.816C62.602 109.846 62.5208 109.861 62.439 109.859H51.4306C51.2643 109.862 51.1037 109.799 50.983 109.684C50.8623 109.57 50.791 109.413 50.7842 109.247V98.5111C50.7852 98.4296 50.8022 98.3491 50.8342 98.2743C50.8663 98.1994 50.9128 98.1315 50.9711 98.0746C51.0294 98.0177 51.0984 97.9729 51.174 97.9426C51.2496 97.9123 51.3305 97.8973 51.412 97.8982H62.4203C62.5866 97.8962 62.7472 97.959 62.8679 98.0734C62.9886 98.1879 63.06 98.3449 63.0668 98.5111L63.0705 109.247ZM52.0771 108.63H61.7925V99.1276H52.0771V108.63Z" fill="#B5B9C6"/>
<path d="M83.2406 109.247C83.2396 109.328 83.2226 109.409 83.1905 109.483C83.1584 109.558 83.1119 109.626 83.0536 109.683C82.9953 109.74 82.9264 109.785 82.8508 109.815C82.7751 109.845 82.6943 109.86 82.6128 109.859H71.6045C71.4381 109.862 71.2776 109.799 71.1569 109.684C71.0361 109.57 70.9648 109.413 70.958 109.247V98.5111C70.959 98.4296 70.976 98.3491 71.0081 98.2743C71.0402 98.1994 71.0867 98.1315 71.145 98.0746C71.2033 98.0177 71.2722 97.9729 71.3478 97.9426C71.4235 97.9123 71.5043 97.8973 71.5858 97.8982H82.5941C82.7604 97.8962 82.921 97.959 83.0417 98.0734C83.1625 98.1879 83.2338 98.3449 83.2406 98.5111V109.247ZM72.2808 108.63H81.9963V99.1276H72.2808V108.63Z" fill="#B5B9C6"/>
<path d="M103.546 109.247C103.545 109.328 103.528 109.409 103.496 109.483C103.464 109.558 103.417 109.626 103.359 109.683C103.301 109.74 103.232 109.785 103.156 109.815C103.081 109.845 103 109.86 102.918 109.859H91.8427C91.6764 109.862 91.5158 109.799 91.3951 109.684C91.2744 109.57 91.2031 109.413 91.1963 109.247V98.5111C91.1973 98.4296 91.2143 98.3491 91.2464 98.2742C91.2784 98.1994 91.3249 98.1315 91.3832 98.0746C91.4415 98.0177 91.5105 97.9729 91.5861 97.9426C91.6617 97.9123 91.7426 97.8973 91.8241 97.8982H102.9C103.066 97.8971 103.226 97.9603 103.346 98.0745C103.467 98.1887 103.538 98.3452 103.546 98.5111V109.247ZM92.4556 108.63H102.253V99.1276H92.4556V108.63Z" fill="#B5B9C6"/>
<path d="M102.933 118.039H31.1881C31.0311 118.037 30.8807 117.975 30.7677 117.866C30.6546 117.757 30.5875 117.609 30.5798 117.452C30.5722 117.296 30.6247 117.142 30.7266 117.022C30.8286 116.903 30.9722 116.827 31.1283 116.81H102.933C103.09 116.811 103.24 116.873 103.353 116.982C103.466 117.091 103.534 117.239 103.541 117.396C103.549 117.553 103.496 117.707 103.394 117.826C103.292 117.946 103.149 118.022 102.993 118.039H102.933Z" fill="#B5B9C6"/>
<path d="M213.764 0.646473H129.411C129.128 0.640523 128.847 0.690321 128.584 0.793024C128.32 0.895727 128.08 1.04932 127.876 1.24503C127.672 1.44075 127.508 1.67474 127.395 1.93365C127.281 2.19256 127.22 2.47131 127.214 2.75398C127.214 2.75398 127.214 2.79508 127.214 2.81377V9.16618H215.927V2.81377C215.933 2.53454 215.883 2.25697 215.781 1.99692C215.679 1.73687 215.527 1.49943 215.334 1.29817C215.14 1.09691 214.909 0.935764 214.653 0.823944C214.397 0.712124 214.121 0.651819 213.842 0.646473H213.764ZM131.866 6.25154C131.565 6.25154 131.271 6.16234 131.021 5.99523C130.771 5.82812 130.576 5.5906 130.461 5.3127C130.346 5.0348 130.316 4.72901 130.374 4.434C130.433 4.13898 130.578 3.86799 130.791 3.6553C131.003 3.44261 131.274 3.29776 131.569 3.23908C131.864 3.1804 132.17 3.21052 132.448 3.32562C132.726 3.44073 132.963 3.63566 133.131 3.88576C133.298 4.13587 133.387 4.4299 133.387 4.7307C133.379 5.13059 133.216 5.51177 132.932 5.79354C132.648 6.07531 132.266 6.23555 131.866 6.24033V6.25154ZM137.946 6.25154C137.645 6.25227 137.351 6.16398 137.101 5.99781C136.851 5.83163 136.655 5.59503 136.539 5.31785C136.423 5.04067 136.392 4.73534 136.449 4.44039C136.506 4.14545 136.65 3.8741 136.861 3.66059C137.073 3.44708 137.343 3.30099 137.637 3.24074C137.931 3.1805 138.237 3.2088 138.515 3.32208C138.794 3.43536 139.032 3.62854 139.201 3.87724C139.369 4.12595 139.461 4.41902 139.463 4.71949C139.463 5.11835 139.306 5.50127 139.027 5.78574C138.747 6.07022 138.367 6.23347 137.968 6.24033L137.946 6.25154Z" fill="#DDDEDF"/>
<path d="M213.308 68.7555H129.606C128.753 68.7515 127.937 68.4093 127.336 67.8039C126.736 67.1986 126.4 66.3796 126.403 65.527V2.98937C126.403 2.19977 126.716 1.44223 127.272 0.882144C127.829 0.322063 128.584 0.00493502 129.374 0L213.633 0C214.404 0.00197647 215.143 0.309413 215.688 0.854991C216.233 1.40057 216.539 2.13983 216.54 2.9109V65.4373C216.546 65.865 216.468 66.2897 216.309 66.6871C216.151 67.0845 215.916 67.4468 215.618 67.7532C215.319 68.0597 214.963 68.3043 214.57 68.473C214.177 68.6418 213.754 68.7314 213.327 68.7368L213.308 68.7555ZM129.374 1.19575C128.902 1.20067 128.45 1.39181 128.118 1.72765C127.785 2.06348 127.599 2.51689 127.599 2.98937V65.5008C127.607 66.0335 127.819 66.5426 128.193 66.9221C128.567 67.3016 129.073 67.522 129.606 67.5373H213.308C213.859 67.5276 214.385 67.3022 214.772 66.9097C215.159 66.5171 215.376 65.9885 215.378 65.4373V2.9109C215.382 2.45169 215.204 2.00966 214.882 1.68181C214.561 1.35395 214.122 1.16705 213.663 1.16212H129.374V1.19575Z" fill="#B5B9C6"/>
<path d="M207.165 9.7155H127.199C127.119 9.72194 127.038 9.71169 126.962 9.68542C126.886 9.65914 126.816 9.61739 126.757 9.5628C126.698 9.50822 126.651 9.44198 126.618 9.36825C126.586 9.29453 126.569 9.21492 126.569 9.13444C126.569 9.05396 126.586 8.97435 126.618 8.90063C126.651 8.8269 126.698 8.76066 126.757 8.70608C126.816 8.65149 126.886 8.60975 126.962 8.58347C127.038 8.55719 127.119 8.54694 127.199 8.55338H207.165C207.241 8.55289 207.316 8.56738 207.386 8.59604C207.457 8.62469 207.521 8.66694 207.575 8.72038C207.629 8.77381 207.672 8.83739 207.702 8.90747C207.732 8.97756 207.747 9.05278 207.747 9.12884C207.744 9.28261 207.681 9.4291 207.573 9.53822C207.464 9.64733 207.318 9.71077 207.165 9.7155Z" fill="#B5B9C6"/>
<path d="M142.763 9.05401C142.609 9.05304 142.462 8.99183 142.353 8.88352C142.244 8.77522 142.182 8.62847 142.18 8.47482V1.09855C142.18 0.94395 142.241 0.79568 142.35 0.68636C142.46 0.57704 142.608 0.515625 142.763 0.515625C142.917 0.515625 143.065 0.57704 143.175 0.68636C143.284 0.79568 143.346 0.94395 143.346 1.09855V8.43745C143.349 8.51451 143.337 8.59151 143.311 8.66403C143.285 8.73656 143.244 8.80319 143.192 8.86011C143.14 8.91703 143.078 8.96313 143.008 8.99576C142.938 9.02839 142.862 9.04691 142.785 9.05027L142.763 9.05401Z" fill="#B5B9C6"/>
<path d="M131.866 6.82326C131.45 6.82326 131.044 6.69988 130.698 6.46871C130.352 6.23755 130.082 5.90898 129.923 5.52457C129.764 5.14016 129.722 4.71716 129.803 4.30907C129.884 3.90098 130.085 3.52612 130.379 3.2319C130.673 2.93769 131.048 2.73732 131.456 2.65615C131.864 2.57497 132.287 2.61663 132.672 2.77586C133.056 2.93509 133.385 3.20474 133.616 3.5507C133.847 3.89666 133.97 4.30341 133.97 4.71949C133.971 5.27581 133.751 5.80979 133.359 6.20422C132.967 6.59864 132.434 6.82128 131.878 6.82326H131.866ZM131.866 3.78158C131.681 3.78158 131.5 3.83659 131.345 3.93964C131.191 4.0427 131.071 4.18919 131 4.36057C130.929 4.53195 130.91 4.72053 130.947 4.90247C130.983 5.08441 131.072 5.25153 131.203 5.3827C131.334 5.51387 131.502 5.6032 131.683 5.63938C131.865 5.67557 132.054 5.657 132.225 5.58601C132.397 5.51502 132.543 5.39481 132.646 5.24057C132.749 5.08633 132.804 4.90499 132.804 4.71949C132.8 4.47224 132.699 4.23645 132.524 4.06158C132.35 3.88671 132.114 3.78636 131.866 3.78158Z" fill="#B5B9C6"/>
<path d="M137.946 6.82326C137.53 6.824 137.123 6.70124 136.777 6.47053C136.43 6.23981 136.16 5.91151 136 5.52716C135.84 5.14281 135.798 4.7197 135.879 4.31136C135.96 3.90302 136.16 3.52782 136.454 3.23323C136.748 2.93863 137.123 2.7379 137.531 2.65642C137.939 2.57494 138.362 2.61639 138.747 2.77551C139.131 2.93462 139.46 3.20427 139.692 3.55031C139.923 3.89635 140.046 4.30324 140.046 4.71949C140.047 5.27581 139.828 5.80979 139.435 6.20421C139.043 6.59864 138.51 6.82128 137.954 6.82326H137.946ZM137.946 3.78157C137.761 3.78157 137.58 3.83658 137.425 3.93964C137.271 4.0427 137.151 4.18918 137.08 4.36056C137.009 4.53195 136.99 4.72053 137.026 4.90247C137.063 5.0844 137.152 5.25152 137.283 5.38269C137.414 5.51386 137.581 5.60319 137.763 5.63938C137.945 5.67557 138.134 5.657 138.305 5.58601C138.477 5.51502 138.623 5.39481 138.726 5.24057C138.829 5.08633 138.884 4.90499 138.884 4.71949C138.884 4.59632 138.86 4.47436 138.813 4.36056C138.766 4.24677 138.697 4.14338 138.61 4.05628C138.522 3.96919 138.419 3.9001 138.305 3.85297C138.192 3.80583 138.07 3.78157 137.946 3.78157Z" fill="#B5B9C6"/>
<path d="M193.556 3.97575H146.062C145.982 3.98219 145.901 3.97195 145.825 3.94567C145.749 3.91939 145.679 3.87764 145.62 3.82306C145.561 3.76847 145.514 3.70223 145.482 3.62851C145.449 3.55478 145.433 3.47518 145.433 3.39469C145.433 3.31421 145.449 3.2346 145.482 3.16088C145.514 3.08716 145.561 3.02092 145.62 2.96633C145.679 2.91175 145.749 2.87 145.825 2.84372C145.901 2.81744 145.982 2.8072 146.062 2.81364H193.518C193.594 2.81314 193.67 2.82764 193.74 2.85629C193.811 2.88494 193.875 2.92719 193.929 2.98063C193.983 3.03407 194.026 3.09764 194.056 3.16773C194.085 3.23781 194.101 3.31303 194.101 3.38909C194.105 3.46174 194.095 3.53447 194.071 3.60312C194.047 3.67176 194.009 3.73497 193.961 3.78912C193.912 3.84327 193.853 3.8873 193.788 3.91869C193.722 3.95007 193.651 3.9682 193.578 3.97202L193.556 3.97575Z" fill="#B5B9C6"/>
<path d="M171.636 7.0136H146.062C145.982 7.02003 145.901 7.00979 145.825 6.98351C145.749 6.95723 145.679 6.91548 145.62 6.8609C145.561 6.80631 145.514 6.74007 145.482 6.66635C145.449 6.59263 145.433 6.51302 145.433 6.43254C145.433 6.35206 145.449 6.27245 145.482 6.19872C145.514 6.125 145.561 6.05876 145.62 6.00417C145.679 5.94959 145.749 5.90784 145.825 5.88156C145.901 5.85528 145.982 5.84504 146.062 5.85148H171.636C171.79 5.85147 171.937 5.91185 172.046 6.01956C172.155 6.12727 172.217 6.27363 172.219 6.42693C172.224 6.57499 172.17 6.71902 172.07 6.82755C171.969 6.93608 171.829 7.00028 171.681 7.00612C171.667 7.01242 171.652 7.015 171.636 7.0136Z" fill="#B5B9C6"/>
<path d="M215.995 9.7155H213.215C213.134 9.72194 213.054 9.71169 212.978 9.68542C212.901 9.65914 212.832 9.61739 212.773 9.5628C212.713 9.50822 212.666 9.44198 212.634 9.36825C212.602 9.29453 212.585 9.21492 212.585 9.13444C212.585 9.05396 212.602 8.97435 212.634 8.90063C212.666 8.8269 212.713 8.76066 212.773 8.70608C212.832 8.65149 212.901 8.60975 212.978 8.58347C213.054 8.55719 213.134 8.54694 213.215 8.55338H215.995C216.071 8.55289 216.146 8.56741 216.216 8.59611C216.286 8.62481 216.35 8.66712 216.404 8.7206C216.458 8.77409 216.501 8.83769 216.53 8.90775C216.559 8.97781 216.574 9.05295 216.574 9.12884C216.578 9.20288 216.567 9.27698 216.542 9.34679C216.517 9.4166 216.478 9.48071 216.428 9.53536C216.378 9.59001 216.318 9.63409 216.25 9.66503C216.183 9.69596 216.11 9.71312 216.036 9.7155H215.995Z" fill="#B5B9C6"/>
<path d="M165.363 18.3622H139.464C139.308 18.3622 139.159 18.3004 139.049 18.1904C138.939 18.0804 138.877 17.9311 138.877 17.7755C138.877 17.62 138.939 17.4707 139.049 17.3607C139.159 17.2507 139.308 17.1889 139.464 17.1889H165.359C165.439 17.1824 165.52 17.1927 165.596 17.219C165.672 17.2452 165.742 17.287 165.801 17.3416C165.86 17.3962 165.907 17.4624 165.94 17.5361C165.972 17.6098 165.989 17.6895 165.989 17.7699C165.989 17.8504 165.972 17.93 165.94 18.0038C165.907 18.0775 165.86 18.1437 165.801 18.1983C165.742 18.2529 165.672 18.2946 165.596 18.3209C165.52 18.3472 165.439 18.3574 165.359 18.351L165.363 18.3622Z" fill="#B5B9C6"/>
<path d="M165.362 22.3082H139.463C139.308 22.3082 139.16 22.2468 139.051 22.1375C138.941 22.0281 138.88 21.8799 138.88 21.7253C138.88 21.5707 138.941 21.4224 139.051 21.3131C139.16 21.2037 139.308 21.1423 139.463 21.1423H165.358C165.513 21.1423 165.661 21.2037 165.77 21.3131C165.88 21.4224 165.941 21.5707 165.941 21.7253C165.941 21.8799 165.88 22.0281 165.77 22.1375C165.661 22.2468 165.513 22.3082 165.358 22.3082H165.362Z" fill="#B5B9C6"/>
<path d="M165.362 32.558H139.463C139.308 32.558 139.159 32.4964 139.049 32.3867C138.94 32.2771 138.878 32.1283 138.878 31.9732C138.878 31.8181 138.94 31.6694 139.049 31.5597C139.159 31.45 139.308 31.3884 139.463 31.3884H165.358C165.513 31.3884 165.661 31.4498 165.77 31.5592C165.88 31.6685 165.941 31.8168 165.941 31.9714C165.941 32.126 165.88 32.2742 165.77 32.3835C165.661 32.4929 165.513 32.5543 165.358 32.5543L165.362 32.558Z" fill="#B5B9C6"/>
<path d="M150.846 25.4433H139.635C139.555 25.4497 139.475 25.4395 139.398 25.4132C139.322 25.3869 139.253 25.3452 139.193 25.2906C139.134 25.236 139.087 25.1698 139.055 25.096C139.023 25.0223 139.006 24.9427 139.006 24.8622C139.006 24.7817 139.023 24.7021 139.055 24.6284C139.087 24.5547 139.134 24.4884 139.193 24.4339C139.253 24.3793 139.322 24.3375 139.398 24.3112C139.475 24.285 139.555 24.2747 139.635 24.2812H150.846C150.926 24.2747 151.006 24.285 151.083 24.3112C151.159 24.3375 151.228 24.3793 151.288 24.4339C151.347 24.4884 151.394 24.5547 151.426 24.6284C151.458 24.7021 151.475 24.7817 151.475 24.8622C151.475 24.9427 151.458 25.0223 151.426 25.096C151.394 25.1698 151.347 25.236 151.288 25.2906C151.228 25.3452 151.159 25.3869 151.083 25.4132C151.006 25.4395 150.926 25.4497 150.846 25.4433Z" fill="#B5B9C6"/>
<path d="M150.846 28.8063H139.635C139.555 28.8128 139.475 28.8025 139.398 28.7762C139.322 28.75 139.253 28.7082 139.193 28.6536C139.134 28.599 139.087 28.5328 139.055 28.4591C139.023 28.3854 139.006 28.3057 139.006 28.2253C139.006 28.1448 139.023 28.0652 139.055 27.9914C139.087 27.9177 139.134 27.8515 139.193 27.7969C139.253 27.7423 139.322 27.7006 139.398 27.6743C139.475 27.648 139.555 27.6378 139.635 27.6442H150.846C150.926 27.6378 151.006 27.648 151.083 27.6743C151.159 27.7006 151.228 27.7423 151.288 27.7969C151.347 27.8515 151.394 27.9177 151.426 27.9914C151.458 28.0652 151.475 28.1448 151.475 28.2253C151.475 28.3057 151.458 28.3854 151.426 28.4591C151.394 28.5328 151.347 28.599 151.288 28.6536C151.228 28.7082 151.159 28.75 151.083 28.7762C151.006 28.8025 150.926 28.8128 150.846 28.8063Z" fill="#B5B9C6"/>
<path d="M203.577 57.5155H186.388C186.308 57.522 186.227 57.5117 186.151 57.4855C186.075 57.4592 186.005 57.4174 185.946 57.3629C185.887 57.3083 185.84 57.242 185.808 57.1683C185.775 57.0946 185.759 57.015 185.759 56.9345C185.759 56.854 185.775 56.7744 185.808 56.7007C185.84 56.627 185.887 56.5607 185.946 56.5061C186.005 56.4515 186.075 56.4098 186.151 56.3835C186.227 56.3572 186.308 56.347 186.388 56.3534H203.577C203.657 56.347 203.738 56.3572 203.814 56.3835C203.89 56.4098 203.96 56.4515 204.019 56.5061C204.078 56.5607 204.126 56.627 204.158 56.7007C204.19 56.7744 204.207 56.854 204.207 56.9345C204.207 57.015 204.19 57.0946 204.158 57.1683C204.126 57.242 204.078 57.3083 204.019 57.3629C203.96 57.4174 203.89 57.4592 203.814 57.4855C203.738 57.5117 203.657 57.522 203.577 57.5155Z" fill="#B5B9C6"/>
<path d="M149.926 36.5003H139.463C139.317 36.4885 139.181 36.4222 139.081 36.3146C138.982 36.2069 138.927 36.0657 138.927 35.9192C138.927 35.7727 138.982 35.6315 139.081 35.5238C139.181 35.4162 139.317 35.3499 139.463 35.3381H149.926C150.072 35.3499 150.208 35.4162 150.308 35.5238C150.407 35.6315 150.462 35.7727 150.462 35.9192C150.462 36.0657 150.407 36.2069 150.308 36.3146C150.208 36.4222 150.072 36.4885 149.926 36.5003Z" fill="#B5B9C6"/>
<path d="M159.317 36.5003H155.662C155.516 36.4885 155.38 36.4222 155.281 36.3146C155.181 36.2069 155.126 36.0657 155.126 35.9192C155.126 35.7727 155.181 35.6315 155.281 35.5238C155.38 35.4162 155.516 35.3499 155.662 35.3381H159.317C159.47 35.3381 159.617 35.3985 159.726 35.5062C159.835 35.6139 159.898 35.7603 159.9 35.9136C159.905 36.0616 159.851 36.2057 159.75 36.3142C159.649 36.4227 159.51 36.4869 159.362 36.4928L159.317 36.5003Z" fill="#B5B9C6"/>
<path d="M165.363 39.9604H139.464C139.383 39.9668 139.303 39.9566 139.227 39.9303C139.151 39.904 139.081 39.8623 139.022 39.8077C138.962 39.7531 138.915 39.6868 138.883 39.6131C138.851 39.5394 138.834 39.4598 138.834 39.3793C138.834 39.2988 138.851 39.2192 138.883 39.1455C138.915 39.0718 138.962 39.0055 139.022 38.951C139.081 38.8964 139.151 38.8546 139.227 38.8283C139.303 38.8021 139.383 38.7918 139.464 38.7983H165.359C165.439 38.7918 165.52 38.8021 165.596 38.8283C165.672 38.8546 165.742 38.8964 165.801 38.951C165.86 39.0055 165.907 39.0718 165.94 39.1455C165.972 39.2192 165.989 39.2988 165.989 39.3793C165.989 39.4598 165.972 39.5394 165.94 39.6131C165.907 39.6868 165.86 39.7531 165.801 39.8077C165.742 39.8623 165.672 39.904 165.596 39.9303C165.52 39.9566 165.439 39.9668 165.359 39.9604H165.363Z" fill="#B5B9C6"/>
<path d="M165.362 43.9063H139.463C139.308 43.9063 139.16 43.8449 139.051 43.7356C138.941 43.6263 138.88 43.478 138.88 43.3234C138.88 43.1688 138.941 43.0205 139.051 42.9112C139.16 42.8019 139.308 42.7405 139.463 42.7405H165.358C165.435 42.74 165.51 42.7546 165.581 42.7835C165.652 42.8124 165.716 42.855 165.77 42.9088C165.824 42.9626 165.867 43.0267 165.897 43.0972C165.926 43.1677 165.941 43.2433 165.941 43.3197C165.937 43.4725 165.874 43.618 165.767 43.7268C165.659 43.8357 165.515 43.8998 165.362 43.9063Z" fill="#B5B9C6"/>
<path d="M165.363 54.1525H139.464C139.383 54.1589 139.303 54.1487 139.227 54.1224C139.151 54.0961 139.081 54.0544 139.022 53.9998C138.962 53.9452 138.915 53.879 138.883 53.8053C138.851 53.7315 138.834 53.6519 138.834 53.5715C138.834 53.491 138.851 53.4114 138.883 53.3376C138.915 53.2639 138.962 53.1977 139.022 53.1431C139.081 53.0885 139.151 53.0468 139.227 53.0205C139.303 52.9942 139.383 52.984 139.464 52.9904H165.359C165.439 52.984 165.52 52.9942 165.596 53.0205C165.672 53.0468 165.742 53.0885 165.801 53.1431C165.86 53.1977 165.907 53.2639 165.94 53.3376C165.972 53.4114 165.989 53.491 165.989 53.5715C165.989 53.6519 165.972 53.7315 165.94 53.8053C165.907 53.879 165.86 53.9452 165.801 53.9998C165.742 54.0544 165.672 54.0961 165.596 54.1224C165.52 54.1487 165.439 54.1589 165.359 54.1525H165.363Z" fill="#B5B9C6"/>
<path d="M150.845 47.0413H139.635C139.48 47.0413 139.332 46.9799 139.222 46.8706C139.113 46.7613 139.052 46.613 139.052 46.4584C139.052 46.3038 139.113 46.1555 139.222 46.0462C139.332 45.9369 139.48 45.8755 139.635 45.8755H150.845C150.999 45.8755 151.148 45.9369 151.257 46.0462C151.366 46.1555 151.428 46.3038 151.428 46.4584C151.428 46.613 151.366 46.7613 151.257 46.8706C151.148 46.9799 150.999 47.0413 150.845 47.0413Z" fill="#B5B9C6"/>
<path d="M150.845 50.4044H139.635C139.48 50.4044 139.332 50.343 139.222 50.2337C139.113 50.1243 139.052 49.9761 139.052 49.8215C139.052 49.6669 139.113 49.5186 139.222 49.4093C139.332 49.3 139.48 49.2385 139.635 49.2385H150.845C150.921 49.238 150.997 49.2527 151.068 49.2815C151.138 49.3104 151.203 49.353 151.257 49.4068C151.311 49.4607 151.354 49.5247 151.383 49.5952C151.413 49.6657 151.428 49.7414 151.428 49.8177C151.423 49.9712 151.36 50.1172 151.252 50.2261C151.144 50.335 150.998 50.3988 150.845 50.4044Z" fill="#B5B9C6"/>
<path d="M149.926 58.0985H139.463C139.308 58.0985 139.16 58.0371 139.051 57.9277C138.941 57.8184 138.88 57.6701 138.88 57.5155C138.88 57.3609 138.941 57.2127 139.051 57.1034C139.16 56.994 139.308 56.9326 139.463 56.9326H149.926C150.08 56.9326 150.228 56.994 150.338 57.1034C150.447 57.2127 150.509 57.3609 150.509 57.5155C150.509 57.6701 150.447 57.8184 150.338 57.9277C150.228 58.0371 150.08 58.0985 149.926 58.0985Z" fill="#B5B9C6"/>
<path d="M159.317 58.0985H155.662C155.507 58.0985 155.359 58.0371 155.25 57.9277C155.141 57.8184 155.079 57.6701 155.079 57.5155C155.079 57.3609 155.141 57.2127 155.25 57.1034C155.359 56.994 155.507 56.9326 155.662 56.9326H159.317C159.47 56.9326 159.618 56.9935 159.727 57.102C159.837 57.2105 159.898 57.3579 159.899 57.5118C159.91 57.6554 159.863 57.7972 159.769 57.9064C159.675 58.0156 159.542 58.0833 159.399 58.0947C159.372 58.0997 159.344 58.101 159.317 58.0985Z" fill="#B5B9C6"/>
<path d="M248.201 49.5938H216.413V56.5142H250.417V51.7947C250.416 51.5047 250.358 51.2177 250.246 50.9501C250.134 50.6826 249.971 50.4397 249.765 50.2353C249.559 50.0309 249.315 49.8691 249.047 49.759C248.779 49.6489 248.491 49.5928 248.201 49.5938Z" fill="#DDDEDF"/>
<path d="M206.324 87.4391C206.184 87.4328 206.052 87.3757 205.951 87.2784L197.125 79.2258C197.06 79.17 197.009 79.1003 196.976 79.022C196.942 78.9437 196.926 78.8588 196.93 78.7736C196.931 78.6891 196.948 78.6056 196.982 78.528C197.015 78.4504 197.064 78.3802 197.125 78.3215L205.939 70.2876C206.056 70.1882 206.207 70.1378 206.36 70.1468C206.513 70.1558 206.656 70.2236 206.76 70.336C206.865 70.4484 206.921 70.5966 206.919 70.7499C206.916 70.9031 206.855 71.0494 206.747 71.1582L198.406 78.7886L206.747 86.419C206.862 86.5205 206.932 86.6634 206.943 86.8166C206.953 86.9698 206.903 87.121 206.803 87.2373L206.777 87.2597C206.717 87.3185 206.646 87.3647 206.569 87.3956C206.491 87.4264 206.408 87.4412 206.324 87.4391Z" fill="#B5B9C6"/>
<path d="M223.203 87.4391C223.118 87.4388 223.035 87.4214 222.957 87.3881C222.879 87.3547 222.809 87.3059 222.751 87.2448C222.646 87.1281 222.59 86.9752 222.596 86.8183C222.601 86.6615 222.668 86.5129 222.781 86.404L231.125 78.7736L222.792 71.1582C222.732 71.1066 222.683 71.0434 222.647 70.9725C222.612 70.9016 222.591 70.8243 222.586 70.7452C222.581 70.6661 222.592 70.5869 222.618 70.5121C222.644 70.4372 222.685 70.3684 222.738 70.3096C222.791 70.2508 222.855 70.2032 222.927 70.1696C222.999 70.136 223.077 70.1171 223.156 70.114C223.235 70.1109 223.314 70.1237 223.388 70.1515C223.462 70.1794 223.53 70.2219 223.588 70.2763L232.414 78.3252C232.477 78.3823 232.526 78.4522 232.56 78.5302C232.594 78.6082 232.61 78.6925 232.608 78.7774C232.607 78.8619 232.59 78.9454 232.557 79.023C232.523 79.1007 232.475 79.1709 232.414 79.2295L223.618 87.2821C223.502 87.3806 223.355 87.436 223.203 87.4391Z" fill="#B5B9C6"/>
<path d="M212.598 87.4391C212.542 87.4469 212.485 87.435 212.437 87.4055C212.361 87.386 212.29 87.3515 212.227 87.3042C212.165 87.257 212.112 87.1977 212.072 87.13C212.033 87.0622 212.007 86.9873 211.997 86.9095C211.986 86.8318 211.991 86.7527 212.011 86.6769L216.376 70.5791C216.424 70.4313 216.528 70.3077 216.665 70.2341C216.802 70.1605 216.962 70.1425 217.112 70.1839C217.262 70.2252 217.39 70.3227 217.47 70.4561C217.55 70.5896 217.576 70.7487 217.542 70.9005L213.173 87.002C213.136 87.1261 213.06 87.2352 212.956 87.3137C212.853 87.3922 212.728 87.4361 212.598 87.4391Z" fill="#B5B9C6"/>
<path d="M247.97 104.591H181.561C180.712 104.589 179.899 104.251 179.299 103.651C178.698 103.05 178.36 102.237 178.358 101.388V68.5053C178.358 68.3507 178.42 68.2024 178.529 68.0931C178.638 67.9837 178.787 67.9223 178.941 67.9223C179.096 67.9223 179.244 67.9837 179.354 68.0931C179.463 68.2024 179.524 68.3507 179.524 68.5053V101.388C179.526 101.919 179.738 102.428 180.113 102.804C180.488 103.179 180.996 103.392 181.527 103.395H247.936C248.48 103.39 249.001 103.169 249.382 102.781C249.764 102.393 249.976 101.869 249.972 101.325V51.8582C249.974 51.639 249.933 51.4216 249.851 51.2184C249.769 51.0152 249.647 50.8302 249.494 50.674C249.34 50.5179 249.157 50.3935 248.955 50.3082C248.753 50.2228 248.536 50.1781 248.317 50.1767H216.35C216.269 50.1831 216.189 50.1729 216.113 50.1466C216.036 50.1203 215.967 50.0786 215.908 50.024C215.848 49.9694 215.801 49.9032 215.769 49.8294C215.737 49.7557 215.72 49.6761 215.72 49.5956C215.72 49.5151 215.737 49.4355 215.769 49.3618C215.801 49.2881 215.848 49.2218 215.908 49.1673C215.967 49.1127 216.036 49.0709 216.113 49.0446C216.189 49.0184 216.269 49.0081 216.35 49.0146H248.291C249.053 49.0165 249.784 49.3203 250.323 49.8595C250.862 50.3986 251.166 51.1293 251.168 51.8918V101.358C251.171 101.78 251.09 102.199 250.931 102.59C250.772 102.98 250.537 103.336 250.24 103.636C249.944 103.936 249.591 104.175 249.202 104.339C248.813 104.503 248.395 104.588 247.973 104.591H247.97Z" fill="#B5B9C6"/>
<path d="M243.407 57.097H216.413C216.258 57.097 216.11 57.0356 216.001 56.9263C215.891 56.817 215.83 56.6687 215.83 56.5141C215.83 56.3595 215.891 56.2112 216.001 56.1019C216.11 55.9926 216.258 55.9312 216.413 55.9312H243.407C243.562 55.9312 243.71 55.9926 243.819 56.1019C243.929 56.2112 243.99 56.3595 243.99 56.5141C243.99 56.6687 243.929 56.817 243.819 56.9263C243.71 57.0356 243.562 57.097 243.407 57.097Z" fill="#B5B9C6"/>
<path d="M232.481 53.2146H216.379C216.233 53.2029 216.097 53.1366 215.997 53.0289C215.898 52.9212 215.843 52.7801 215.843 52.6335C215.843 52.487 215.898 52.3459 215.997 52.2382C216.097 52.1305 216.233 52.0642 216.379 52.0525H232.481C232.634 52.0525 232.781 52.1129 232.89 52.2206C232.999 52.3283 233.062 52.4746 233.063 52.6279C233.069 52.776 233.015 52.92 232.914 53.0286C232.813 53.1371 232.673 53.2013 232.525 53.2071L232.481 53.2146Z" fill="#B5B9C6"/>
<path d="M250.443 57.097H248.373C248.218 57.097 248.07 57.0356 247.961 56.9263C247.851 56.817 247.79 56.6687 247.79 56.5141C247.79 56.3595 247.851 56.2112 247.961 56.1019C248.07 55.9926 248.218 55.9312 248.373 55.9312H250.443C250.598 55.9312 250.746 55.9926 250.855 56.1019C250.965 56.2112 251.026 56.3595 251.026 56.5141C251.026 56.6687 250.965 56.817 250.855 56.9263C250.746 57.0356 250.598 57.097 250.443 57.097Z" fill="#B5B9C6"/>
<path d="M66.2686 64.9853V63.6924" stroke="#B5B9C6" stroke-width="3" stroke-miterlimit="10"/>
<path d="M66.2686 61.0393V39.3664C66.2676 38.4458 66.4479 37.5341 66.7993 36.6832C67.1507 35.8323 67.6662 35.059 68.3165 34.4074C68.9667 33.7557 69.739 33.2385 70.5891 32.8853C71.4392 32.5321 72.3506 32.3499 73.2712 32.3489H124.24" stroke="#B5B9C6" stroke-width="3" stroke-miterlimit="10" stroke-dasharray="8.22 8.22"/>
<path d="M125.597 32.3301H126.89" stroke="#B5B9C6" stroke-width="3" stroke-miterlimit="10"/>
<path d="M215.767 14.9355H217.059" stroke="#B5B9C6" stroke-width="3" stroke-miterlimit="10"/>
<path d="M219.742 14.9468H230.833C231.753 14.9458 232.665 15.1262 233.515 15.4776C234.366 15.829 235.139 16.3446 235.79 16.9949C236.442 17.6452 236.959 18.4175 237.311 19.2676C237.664 20.1177 237.846 21.029 237.847 21.9494V46.9256" stroke="#B5B9C6" stroke-width="3" stroke-miterlimit="10" stroke-dasharray="8.32 8.32"/>
<path d="M237.847 48.3005V49.5934" stroke="#B5B9C6" stroke-width="3" stroke-miterlimit="10"/>
<path d="M237.331 104.071V105.364" stroke="#B5B9C6" stroke-width="3" stroke-miterlimit="10"/>
<path d="M237.331 107.991V113.843C237.332 114.763 237.152 115.675 236.801 116.526C236.449 117.377 235.934 118.15 235.283 118.802C234.633 119.453 233.861 119.971 233.011 120.324C232.161 120.677 231.249 120.859 230.329 120.86H201.283" stroke="#B5B9C6" stroke-width="3" stroke-miterlimit="10" stroke-dasharray="8.11 8.11"/>
<path d="M199.99 120.853H198.697" stroke="#B5B9C6" stroke-width="3" stroke-miterlimit="10"/>
<path d="M102.642 140.639L116.867 189.59H118.485L106.875 140.639H102.642Z" fill="#DDDEDF"/>
<path d="M87.8026 140.639L73.577 189.59H71.959L83.5652 140.639H87.8026Z" fill="#DDDEDF"/>
<path d="M95.2055 155.029C108.42 155.029 119.132 144.316 119.132 131.102C119.132 117.888 108.42 107.176 95.2055 107.176C81.9914 107.176 71.2793 117.888 71.2793 131.102C71.2793 144.316 81.9914 155.029 95.2055 155.029Z" fill="#9095A0"/>
<path d="M118.385 138.277L117.772 138.087C118.481 135.826 118.841 133.471 118.841 131.103C118.845 127.603 118.071 124.147 116.576 120.984L117.159 120.692C118.703 123.945 119.498 127.502 119.487 131.103C119.462 133.534 119.09 135.95 118.385 138.277Z" fill="#1E2127"/>
<path d="M87.9937 154.251C83.6501 152.881 79.7767 150.323 76.8116 146.866C73.8465 143.409 71.9081 139.191 71.2158 134.69L71.8623 134.593C72.5303 138.977 74.4141 143.087 77.2998 146.456C80.1854 149.824 83.9575 152.317 88.188 153.65L87.9937 154.251Z" fill="#1E2127"/>
<path d="M116.576 142.612L115.993 142.286C116.407 141.534 116.773 140.756 117.092 139.958L117.708 140.22C117.353 141.027 116.995 141.834 116.576 142.612Z" fill="#1E2127"/>
<path d="M121.706 125.677C124.135 125.677 126.104 123.708 126.104 121.279C126.104 118.85 124.135 116.881 121.706 116.881C119.277 116.881 117.308 118.85 117.308 121.279C117.308 123.708 119.277 125.677 121.706 125.677Z" fill="#1E2127"/>
<path d="M57.4125 127.706L57.0874 130.938L50.6528 189.604H49.0049L53.8626 127.724L57.4125 127.706Z" fill="#DDDEDF"/>
<path d="M208.268 127.706L208.641 130.938L215.076 189.604H216.694L211.874 127.724L208.268 127.706Z" fill="#DDDEDF"/>
<path d="M85.6548 92.521H106.061V110.132C106.061 110.324 105.985 110.509 105.849 110.645C105.713 110.781 105.528 110.857 105.336 110.857H86.3685C86.1762 110.857 85.9918 110.781 85.8559 110.645C85.7199 110.509 85.6436 110.324 85.6436 110.132V92.521H85.6548Z" fill="#312B6B"/>
<path d="M102.941 99.5349H88.7529V110.853H102.941V99.5349Z" fill="#1E1E4C"/>
<path d="M105.055 138.441H86.641C85.5513 138.441 84.668 139.325 84.668 140.414V145.078C84.668 146.167 85.5513 147.051 86.641 147.051H105.055C106.145 147.051 107.028 146.167 107.028 145.078V140.414C107.028 139.325 106.145 138.441 105.055 138.441Z" fill="#312B6B"/>
<path d="M86.7986 123.618C87.2876 126.765 87.153 129.977 86.4025 133.072L85.1507 138.258H106.67L105.419 133.068C104.671 129.973 104.537 126.761 105.023 123.614L106.693 112.849C106.741 112.458 106.662 112.063 106.465 111.721C106.269 111.38 105.967 111.112 105.605 110.958L99.2119 107.939C98.1775 107.459 97.0509 107.21 95.9105 107.21C94.7702 107.21 93.6436 107.459 92.6092 107.939L86.2194 110.958C85.8564 111.111 85.5533 111.379 85.3564 111.72C85.1594 112.061 85.0793 112.458 85.1283 112.849L86.7986 123.618Z" fill="#FEFBFE"/>
<g clip-path="url(#clip1_2177_64179)">
<path d="M85.1559 143.773C84.4723 144.328 84.1603 145.021 84.283 145.711L86.409 154.105C86.5717 155.05 89.5826 154.879 91.1394 154.834C92.6867 154.796 93.9136 151.131 93.959 150.185L94.7936 145.192C94.8066 144.948 94.737 144.705 94.5894 144.477C94.4417 144.25 94.219 144.043 93.9351 143.871L92.5528 143.027C92.135 142.772 91.6376 142.572 91.09 142.437C90.5424 142.302 89.9559 142.235 89.3653 142.241C88.7748 142.247 88.1922 142.326 87.6523 142.472C87.1124 142.618 86.6261 142.828 86.2225 143.091L85.1679 143.763L85.1559 143.773Z" fill="#312B6B"/>
</g>
<path d="M86.604 154.289L88.8759 188.013H92.2389L92.6126 154.408L92.0073 153.579C90.677 151.613 87.7399 152.219 86.5928 154.296L86.604 154.289Z" fill="#312B6B"/>
<g clip-path="url(#clip2_2177_64179)">
<path d="M89.0816 187.497L82.7292 189.506L92.0971 189.786L92.3774 188.02L89.0816 187.497Z" fill="#FF88A4"/>
</g>
<g clip-path="url(#clip3_2177_64179)">
<path d="M105.665 143.093C106.47 143.531 106.95 144.203 107.008 144.975L107.101 154.514C107.185 155.569 104.225 156.091 102.705 156.407C101.196 156.729 99.0681 153.069 98.7816 152.061L96.6928 146.88C96.6176 146.62 96.6225 146.342 96.7073 146.062C96.7921 145.783 96.9549 145.508 97.1856 145.255L98.3083 144.023C98.6478 143.651 99.0782 143.318 99.5741 143.045C100.07 142.771 100.621 142.562 101.195 142.43C101.768 142.298 102.353 142.246 102.913 142.276C103.474 142.307 103.999 142.42 104.457 142.608L105.651 143.085L105.665 143.093Z" fill="#312B6B"/>
</g>
<path d="M106.677 156.318L80.2848 158.358L79.7393 155.073L105.616 150.451L106.363 150.903C108.101 151.961 108.108 154.939 106.688 156.336L106.677 156.318Z" fill="#312B6B"/>
<g clip-path="url(#clip4_2177_64179)">
<path d="M80.5127 158.642L78.0839 164.901L78.4052 155.462L80.1989 155.294L80.5127 158.642Z" fill="#FF88A4"/>
</g>
<path d="M83.7861 146.169H91.2782V126.585C90.7884 125.763 90.5301 124.825 90.5309 123.868V114.661C90.5348 113.251 91.0967 111.9 92.0938 110.903C93.0908 109.906 94.4419 109.344 95.852 109.34C97.262 109.344 98.6131 109.906 99.6102 110.903C100.607 111.9 101.169 113.251 101.173 114.661V123.868C101.176 124.825 100.917 125.764 100.426 126.585V146.169H107.918L106.206 136.453C105.459 132.922 104.57 129.283 105.059 125.703L106.748 113.439C106.806 113.011 106.732 112.576 106.535 112.192C106.337 111.807 106.027 111.493 105.646 111.29L99.1926 107.86C98.1659 107.314 97.0206 107.028 95.8576 107.028C94.6945 107.028 93.5493 107.314 92.5226 107.86L86.0655 111.29C85.6848 111.493 85.3754 111.808 85.179 112.192C84.9826 112.576 84.9086 113.012 84.9669 113.439L86.6522 125.703C87.1454 129.283 86.2785 132.922 85.505 136.453L83.7861 146.169Z" fill="#3DA3A3" stroke="#3DA3A3" stroke-width="0.91" stroke-miterlimit="10"/>
<path d="M101.793 82.8093H89.9069C87.4655 82.8093 85.4863 84.7885 85.4863 87.2299V102.304C85.4863 104.745 87.4655 106.724 89.9069 106.724H101.793C104.235 106.724 106.214 104.745 106.214 102.304V87.2299C106.214 84.7885 104.235 82.8093 101.793 82.8093Z" fill="#312B6B"/>
<path d="M91.4318 96.1942C91.4671 96.6645 91.3599 97.1346 91.1241 97.543C90.8883 97.9515 90.5349 98.2794 90.1099 98.4841C89.685 98.6887 89.2082 98.7606 88.7419 98.6902C88.2755 98.6199 87.8411 98.4107 87.4954 98.0898C87.1497 97.769 86.9087 97.3514 86.8039 96.8915C86.699 96.4317 86.7351 95.9509 86.9076 95.5119C87.08 95.0729 87.3807 94.6961 87.7705 94.4305C88.1603 94.1649 88.621 94.023 89.0927 94.0231C89.3893 94.0101 89.6855 94.0562 89.9642 94.1586C90.2429 94.261 90.4984 94.4177 90.7161 94.6197C90.9337 94.8217 91.109 95.0649 91.2319 95.3351C91.3548 95.6054 91.4227 95.8974 91.4318 96.1942Z" fill="#FC8883"/>
<path d="M104.944 96.1942C104.979 96.6645 104.872 97.1346 104.636 97.543C104.4 97.9515 104.047 98.2794 103.622 98.4841C103.197 98.6887 102.72 98.7606 102.254 98.6902C101.787 98.6199 101.353 98.4107 101.007 98.0898C100.661 97.769 100.42 97.3514 100.316 96.8915C100.211 96.4317 100.247 95.9509 100.419 95.5119C100.592 95.0729 100.892 94.6961 101.282 94.4305C101.672 94.1649 102.133 94.023 102.604 94.0231C102.901 94.0101 103.197 94.0562 103.476 94.1586C103.755 94.261 104.01 94.4177 104.228 94.6197C104.445 94.8217 104.621 95.0649 104.744 95.3351C104.866 95.6054 104.934 95.8974 104.944 96.1942Z" fill="#FC8883"/>
<g clip-path="url(#clip5_2177_64179)">
<path d="M96.3865 102.285H95.3103C94.1546 102.285 93.2178 103.222 93.2178 104.378V110.835C93.2178 111.99 94.1546 112.927 95.3103 112.927H96.3865C97.5422 112.927 98.4791 111.99 98.4791 110.835V104.378C98.4791 103.222 97.5422 102.285 96.3865 102.285Z" fill="#FAC1B1"/>
<path d="M98.4791 104.378V109.292C97.0944 108.407 94.7986 106.958 93.2178 106.033V104.378C93.2197 103.823 93.4407 103.292 93.8328 102.9C94.2248 102.508 94.7559 102.287 95.3103 102.285H96.3865C96.9409 102.287 97.4721 102.508 97.8641 102.9C98.2561 103.292 98.4772 103.823 98.4791 104.378Z" fill="#FC8883"/>
</g>
<path d="M88.8535 92.1211V98.8846C88.8543 100.526 89.5061 102.099 90.6658 103.26L93.8757 106.47C94.4467 107.041 95.2208 107.361 96.028 107.361C96.8352 107.361 97.6093 107.041 98.1803 106.47L101.031 103.619C101.606 103.045 102.062 102.362 102.373 101.612C102.684 100.861 102.844 100.056 102.844 99.2433V93.0777L91.6747 87.3381L88.8535 92.1211Z" fill="#FAC1B1"/>
<g clip-path="url(#clip6_2177_64179)">
<path d="M108.265 112.123L121.106 127.405C121.399 127.754 121.565 128.191 121.575 128.646C121.586 129.101 121.442 129.546 121.166 129.908C120.994 130.133 120.777 130.32 120.528 130.455C120.28 130.59 120.005 130.671 119.723 130.692C119.441 130.713 119.157 130.674 118.891 130.578C118.625 130.482 118.383 130.33 118.179 130.133L103.878 116.242C103.338 115.718 103.014 115.011 102.969 114.26C102.924 113.509 103.162 112.769 103.636 112.184C103.914 111.841 104.264 111.563 104.662 111.37C105.059 111.178 105.494 111.075 105.936 111.069C106.378 111.063 106.815 111.155 107.218 111.337C107.62 111.519 107.978 111.788 108.265 112.123Z" fill="#319499"/>
</g>
<g clip-path="url(#clip7_2177_64179)">
<path d="M83.4425 114.32L81.5507 134.269C81.5075 134.724 81.6204 135.18 81.871 135.562C82.1216 135.944 82.4949 136.229 82.9292 136.37C83.1993 136.459 83.4849 136.489 83.7674 136.459C84.0499 136.428 84.3228 136.339 84.568 136.195C84.8133 136.052 85.0253 135.858 85.1902 135.627C85.3551 135.395 85.4691 135.132 85.5246 134.853L89.4157 115.22C89.5628 114.479 89.4275 113.71 89.0362 113.064C88.6449 112.418 88.026 111.942 87.3013 111.73C86.8757 111.605 86.4279 111.575 85.9896 111.643C85.5513 111.71 85.1332 111.873 84.765 112.121C84.3967 112.368 84.0874 112.693 83.8588 113.073C83.6303 113.453 83.4882 113.879 83.4425 114.32Z" fill="#319499"/>
</g>
<g clip-path="url(#clip8_2177_64179)">
<path d="M99.2011 126.789C99.4237 126.643 99.5797 126.415 99.6353 126.155C99.6908 125.895 99.6414 125.623 99.4978 125.399C99.4396 125.308 99.3667 125.227 99.2822 125.159C99.1335 125.04 98.9542 124.966 98.7651 124.945C98.576 124.924 98.3847 124.957 98.2135 125.04L90.7057 128.679L92.2975 131.286L99.2011 126.789Z" fill="#FAC1B1"/>
<path d="M81.9716 135.618C82.0813 135.771 82.2117 135.908 82.3591 136.026C82.7024 136.299 83.1231 136.457 83.5615 136.478C83.9998 136.499 84.4335 136.381 84.801 136.141L92.2886 131.278L90.6968 128.672L82.7507 132.518C82.4764 132.651 82.2345 132.842 82.0422 133.079C81.8498 133.315 81.7116 133.591 81.6373 133.886C81.5631 134.182 81.5545 134.49 81.6122 134.789C81.67 135.088 81.7926 135.371 81.9716 135.618Z" fill="#319499"/>
</g>
<g clip-path="url(#clip9_2177_64179)">
<path d="M104.771 124.484L106.706 125.271C106.947 125.369 107.215 125.381 107.464 125.305C107.713 125.229 107.928 125.07 108.074 124.855L104.862 123.618L104.771 124.484Z" fill="#FC8883"/>
<path d="M105.68 127.203L101.297 127.332V127.273L101.057 127.34L98.9385 126.29L98.7903 125.063C98.7747 124.939 98.8034 124.814 98.8712 124.709C98.9391 124.605 99.0417 124.528 99.1609 124.491L103.841 123.056L108.67 123.874L108.634 123.948C108.539 124.152 108.39 124.327 108.204 124.453C108.018 124.58 107.801 124.653 107.577 124.666L105.496 124.773L102.846 126.266L105.204 126.486C105.286 126.494 105.366 126.52 105.436 126.562C105.507 126.605 105.567 126.663 105.613 126.731C105.658 126.8 105.688 126.878 105.7 126.96C105.711 127.041 105.705 127.125 105.68 127.203Z" fill="#FAC1B1" stroke="#FAC1B1" stroke-width="0.64" stroke-miterlimit="10"/>
</g>
<path d="M93.5771 101.717H98.3601C98.3601 101.717 98.2181 103.47 95.9686 103.47C93.7191 103.47 93.5771 101.717 93.5771 101.717Z" fill="white"/>
<path d="M214.762 127.706H50.3613V130.938H214.762V127.706Z" fill="#B5B9C6"/>
<path d="M114.054 125.767H98.5352V127.706H114.054V125.767Z" fill="#1E2127"/>
<path d="M144.896 105.558L144.089 122.822L143.861 127.706H112.824L113.859 105.558H144.896Z" fill="#B5B9C6"/>
<path d="M131.123 116.619C131.089 117.224 130.826 117.794 130.389 118.214C129.951 118.633 129.371 118.871 128.765 118.88C128.483 118.883 128.203 118.83 127.941 118.725C127.679 118.62 127.44 118.464 127.239 118.266C127.037 118.069 126.877 117.834 126.766 117.574C126.655 117.315 126.597 117.036 126.594 116.754C126.594 116.709 126.594 116.664 126.594 116.619C126.628 116.013 126.89 115.443 127.327 115.023C127.765 114.603 128.345 114.364 128.952 114.355C129.234 114.352 129.514 114.404 129.776 114.51C130.038 114.615 130.277 114.772 130.479 114.969C130.68 115.167 130.841 115.403 130.952 115.663C131.062 115.923 131.12 116.202 131.123 116.485C131.126 116.529 131.126 116.585 131.123 116.619Z" fill="white"/>
<path d="M144.089 122.826L143.861 127.706H112.824L144.089 122.826Z" fill="#DDDEDF"/>
<path d="M247.32 189.586H0.831055V190.232H247.32V189.586Z" fill="#B5B9C6"/>
<path d="M166.819 194.436H97.9219V195.082H166.819V194.436Z" fill="#B5B9C6"/>
<path d="M193.07 199.35H149.877V199.996H193.07V199.35Z" fill="#B5B9C6"/>
<path d="M131.739 199.35H74.7393V199.996H131.739V199.35Z" fill="#B5B9C6"/>
<path d="M206.874 194.503H186.247V195.15H206.874V194.503Z" fill="#B5B9C6"/>
<path d="M87.0598 194.436H45.2871V195.082H87.0598V194.436Z" fill="#B5B9C6"/>
<path d="M113.52 105.521L112.491 127.674L113.137 127.704L114.166 105.551L113.52 105.521Z" fill="white"/>
<path d="M93.6511 130.617H50.3613V131.263H93.6511V130.617Z" fill="#1E2127"/>
<path d="M186.378 130.617H114.637V131.263H186.378V130.617Z" fill="#1E2127"/>
<path d="M214.765 130.617H196.175V131.263H214.765V130.617Z" fill="#1E2127"/>
<path d="M175.739 130.617H172.765V131.263H175.739V130.617Z" fill="#1E2127"/>
<path d="M187.345 189.586H169.08V190.232H187.345V189.586Z" fill="#1E2127"/>
<path d="M79.8177 189.586H39.9844V190.232H79.8177V189.586Z" fill="#B5B9C6"/>
<path d="M17.4516 189.586H2.5459V190.232H17.4516V189.586Z" fill="#B5B9C6"/>
<path d="M164.686 189.586H159.544V190.232H164.686V189.586Z" fill="#1E2127"/>
<path d="M199.179 107.502L198.469 122.859L198.372 124.765L198.245 127.706L198.148 129.645H167.114L167.211 127.706L168.149 107.498L199.179 107.502Z" fill="#141419"/>
<path d="M198.241 127.706L198.129 129.664H152.852V127.724L198.241 127.706Z" fill="#DDD6FF"/>
<path d="M198.469 122.856L198.372 124.761L198.241 127.706H167.488L168.557 127.512L198.469 122.856Z" fill="#1E2127"/>
<path d="M165.522 150.791L184.535 150.855L184.826 143.381L165.881 141.961L165.522 150.791Z" fill="#00C3FF"/>
<path d="M182.529 120.916L157.571 125.8L157.945 129.649H183.37L182.529 120.916Z" fill="#FF95A9"/>
<path d="M157.926 129.664L157.553 125.815L159.234 125.494V129.664H157.926Z" fill="#FF95A9"/>
<path d="M164.585 99.7704H153.854V88.0334C153.854 86.3189 154.535 84.6746 155.747 83.4623C156.959 82.2499 158.604 81.5688 160.318 81.5688C163.778 81.5688 166.913 84.2854 167.074 87.712L167.489 96.7025C167.53 97.4743 167.262 98.2308 166.746 98.8059C166.23 99.3811 165.507 99.7279 164.735 99.7704H164.585Z" fill="#FF95A9"/>
<path d="M167.53 96.6688C167.55 97.052 167.493 97.4354 167.365 97.797C167.236 98.1586 167.038 98.4913 166.781 98.7762C166.524 99.061 166.213 99.2925 165.866 99.4573C165.52 99.6221 165.144 99.717 164.761 99.7366H153.854V88.0033C153.853 87.1543 154.02 86.3134 154.345 85.5289C154.669 84.7444 155.145 84.0315 155.746 83.4311C156.346 82.8308 157.059 82.3546 157.844 82.0299C158.628 81.7052 159.469 81.5383 160.318 81.5388C162.066 81.5424 163.755 82.1781 165.071 83.3287C166.272 84.4742 166.989 86.0359 167.074 87.6932L167.53 96.6688Z" fill="#FF95A9"/>
<path d="M168.856 82.3797V85.8697C168.854 86.1317 168.821 86.3925 168.759 86.647H162.193V78.8447H165.332C166.268 78.8467 167.165 79.2201 167.826 79.883C168.486 80.5458 168.857 81.4438 168.856 82.3797Z" fill="#1E2127"/>
<path d="M156.503 80.4402H157.377V91.4971H150.621V86.318C150.622 84.7588 151.242 83.2637 152.345 82.1615C153.448 81.0593 154.943 80.4402 156.503 80.4402Z" fill="#1E2127"/>
<path d="M168.015 85.9033H161.031C159.721 85.8984 158.465 85.3756 157.538 84.4488C156.612 83.5221 156.089 82.2665 156.084 80.9559C156.108 80.3463 156.367 79.7698 156.807 79.347C157.247 78.9243 157.834 78.6882 158.444 78.6882C159.054 78.6882 159.64 78.9243 160.08 79.347C160.52 79.7698 160.779 80.3463 160.803 80.9559C160.803 80.9893 160.809 81.0224 160.821 81.0534C160.834 81.0845 160.852 81.1127 160.875 81.1367C160.898 81.1606 160.926 81.1798 160.957 81.193C160.987 81.2062 161.02 81.2133 161.054 81.2137H168.045V85.9033H168.015Z" fill="#1E2127"/>
<path d="M165.523 83.5753H161.902C161.293 83.5511 160.716 83.2919 160.294 82.852C159.871 82.4121 159.635 81.8257 159.635 81.2156C159.635 80.6055 159.871 80.0191 160.294 79.5792C160.716 79.1394 161.293 78.8801 161.902 78.8559H165.523C165.841 78.8432 166.158 78.8949 166.455 79.0078C166.753 79.1207 167.024 79.2925 167.254 79.5128C167.483 79.7332 167.665 79.9976 167.79 80.2902C167.915 80.5828 167.979 80.8976 167.979 81.2156C167.979 81.5336 167.915 81.8484 167.79 82.141C167.665 82.4336 167.483 82.698 167.254 82.9184C167.024 83.1388 166.753 83.3105 166.455 83.4234C166.158 83.5363 165.841 83.588 165.523 83.5753Z" fill="#1E2127"/>
<path d="M170.762 84.9019C170.764 85.3674 170.673 85.8286 170.496 86.2592C170.32 86.6898 170.06 87.0813 169.731 87.4113C169.403 87.7413 169.013 88.0034 168.583 88.1826C168.154 88.3618 167.693 88.4545 167.227 88.4555H167.205C165.232 88.4555 163.39 86.8711 163.39 84.9019C163.39 82.9326 165.232 81.3445 167.205 81.3445C167.671 81.343 168.132 81.4333 168.563 81.6101C168.994 81.787 169.385 82.047 169.716 82.3752C170.046 82.7035 170.308 83.0936 170.488 83.5232C170.668 83.9529 170.761 84.4137 170.762 84.8794V84.9019Z" fill="#1E2127"/>
<path d="M165.591 84.061H155.793V87.7454H165.591V84.061Z" fill="#1E2127"/>
<path d="M163.651 87.6819H156.084V92.3715H163.651V87.6819Z" fill="#1E2127"/>
<path d="M158.895 96.7808H154.661C154.134 96.7808 153.613 96.6771 153.126 96.4756C152.64 96.2741 152.198 95.9788 151.826 95.6065C151.453 95.2342 151.158 94.7922 150.957 94.3057C150.755 93.8193 150.651 93.2979 150.651 92.7714V90.6377H161.903V93.7915C161.897 94.5857 161.577 95.3455 161.014 95.9053C160.451 96.4652 159.689 96.7799 158.895 96.7808Z" fill="#1E2127"/>
<path d="M157.893 109.052C157.362 109.052 156.835 108.948 156.345 108.744C155.854 108.54 155.408 108.242 155.033 107.865C154.657 107.489 154.36 107.042 154.158 106.551C153.955 106.06 153.852 105.533 153.854 105.002V96.781H161.936V105.002C161.938 105.533 161.834 106.06 161.631 106.552C161.429 107.044 161.131 107.49 160.756 107.867C160.38 108.243 159.934 108.541 159.442 108.745C158.951 108.948 158.425 109.053 157.893 109.052Z" fill="#FF95A9"/>
<path d="M163.651 94.1651H165.429V90.6414H163.651C163.418 90.6404 163.187 90.6854 162.972 90.7737C162.756 90.862 162.56 90.992 162.395 91.1562C162.23 91.3203 162.098 91.5155 162.009 91.7304C161.919 91.9454 161.873 92.1759 161.872 92.4088C161.88 92.8761 162.07 93.3216 162.403 93.6499C162.736 93.9783 163.183 94.1632 163.651 94.1651Z" fill="#FF95A9"/>
<path d="M166.267 86.3892H161.884V90.5892H163.92C164.545 90.5863 165.143 90.3369 165.584 89.8954C166.026 89.4538 166.275 88.8558 166.278 88.2314L166.267 86.3892Z" fill="#1E2127"/>
<path d="M157.893 109.048C160.124 109.048 161.932 107.24 161.932 105.009C161.932 102.778 160.124 100.97 157.893 100.97C155.662 100.97 153.854 102.778 153.854 105.009C153.854 107.24 155.662 109.048 157.893 109.048Z" fill="#FF95A9"/>
<path d="M180.298 191.01C181.798 191.01 183.014 189.793 183.014 188.293C183.014 186.793 181.798 185.576 180.298 185.576C178.797 185.576 177.581 186.793 177.581 188.293C177.581 189.793 178.797 191.01 180.298 191.01Z" fill="#2FC2A7"/>
<path d="M184.535 150.859C186.607 150.859 188.287 149.179 188.287 147.107C188.287 145.035 186.607 143.355 184.535 143.355C182.463 143.355 180.783 145.035 180.783 147.107C180.783 149.179 182.463 150.859 184.535 150.859Z" fill="#00C3FF"/>
<path d="M177.577 188.069L180.809 146.913L188.245 147.492L183.014 188.487L177.577 188.069Z" fill="#00C3FF"/>
<path d="M185.765 191.529H177.544V188.293H183.007L186.142 190.008C186.27 190.077 186.377 190.18 186.451 190.305C186.525 190.43 186.564 190.573 186.564 190.718C186.566 190.931 186.484 191.135 186.336 191.287C186.187 191.439 185.985 191.526 185.772 191.529H185.765Z" fill="#1E2127"/>
<path d="M164.39 191.01C165.891 191.01 167.107 189.793 167.107 188.293C167.107 186.793 165.891 185.576 164.39 185.576C162.89 185.576 161.674 186.793 161.674 188.293C161.674 189.793 162.89 191.01 164.39 191.01Z" fill="#AB9AF7"/>
<path d="M168.628 150.859C170.7 150.859 172.379 149.179 172.379 147.107C172.379 145.035 170.7 143.355 168.628 143.355C166.556 143.355 164.876 145.035 164.876 147.107C164.876 149.179 166.556 150.859 168.628 150.859Z" fill="#AB9AF7"/>
<path d="M161.678 188.069L164.91 146.913L172.346 147.492L167.115 188.487L161.678 188.069Z" fill="#00C3FF"/>
<path d="M169.857 191.529H161.637V188.293H167.115L170.254 190.008C170.38 190.078 170.486 190.181 170.56 190.306C170.633 190.431 170.672 190.573 170.672 190.718C170.669 190.933 170.582 191.138 170.43 191.29C170.278 191.441 170.072 191.527 169.857 191.529Z" fill="#1E2127"/>
<path d="M160.74 142.578L174.966 191.529H176.584L164.974 142.578H160.74Z" fill="#DDDEDF"/>
<path d="M145.901 142.578L131.702 191.529H130.054L141.66 142.578H145.901Z" fill="#DDDEDF"/>
<path d="M146.612 141.965C146.6 143.475 146.896 144.971 147.482 146.363H169.357C170.009 144.75 170.296 143.012 170.197 141.274C170.099 139.536 169.616 137.842 168.785 136.313C167.954 134.784 166.795 133.457 165.391 132.429C163.987 131.401 162.373 130.696 160.664 130.365C158.955 130.035 157.195 130.086 155.508 130.517C153.822 130.947 152.252 131.745 150.91 132.854C149.569 133.963 148.489 135.355 147.749 136.93C147.009 138.505 146.627 140.225 146.63 141.965H146.612Z" fill="#AB9AF7"/>
<path d="M158.379 145.197C160.164 145.197 161.611 143.75 161.611 141.965C161.611 140.18 160.164 138.733 158.379 138.733C156.594 138.733 155.146 140.18 155.146 141.965C155.146 143.75 156.594 145.197 158.379 145.197Z" fill="#40327A"/>
<path d="M133.391 129.619C135.82 129.619 137.789 127.65 137.789 125.221C137.789 122.792 135.82 120.823 133.391 120.823C130.962 120.823 128.993 122.792 128.993 125.221C128.993 127.65 130.962 129.619 133.391 129.619Z" fill="#FF95A9"/>
<path d="M153.289 116.776L135.876 128.838L130.219 122.146L144.994 106.948L153.289 116.776Z" fill="#FF95A9"/>
<path d="M149.661 117.942C153.231 117.942 156.125 115.047 156.125 111.477C156.125 107.907 153.231 105.013 149.661 105.013C146.091 105.013 143.196 107.907 143.196 111.477C143.196 115.047 146.091 117.942 149.661 117.942Z" fill="#1E2127"/>
<path d="M153.625 131.786C155.053 131.786 156.211 130.629 156.211 129.201C156.211 127.772 155.053 126.615 153.625 126.615C152.197 126.615 151.039 127.772 151.039 129.201C151.039 130.629 152.197 131.786 153.625 131.786Z" fill="#FF95A9"/>
<path d="M157.93 129.653C159.001 129.653 159.869 128.784 159.869 127.713C159.869 126.642 159.001 125.774 157.93 125.774C156.859 125.774 155.99 126.642 155.99 127.713C155.99 128.784 156.859 129.653 157.93 129.653Z" fill="#FF95A9"/>
<path d="M154.825 131.487L158.83 129.421L157.571 125.8L153.109 126.674L154.825 131.487Z" fill="#FF95A9"/>
<path d="M183.369 129.623C185.796 129.623 187.763 127.655 187.763 125.228C187.763 122.801 185.796 120.834 183.369 120.834C180.942 120.834 178.975 122.801 178.975 125.228C178.975 127.655 180.942 129.623 183.369 129.623Z" fill="#FF95A9"/>
<path d="M163.456 116.776L180.88 128.868L186.545 122.19L171.804 106.963L163.456 116.776Z" fill="#FF95A9"/>
<path d="M163.456 116.776L177.906 126.802L184.049 119.575L171.796 106.934L163.456 116.776Z" fill="#1E2127"/>
<path d="M153.289 116.776L138.836 126.802L132.737 119.575L144.99 106.963L153.289 116.776Z" fill="#1E2127"/>
<path d="M167.148 117.934C170.72 117.934 173.616 115.038 173.616 111.466C173.616 107.894 170.72 104.998 167.148 104.998C163.576 104.998 160.68 107.894 160.68 111.466C160.68 115.038 163.576 117.934 167.148 117.934Z" fill="#1E2127"/>
<path d="M165.556 150.758C167.985 150.758 169.954 148.789 169.954 146.36C169.954 143.931 167.985 141.961 165.556 141.961C163.127 141.961 161.158 143.931 161.158 146.36C161.158 148.789 163.127 150.758 165.556 150.758Z" fill="#AB9AF7"/>
<path d="M151.234 150.791C153.663 150.791 155.632 148.822 155.632 146.393C155.632 143.964 153.663 141.995 151.234 141.995C148.805 141.995 146.836 143.964 146.836 146.393C146.836 148.822 148.805 150.791 151.234 150.791Z" fill="#AB9AF7"/>
<path d="M145.027 109.732L146.612 141.965H170.183L171.767 109.729C171.819 108.531 171.395 107.362 170.588 106.477C169.78 105.591 168.656 105.061 167.459 105.002H149.552C148.955 105.004 148.364 105.124 147.813 105.355C147.262 105.586 146.761 105.924 146.341 106.348C145.92 106.773 145.587 107.276 145.361 107.829C145.135 108.382 145.021 108.974 145.023 109.572C145.023 109.609 145.023 109.669 145.027 109.732Z" fill="#1E2127"/>
<path d="M146.611 141.965L146.836 146.359V146.587C146.894 147.717 147.382 148.782 148.199 149.563C149.017 150.345 150.103 150.784 151.234 150.791H165.523C166.657 150.795 167.749 150.359 168.569 149.576C169.389 148.792 169.874 147.721 169.921 146.587V146.359L170.149 141.965H146.611Z" fill="#AB9AF7"/>
<path d="M153.333 159.52C166.547 159.52 177.26 148.808 177.26 135.594C177.26 122.38 166.547 111.668 153.333 111.668C140.119 111.668 129.407 122.38 129.407 135.594C129.407 148.808 140.119 159.52 153.333 159.52Z" fill="#9095A0"/>
<path d="M174.704 147.073L174.124 146.782C176.32 142.671 177.252 138.003 176.801 133.364C176.35 128.726 174.538 124.324 171.592 120.713C168.646 117.102 164.698 114.443 160.244 113.07C155.79 111.697 151.03 111.672 146.562 112.998L146.368 112.382C148.613 111.71 150.945 111.372 153.289 111.38C157.477 111.388 161.592 112.478 165.234 114.546C168.876 116.613 171.922 119.587 174.075 123.179C176.229 126.771 177.417 130.859 177.525 135.046C177.632 139.232 176.655 143.376 174.689 147.073H174.704Z" fill="#1E2127"/>
<path d="M157.216 120.528H149.455C149.245 120.53 149.036 120.491 148.841 120.413C148.646 120.334 148.469 120.218 148.319 120.071C148.169 119.924 148.049 119.748 147.967 119.555C147.885 119.361 147.842 119.154 147.841 118.943V118.913C147.838 118.703 147.878 118.494 147.956 118.299C148.034 118.104 148.15 117.926 148.297 117.776C148.445 117.625 148.62 117.506 148.814 117.423C149.007 117.341 149.215 117.297 149.425 117.295H157.216C157.64 117.292 158.048 117.457 158.351 117.754C158.653 118.051 158.826 118.456 158.831 118.88V118.913C158.824 119.339 158.652 119.746 158.35 120.047C158.049 120.349 157.642 120.521 157.216 120.528Z" fill="#1E2127"/>
<path d="M208.102 180.535H203.577V183.446H208.102V180.535Z" fill="white"/>
<path d="M188.836 110.667H179.685V111.313H188.836V110.667Z" fill="#FF3356"/>
<path d="M192.038 112.673H181.949V113.32H192.038V112.673Z" fill="#FF3356"/>
<path d="M193.911 114.676H184.827V115.322H193.911V114.676Z" fill="#FF3356"/>
<path d="M188.833 116.649H186.247V117.295H188.833V116.649Z" fill="#FF3356"/>
<path d="M193.877 116.649H190.387V117.295H193.877V116.649Z" fill="#FF3356"/>
<path d="M193.911 110.667H190.679V111.313H193.911V110.667Z" fill="#FF3356"/>
</g>
<defs>
<clipPath id="clip0_2177_64179">
<rect width="250.337" height="200" fill="white" transform="translate(0.831055)"/>
</clipPath>
<clipPath id="clip1_2177_64179">
<rect width="10.5393" height="12.6349" fill="white" transform="translate(84.2568 142.242)"/>
</clipPath>
<clipPath id="clip2_2177_64179">
<rect width="9.29604" height="2.9795" fill="white" transform="translate(83.1963 186.563) rotate(9.01932)"/>
</clipPath>
<clipPath id="clip3_2177_64179">
<rect width="10.5045" height="13.9872" fill="white" transform="matrix(-0.971959 0.235151 0.231621 0.972806 106.144 141.233)"/>
</clipPath>
<clipPath id="clip4_2177_64179">
<rect width="9.36773" height="3.00248" fill="white" transform="matrix(-0.0933407 -0.995634 -0.995634 0.0933407 81.0732 164.621)"/>
</clipPath>
<clipPath id="clip5_2177_64179">
<rect width="5.26129" height="10.6422" fill="white" transform="translate(93.2178 102.285)"/>
</clipPath>
<clipPath id="clip6_2177_64179">
<rect width="11.8332" height="23.7789" fill="white" transform="matrix(-0.920752 0.390149 0.390149 0.920752 112.922 107.864)"/>
</clipPath>
<clipPath id="clip7_2177_64179">
<rect width="11.8792" height="23.8714" fill="white" transform="translate(77.165 113.458) rotate(-11.6593)"/>
</clipPath>
<clipPath id="clip8_2177_64179">
<rect width="9.51801" height="19.0576" fill="white" transform="translate(88.1621 140.668) rotate(-141.34)"/>
</clipPath>
<clipPath id="clip9_2177_64179">
<rect width="4.52471" height="10.1806" fill="white" transform="matrix(0 1 1 0 98.666 122.942)"/>
</clipPath>
</defs>
</svg>