<svg width="209" height="257" viewBox="0 0 209 257" fill="none" xmlns="http://www.w3.org/2000/svg">
<g clip-path="url(#clip0_2372_65185)">
<path d="M129.53 254.49L129.66 254.5L129.73 253.95L129.6 253.93L129.53 254.49Z" fill="black"/>
<path d="M129.23 254.39L129.49 254.48L129.64 253.94L129.45 253.87L129.23 254.39Z" fill="black"/>
<path d="M129.23 254.39L129.38 254.45L129.66 254.5L129.73 253.95L129.45 253.87L129.23 254.39Z" fill="black"/>
<path d="M110.029 243.837L109.771 244.334L129.211 254.376L129.468 253.879L110.029 243.837Z" fill="black"/>
<path d="M109.956 243.776L109.598 244.207L109.659 244.258L110.017 243.827L109.956 243.776Z" fill="black"/>
<path d="M109.92 243.699L109.48 244.046L109.524 244.101L109.963 243.754L109.92 243.699Z" fill="black"/>
<path d="M129.713 253.972L129.684 254.531L164.086 256.334L164.116 255.775L129.713 253.972Z" fill="black"/>
<path d="M129.516 253.936L129.491 254.495L129.651 254.503L129.676 253.943L129.516 253.936Z" fill="black"/>
<path d="M164.09 230.89H159.77V231.45H164.09V230.89Z" fill="black"/>
<path d="M163.75 230.72H128.99V231.28H163.75V230.72Z" fill="black"/>
<path d="M125.275 230.502L125.246 231.062L127.663 231.189L127.692 230.629L125.275 230.502Z" fill="black"/>
<path d="M109.889 243.673L109.373 243.89L109.427 244.019L109.944 243.802L109.889 243.673Z" fill="black"/>
<path d="M182.736 220.734L164.102 221.203L164.116 221.763L182.75 221.294L182.736 220.734Z" fill="black"/>
<path d="M185.342 203.468L185.265 204.023L188.345 204.455L188.422 203.9L185.342 203.468Z" fill="black"/>
<path d="M190.41 203.43L191.44 203.58L191.51 203.02L190.48 202.88L190.41 203.43Z" fill="black"/>
<path d="M188.546 201.927L188.467 202.482L188.813 202.531L188.893 201.977L188.546 201.927Z" fill="black"/>
<path d="M188.56 202.3L188.9 202.35L188.98 201.8L188.64 201.75L188.56 202.3Z" fill="black"/>
<path d="M190.53 202.58L191.04 202.65L191.12 202.1L190.61 202.02L190.53 202.58Z" fill="black"/>
<path d="M188.775 200.818L188.697 201.373L191.183 201.721L191.261 201.166L188.775 200.818Z" fill="black"/>
<path d="M188.715 200.635L188.637 201.189L191.716 201.622L191.794 201.068L188.715 200.635Z" fill="black"/>
<path d="M109.889 243.606L109.334 243.68L109.352 243.818L109.908 243.745L109.889 243.606Z" fill="black"/>
<path d="M109.9 12.17H109.34V243.63H109.9V12.17Z" fill="black"/>
<path d="M188.848 183.473L188.771 184.028L194.079 184.772L194.156 184.217L188.848 183.473Z" fill="black"/>
<path d="M120.62 32.7H120.06V225.6H120.62V32.7Z" fill="black"/>
<path d="M124.08 32.48H123.52V225.82H124.08V32.48Z" fill="black"/>
<path d="M159.873 231.111L159.322 231.212L159.353 231.379L159.904 231.278L159.873 231.111Z" fill="black"/>
<path d="M129.79 254.24V254.21L129.23 254.19L129.79 254.24Z" fill="black"/>
<path d="M159.346 26.9123L159.315 27.0795L159.866 27.1805L159.897 27.0133L159.346 26.9123Z" fill="black"/>
<path d="M192.24 154.45L192.75 154.52L192.83 153.96L192.32 153.89L192.24 154.45Z" fill="black"/>
<path d="M192.652 151.498L192.574 152.053L193.089 152.125L193.167 151.57L192.652 151.498Z" fill="black"/>
<path d="M160.05 230.99H159.49V231.16H160.05V230.99Z" fill="black"/>
<path d="M160.05 27.13H159.49V27.3H160.05V27.13Z" fill="black"/>
<path d="M163.51 27.13H162.95V27.3H163.51V27.13Z" fill="black"/>
<path d="M163.51 230.99H162.95V231.16H163.51V230.99Z" fill="black"/>
<path d="M164.37 2.27002H163.81V256.02H164.37V2.27002Z" fill="black"/>
<path d="M163.83 36.89L163.88 37.05L163.81 38.4L164.37 38.45L164.44 37.55V36.95L164.35 36.71L163.83 36.89Z" fill="black"/>
<path d="M196.74 122.48L197.25 122.55L197.33 122L196.82 121.93L196.74 122.48Z" fill="black"/>
<path d="M196.838 121.885L196.761 122.44L197.276 122.512L197.353 121.958L196.838 121.885Z" fill="black"/>
<path d="M196.76 122.32L197.28 122.39L197.35 121.84L196.84 121.76L196.76 122.32Z" fill="black"/>
<path d="M196.879 121.55L196.801 122.105L197.316 122.177L197.393 121.622L196.879 121.55Z" fill="black"/>
<path d="M196.83 121.88L197.34 121.95L197.42 121.4L196.9 121.33L196.83 121.88Z" fill="black"/>
<path d="M196.86 121.61L197.38 121.68L197.45 121.13L196.94 121.05L196.86 121.61Z" fill="black"/>
<path d="M196.91 121.29L197.42 121.36L197.5 120.8L196.99 120.73L196.91 121.29Z" fill="black"/>
<path d="M197.27 118.72L197.78 118.79L197.86 118.24L197.35 118.17L197.27 118.72Z" fill="black"/>
<path d="M207.618 44.2254L182.457 220.792L183.011 220.871L208.172 44.3044L207.618 44.2254Z" fill="black"/>
<path d="M197.57 122.32L197.02 122.24L197.55 118.48L198.1 118.55L197.57 122.32Z" fill="black"/>
<path d="M192.841 151.8L192.504 154.196L193.058 154.274L193.396 151.878L192.841 151.8Z" fill="black"/>
<path d="M205.63 69.72L205.08 69.64L206.61 58.77L207.16 58.85L205.63 69.72Z" fill="black"/>
<path d="M206.15 68.96L205.59 68.88L206.89 59.65L207.45 59.73L206.15 68.96Z" fill="black"/>
<path d="M207.26 69.1201L206.71 69.0401L208.01 59.8101L208.56 59.8801L207.26 69.1201Z" fill="black"/>
<path d="M188.181 200.992L188.049 201.933L188.603 202.011L188.736 201.07L188.181 200.992Z" fill="black"/>
<path d="M188.263 201.206L188.179 201.8L188.733 201.879L188.818 201.285L188.263 201.206Z" fill="black"/>
<path d="M207.54 68.91L206.98 68.83L208.21 60.08L208.77 60.16L207.54 68.91Z" fill="black"/>
<path d="M188.703 202.403L188.495 203.858L189.05 203.937L189.257 202.482L188.703 202.403Z" fill="black"/>
<path d="M188.809 202.238L188.58 203.862L189.135 203.94L189.364 202.316L188.809 202.238Z" fill="black"/>
<path d="M190.107 202.421L190.033 202.936L190.588 203.015L190.661 202.5L190.107 202.421Z" fill="black"/>
<path d="M191.098 201.601L191.014 202.195L191.568 202.274L191.653 201.68L191.098 201.601Z" fill="black"/>
<path d="M194.583 185.422L192.148 202.51L192.703 202.589L195.138 185.501L194.583 185.422Z" fill="black"/>
<path d="M205.631 68.7638L205.115 69.5258L205.579 69.8396L206.095 69.0777L205.631 68.7638Z" fill="black"/>
<path d="M207.085 68.6377L206.813 68.8417L207.149 69.2897L207.421 69.0857L207.085 68.6377Z" fill="black"/>
<path d="M159.39 27.1201L159.59 27.35L159.93 26.91L159.85 26.8L159.39 27.1201Z" fill="black"/>
<path d="M206.62 58.9L206.9 59.78L207.44 59.6L207.15 58.72L206.62 58.9Z" fill="black"/>
<path d="M204.243 69.2397L204.165 69.7942L205.324 69.9576L205.402 69.4031L204.243 69.2397Z" fill="black"/>
<path d="M205.924 68.6417L205.846 69.1962L206.955 69.3528L207.033 68.7983L205.924 68.6417Z" fill="black"/>
<path d="M207.224 59.4171L207.146 59.9717L208.256 60.1274L208.333 59.5728L207.224 59.4171Z" fill="black"/>
<path d="M205.774 58.3763L205.695 58.9308L206.854 59.0942L206.932 58.5397L205.774 58.3763Z" fill="black"/>
<path d="M208.502 59.6547L208.055 59.9921L208.259 60.2635L208.706 59.9261L208.502 59.6547Z" fill="black"/>
<path d="M159.39 231.18L159.85 231.5L159.91 231.41L159.45 231.09L159.39 231.18Z" fill="black"/>
<path d="M164.124 36.5242L164.032 37.0765L207.55 44.3432L207.642 43.7909L164.124 36.5242Z" fill="black"/>
<path d="M125.24 27.25L125.27 27.81L127.69 27.68L127.66 27.12L125.24 27.25Z" fill="black"/>
<path d="M163.75 27.03H128.99V27.59H163.75V27.03Z" fill="black"/>
<path d="M164.09 26.85H159.77V27.41H164.09V26.85Z" fill="black"/>
<path d="M159.49 231.05L159.88 231.45L159.95 231.38L159.77 231.17L159.55 230.99L159.49 231.05Z" fill="black"/>
<path d="M164.068 1.96908L116.646 4.51245L116.676 5.07165L164.098 2.52827L164.068 1.96908Z" fill="black"/>
<path d="M127.16 253.32L116.72 247.92L116.98 247.43L127.42 252.82L127.16 253.32Z" fill="black"/>
<path d="M161.45 255.877L161.409 256.164L161.964 256.243L162.005 255.956L161.45 255.877Z" fill="#FC9E26"/>
<path d="M79.29 251.95L79.36 252.51L79.49 252.49L79.42 251.93L79.29 251.95Z" fill="black"/>
<path d="M79.3799 251.94L79.5299 252.48L79.7899 252.39L79.5599 251.88L79.3799 251.94Z" fill="black"/>
<path d="M79.29 251.95L79.36 252.51L79.64 252.45L79.79 252.39L79.57 251.87L79.29 251.95Z" fill="black"/>
<path d="M98.9902 241.841L79.5508 251.883L79.8078 252.38L99.2472 242.338L98.9902 241.841Z" fill="black"/>
<path d="M99.0098 241.83L99.3598 242.26L99.4198 242.21L99.0598 241.78L99.0098 241.83Z" fill="black"/>
<path d="M99.1118 241.698L99.0684 241.752L99.5077 242.1L99.5511 242.045L99.1118 241.698Z" fill="black"/>
<path d="M44.9402 254.31L79.3402 252.51L79.3102 251.95L44.9102 253.75L44.9402 254.31Z" fill="black"/>
<path d="M79.3398 251.95L79.3699 252.51L79.5298 252.5L79.4998 251.94L79.3398 251.95Z" fill="black"/>
<path d="M49.2497 228.89H44.9297V229.45H49.2497V228.89Z" fill="black"/>
<path d="M80.0295 228.72H45.2695V229.28H80.0295V228.72Z" fill="black"/>
<path d="M83.7312 228.503L81.3145 228.628L81.3434 229.187L83.7601 229.062L83.7312 228.503Z" fill="black"/>
<path d="M99.0703 241.78L99.5803 242L99.6403 241.87L99.1203 241.66L99.0703 241.78Z" fill="black"/>
<path d="M44.92 219.78L44.93 219.22L26.3 218.74L26.29 219.3L44.92 219.78Z" fill="black"/>
<path d="M23.6869 201.469L20.6064 201.896L20.6834 202.451L23.7639 202.023L23.6869 201.469Z" fill="black"/>
<path d="M18.5458 200.884L17.5156 201.026L17.5926 201.581L18.6227 201.438L18.5458 200.884Z" fill="black"/>
<path d="M20.5006 199.903L20.1641 199.951L20.2433 200.505L20.5798 200.457L20.5006 199.903Z" fill="black"/>
<path d="M20.04 199.8L20.12 200.35L20.46 200.31L20.38 199.75L20.04 199.8Z" fill="black"/>
<path d="M17.9004 200.1L17.9804 200.65L18.4904 200.58L18.4104 200.03L17.9004 200.1Z" fill="black"/>
<path d="M20.2586 198.806L17.7725 199.151L17.8494 199.705L20.3356 199.36L20.2586 198.806Z" fill="black"/>
<path d="M20.309 198.629L17.2285 199.056L17.3055 199.611L20.386 199.184L20.309 198.629Z" fill="black"/>
<path d="M99.1221 241.595L99.1035 241.734L99.6586 241.808L99.6771 241.669L99.1221 241.595Z" fill="black"/>
<path d="M99.6801 10.17H99.1201V241.63H99.6801V10.17Z" fill="black"/>
<path d="M20.1724 181.475L14.8643 182.219L14.942 182.774L20.2501 182.03L20.1724 181.475Z" fill="black"/>
<path d="M88.9604 30.7H88.4004V223.6H88.9604V30.7Z" fill="black"/>
<path d="M85.5004 30.48H84.9404V223.82H85.5004V30.48Z" fill="black"/>
<path d="M49.1576 229.134L49.127 229.301L49.6778 229.402L49.7084 229.235L49.1576 229.134Z" fill="black"/>
<path d="M79.2305 252.22V252.24L79.7905 252.2L79.2305 252.22Z" fill="black"/>
<path d="M49.6807 24.9025L49.1299 25.0035L49.1605 25.1708L49.7114 25.0698L49.6807 24.9025Z" fill="black"/>
<path d="M16.1904 151.97L16.2604 152.52L16.7804 152.45L16.7004 151.89L16.1904 151.97Z" fill="black"/>
<path d="M16.3686 149.5L15.8535 149.571L15.9305 150.126L16.4455 150.055L16.3686 149.5Z" fill="black"/>
<path d="M49.5297 229H48.9697V229.17H49.5297V229Z" fill="black"/>
<path d="M49.5297 25.14H48.9697V25.31H49.5297V25.14Z" fill="black"/>
<path d="M46.0698 25.14H45.5098V25.31H46.0698V25.14Z" fill="black"/>
<path d="M46.0698 229H45.5098V229.17H46.0698V229Z" fill="black"/>
<path d="M45.2104 0.280029H44.6504V254.03H45.2104V0.280029Z" fill="black"/>
<path d="M44.5801 34.95V35.55L44.6501 36.45L45.2101 36.41L45.1401 35.05L45.1901 34.9L44.6601 34.71L44.5801 34.95Z" fill="black"/>
<path d="M11.6904 120L11.7604 120.56L12.2804 120.48L12.2004 119.93L11.6904 120Z" fill="black"/>
<path d="M12.1819 119.881L11.667 119.953L11.745 120.508L12.26 120.435L12.1819 119.881Z" fill="black"/>
<path d="M12.1868 119.768L11.6719 119.841L11.7498 120.395L12.2648 120.323L12.1868 119.768Z" fill="black"/>
<path d="M11.6299 119.62L11.7099 120.17L12.2199 120.1L12.1499 119.55L11.6299 119.62Z" fill="black"/>
<path d="M11.5996 119.4L11.6796 119.96L12.1896 119.88L12.1196 119.33L11.5996 119.4Z" fill="black"/>
<path d="M12.0882 119.059L11.5732 119.131L11.6512 119.686L12.1661 119.614L12.0882 119.059Z" fill="black"/>
<path d="M11.5195 118.8L11.5895 119.36L12.1095 119.29L12.0295 118.73L11.5195 118.8Z" fill="black"/>
<path d="M11.1602 116.24L11.2302 116.79L11.7502 116.72L11.6702 116.17L11.1602 116.24Z" fill="black"/>
<path d="M1.39032 42.2556L0.835938 42.3347L26.0273 218.897L26.5817 218.818L1.39032 42.2556Z" fill="black"/>
<path d="M11.4499 120.32L11.9999 120.24L11.4699 116.48L10.9199 116.56L11.4499 120.32Z" fill="black"/>
<path d="M16.1785 149.81L15.624 149.888L15.9617 152.284L16.5162 152.206L16.1785 149.81Z" fill="black"/>
<path d="M3.39035 67.73L3.94035 67.65L2.41035 56.77L1.86035 56.85L3.39035 67.73Z" fill="black"/>
<path d="M2.11788 57.6565L1.56348 57.7355L2.87829 66.9623L3.43269 66.8833L2.11788 57.6565Z" fill="black"/>
<path d="M1.75996 67.1201L2.30996 67.0401L1.00996 57.8101L0.459961 57.8901L1.75996 67.1201Z" fill="black"/>
<path d="M20.8113 199.018L20.2568 199.097L20.3899 200.037L20.9444 199.959L20.8113 199.018Z" fill="black"/>
<path d="M20.7732 199.194L20.2188 199.273L20.3032 199.867L20.8576 199.788L20.7732 199.194Z" fill="black"/>
<path d="M1.48 66.91L2.04 66.83L0.8 58.08L0.25 58.16L1.48 66.91Z" fill="black"/>
<path d="M20.2948 200.396L19.7402 200.474L19.9453 201.93L20.4998 201.851L20.2948 200.396Z" fill="black"/>
<path d="M19.6504 200.31L19.8804 201.93L20.4404 201.86L20.2104 200.23L19.6504 200.31Z" fill="black"/>
<path d="M18.9305 200.413L18.376 200.491L18.4483 201.006L19.0028 200.928L18.9305 200.413Z" fill="black"/>
<path d="M17.9372 199.588L17.3828 199.667L17.4672 200.261L18.0217 200.182L17.9372 199.588Z" fill="black"/>
<path d="M14.4294 183.438L13.875 183.517L16.3129 200.604L16.8673 200.525L14.4294 183.438Z" fill="black"/>
<path d="M3.37642 66.7597L2.91309 67.0742L3.42981 67.8354L3.89314 67.5209L3.37642 66.7597Z" fill="black"/>
<path d="M1.9283 66.6489L1.59277 67.0973L1.86498 67.301L2.20052 66.8527L1.9283 66.6489Z" fill="black"/>
<path d="M49.0801 24.91L49.4301 25.35L49.6301 25.13L49.1701 24.8L49.0801 24.91Z" fill="black"/>
<path d="M1.58008 57.6L2.11008 57.78L2.40008 56.9L1.87008 56.73L1.58008 57.6Z" fill="black"/>
<path d="M4.79553 67.2542L3.63672 67.4156L3.71398 67.9703L4.87279 67.8089L4.79553 67.2542Z" fill="black"/>
<path d="M3.1123 66.6482L2.00293 66.8021L2.0799 67.3568L3.18927 67.2029L3.1123 66.6482Z" fill="black"/>
<path d="M1.80664 57.4144L0.697266 57.5684L0.774234 58.123L1.8836 57.9691L1.80664 57.4144Z" fill="black"/>
<path d="M3.25842 56.3693L2.09961 56.5308L2.17687 57.0854L3.33568 56.924L3.25842 56.3693Z" fill="black"/>
<path d="M0.506422 57.6736L0.301758 57.9451L0.748933 58.2822L0.953597 58.0107L0.506422 57.6736Z" fill="black"/>
<path d="M49.1104 229.41L49.1703 229.5L49.6304 229.18L49.5704 229.09L49.1104 229.41Z" fill="black"/>
<path d="M44.8807 34.5305L1.36328 41.7972L1.45552 42.3496L44.973 35.0829L44.8807 34.5305Z" fill="black"/>
<path d="M81.3301 25.68L83.7401 25.81L83.7701 25.25L81.3601 25.13L81.3301 25.68Z" fill="black"/>
<path d="M80.0295 25.03H45.2695V25.59H80.0295V25.03Z" fill="black"/>
<path d="M49.2497 24.86H44.9297V25.42H49.2497V24.86Z" fill="black"/>
<path d="M49.2503 229.17L49.0703 229.38L49.1403 229.45L49.5303 229.05L49.4703 228.99L49.2503 229.17Z" fill="black"/>
<path d="M44.9499 -0.0314839L44.9199 0.52771L92.3418 3.07108L92.3718 2.51189L44.9499 -0.0314839Z" fill="black"/>
<path d="M81.8496 251.32L92.2996 245.93L92.0396 245.43L81.5996 250.83L81.8496 251.32Z" fill="black"/>
<path d="M47.0195 253.94L47.0695 254.23L47.6195 254.15L47.5795 253.86L47.0195 253.94Z" fill="#FC9E26"/>
</g>
<defs>
<clipPath id="clip0_2372_65185">
<rect width="208.52" height="256.31" fill="white" transform="translate(0.25)"/>
</clipPath>
</defs>
</svg>
