<svg width="183" height="255" viewBox="0 0 183 255" fill="none" xmlns="http://www.w3.org/2000/svg">
<g clip-path="url(#clip0_2372_64999)">
<path d="M146.54 245.3L144.89 245.55L144.98 246.1L146.59 245.86L147.66 245.82L147.64 245.26L146.54 245.3Z" fill="black"/>
<path d="M156.59 252.5L156.57 251.94L157.89 251.84L158.63 251.74L159.43 251.6L160.29 251.39L161.23 251.12L162.23 250.76L163.29 250.3L164.4 249.72L165.57 249L166.77 248.09L168 246.98L169.23 245.62L170.4 243.98L171.45 242.01L172.31 239.69L172.82 237.25L172.97 234.97L173.53 235.01L173.37 237.33L172.84 239.85L171.96 242.24L170.87 244.27L169.66 245.97L168.4 247.37L167.13 248.53L165.88 249.46L164.68 250.21L163.53 250.81L162.44 251.28L161.4 251.65L160.44 251.93L159.54 252.14L158.71 252.29L157.25 252.46L156.59 252.5Z" fill="black"/>
<path d="M138.14 244.72L137.48 244.77L137.5 245.33L137.94 245.31L138.26 245.27L138.46 245.19L138.24 244.68L138.14 244.72Z" fill="black"/>
<path d="M156.579 251.935L155.979 251.944L155.988 252.504L156.587 252.495L156.579 251.935Z" fill="black"/>
<path d="M157.79 253.75H17.6699V254.31H157.79V253.75Z" fill="black"/>
<path d="M134.76 247.19H40.6904V247.75H134.76V247.19Z" fill="black"/>
<path d="M40.5197 244.77H37.9697V245.33H40.5197V244.77Z" fill="black"/>
<path d="M137.49 244.77H134.94V245.33H137.49V244.77Z" fill="black"/>
<path d="M43.6305 244.46H40.5205V245.02H43.6305V244.46Z" fill="black"/>
<path d="M134.93 244.46H131.82V245.02H134.93V244.46Z" fill="black"/>
<path d="M131.82 244.41H88.5898V244.97H131.82V244.41Z" fill="black"/>
<path d="M87.7298 244.29H44.8398V244.85H87.7298V244.29Z" fill="black"/>
<path d="M147.64 245.82L148.61 245.85L150.28 246.09L150.36 245.54L148.67 245.3L147.66 245.26L147.64 245.82Z" fill="black"/>
<path d="M17.6401 254.31L14.2701 253.97L10.9701 252.98L7.94012 251.37L5.28012 249.2L3.09012 246.55L1.47012 243.52L0.460117 240.24L0.120117 236.82L0.680117 236.76L1.01012 240.13L1.98012 243.31L3.56012 246.24L5.67012 248.8L8.25012 250.91L11.1801 252.47L14.3701 253.43L17.7001 253.75L17.6401 254.31Z" fill="black"/>
<path d="M153.45 252.86L152.17 252.93L150.52 252.99L146.67 253.02L143.13 252.93L141.86 252.86L141.04 252.76L140.98 253.32L141.81 253.41L143.11 253.49L146.66 253.58H148.64L152.19 253.49L153.5 253.41L154.32 253.32L154.25 252.76L153.45 252.86Z" fill="black"/>
<path d="M87.6904 244.85L88.5504 244.97L88.6304 244.41L87.7604 244.29L87.6904 244.85Z" fill="black"/>
<path d="M35.7197 242.27L35.8397 242.01L35.7997 242.27L36.2697 241.97L36.2297 241.91L35.8297 241.72L35.7197 242.27Z" fill="black"/>
<path d="M40.65 247.26L40.25 247.37L40.29 247.53L40.46 247.69L40.62 247.74L40.73 247.33L40.81 247.31L40.79 247.25L40.8 247.24L40.79 247.22H40.78L40.76 247.2L40.74 247.18L40.73 247.19L40.68 247.17L40.65 247.26Z" fill="black"/>
<path d="M36.9902 245.19L37.1202 245.25L37.9602 245.33L37.9802 244.77L37.5802 244.76L37.3102 244.72L37.2102 244.68L36.9902 245.19Z" fill="black"/>
<path d="M36.5605 252.42L36.9605 252.04L36.9506 252.02L36.5605 252.42Z" fill="black"/>
<path d="M44.8113 244.29L43.6025 244.455L43.6785 245.01L44.8873 244.845L44.8113 244.29Z" fill="black"/>
<path d="M139.68 241.72H35.7803V242.28H139.68V241.72Z" fill="black"/>
<path d="M151.88 238.29H23.5703V238.85H151.88V238.29Z" fill="black"/>
<path d="M151.88 238.21H23.5703V238.77H151.88V238.21Z" fill="black"/>
<path d="M151.88 238.04H23.5703V238.6H151.88V238.04Z" fill="black"/>
<path d="M174.82 229.45H174.88L174.82 228.89V229.45Z" fill="black"/>
<path d="M181.58 228.72H174.82V229.28H181.58V228.72Z" fill="black"/>
<path d="M142.371 222.68H33.6006V223.24H142.371V222.68Z" fill="black"/>
<path d="M152.71 247.11L151.61 246.5L150.24 246.09L150.4 245.55L151.83 245.99L152.98 246.62L152.71 247.11Z" fill="black"/>
<path d="M140.817 252.652L140.626 253.178L140.908 253.281L141.099 252.754L140.817 252.652Z" fill="black"/>
<path d="M143.1 252.12L141.8 252.2L140.98 252.29L141.04 252.85L141.84 252.75L144.78 252.62L148.63 252.59L152.16 252.68L153.43 252.75L154.19 252.83L154.47 252.93L154.66 252.41L154.31 252.29L153.48 252.19L150.52 252.06L146.66 252.03L143.1 252.12Z" fill="black"/>
<path d="M19.46 252.51L18.09 252.45L16.57 252.27L14.89 251.9L13.05 251.3L11.14 250.41L9.33996 249.3L7.77996 248.06L6.48996 246.79L5.44996 245.53L4.60996 244.32L3.93996 243.16L3.40996 242.05L2.98996 241.01L2.65996 240.02L2.40996 239.11L2.22996 238.28L2.01996 236.8L1.95996 236.15L2.51996 236.1L2.65996 237.42L2.77996 238.17L2.95996 238.98L3.19996 239.86L3.50996 240.81L3.91996 241.83L4.43996 242.9L5.08996 244.02L5.89996 245.2L6.89996 246.41L8.14996 247.64L9.66996 248.85L11.41 249.92L13.26 250.78L15.03 251.36L16.66 251.72L18.14 251.9L19.48 251.95L19.46 252.51Z" fill="black"/>
<path d="M0.260117 10.07L0.120117 10.54L0.670117 10.66L0.740117 10.36L0.930117 10.11L0.480117 9.77002L0.260117 10.07Z" fill="black"/>
<path d="M11.8389 0.182803L0.526367 9.72571L0.88745 10.1537L12.2 0.610844L11.8389 0.182803Z" fill="black"/>
<path d="M177.311 206.45H175.061V207.01H177.311V206.45Z" fill="black"/>
<path d="M177.31 203.52H177.13V204.08H177.31V203.52Z" fill="black"/>
<path d="M177.3 203H177.13V203.56H177.3V203Z" fill="black"/>
<path d="M174.841 229.32L174.771 229.39L174.811 229.43V229.44L174.831 229.45H174.841L174.901 229.46L174.921 229.36L175.231 229.06L175.111 228.94L174.951 228.9L174.841 229.32Z" fill="black"/>
<path d="M147.89 252.59L145.75 252.55L145.15 252.48L145.11 252.69L144.96 253L147.41 253.15L149.58 253.1L150.25 253.03L150.36 252.99L150.19 252.72L150.15 252.48L147.89 252.59Z" fill="black"/>
<path d="M147.65 252.62L145.68 252.58L145.15 252.52L145.11 252.71L144.95 253.03L147.65 253.18L149.65 253.13L150.25 253.07L150.39 253.01L150.19 252.74L150.15 252.52L147.65 252.62Z" fill="black"/>
<path d="M145.64 252.13L145.04 252.2L144.91 252.26L145.1 252.52L145.14 252.75L147.64 252.64L149.61 252.69L150.15 252.75L150.19 252.55L150.35 252.23L147.64 252.08L145.64 252.13Z" fill="black"/>
<path d="M141.05 252.55H141.04L140.74 253L141.17 253.15L142.69 253.29L147.14 253.4L150.12 253.38L153.24 253.25L154.15 253.15L154.38 253.09L154.55 253L154.26 252.58L154.25 252.55H154.24L154.23 252.54L153.2 252.69L148.15 252.84L144.28 252.79L142.1 252.69L141.27 252.6L141.09 252.56L141.06 252.54L141.05 252.55Z" fill="black"/>
<path d="M36.3013 242.026L35.7773 242.224L36.8358 245.031L37.3598 244.833L36.3013 242.026Z" fill="black"/>
<path d="M1.91992 234.99L1.95992 236.14L2.51992 236.11L2.47992 234.98L1.91992 234.99Z" fill="black"/>
<path d="M0.680117 10.6H0.120117V236.79H0.680117V10.6Z" fill="black"/>
<path d="M139.49 242.21L139.63 242.32L139.95 241.86L139.86 241.79L139.49 242.21Z" fill="black"/>
<path d="M134.39 247.47L134.53 247.62L134.94 247.24L134.79 247.08L134.39 247.47Z" fill="black"/>
<path d="M15.8198 18.5699H15.2598V230.55H15.8198V18.5699Z" fill="black"/>
<path d="M15.8998 18.5699H15.3398V230.55H15.8998V18.5699Z" fill="black"/>
<path d="M16.0698 18.58H15.5098V230.56H16.0698V18.58Z" fill="black"/>
<path d="M33.8803 31.01H33.3203V222.96H33.8803V31.01Z" fill="black"/>
<path d="M153.048 246.673L152.64 247.057L153.311 247.771L153.719 247.387L153.048 246.673Z" fill="black"/>
<path d="M40.8002 244.74H40.2402V247.3H40.8002V244.74Z" fill="black"/>
<path d="M40.9702 244.74H40.4102V247.48H40.9702V244.74Z" fill="black"/>
<path d="M134.53 247.63L134.99 247.31L134.96 247.27L134.53 247.63Z" fill="black"/>
<path d="M36.7999 251.9L36.6699 251.95L36.8199 252.49L37.0699 252.42L37.2999 252.19L37.3599 251.95L36.8299 251.8L36.7999 251.9Z" fill="black"/>
<path d="M153.774 247.509L153.236 247.664L153.422 248.308L153.96 248.153L153.774 247.509Z" fill="black"/>
<path d="M131.54 244.69V244.74L132.1 244.69H131.54Z" fill="black"/>
<path d="M135.04 244.74H134.48V247.48H135.04V244.74Z" fill="black"/>
<path d="M135.22 244.74H134.66V247.3H135.22V244.74Z" fill="black"/>
<path d="M175.281 229.203L174.74 229.348L174.763 229.434L175.304 229.29L175.281 229.203Z" fill="black"/>
<path d="M141.01 252.67H140.45V252.94H141.01V252.67Z" fill="black"/>
<path d="M141.18 252.61H140.62V252.77H141.18V252.61Z" fill="black"/>
<path d="M142.65 31H142.09V222.95H142.65V31Z" fill="black"/>
<path d="M145.331 252.5H144.771V252.77H145.331V252.5Z" fill="black"/>
<path d="M150.52 252.5H149.96V252.77H150.52V252.5Z" fill="black"/>
<path d="M154.67 252.61H154.11V252.77H154.67V252.61Z" fill="black"/>
<path d="M154.84 252.67H154.28V252.94H154.84V252.67Z" fill="black"/>
<path d="M159.95 18.5699H159.39V230.55H159.95V18.5699Z" fill="black"/>
<path d="M174.84 24.86L174.83 24.85L174.81 24.86L174.82 24.87L174.79 24.89L174.77 24.92H174.78L174.76 24.98L174.85 25L174.95 25.41L175.11 25.37L175.28 25.19L175.32 25.04L174.92 24.93L174.9 24.84L174.84 24.86Z" fill="black"/>
<path d="M40.93 247.63L40.96 247.58L40.46 247.32L40.93 247.63Z" fill="black"/>
<path d="M177.3 50.2H177.13V50.7599H177.3V50.2Z" fill="black"/>
<path d="M177.311 47.3H175.061V47.8601H177.311V47.3Z" fill="black"/>
<path d="M174.71 28.84L174.78 29.29L175.33 29.25L175.31 28.96L175.26 28.72L174.71 28.84Z" fill="black"/>
<path d="M174.75 28.33L174.77 28.72L175.33 28.68L175.3 28.3L174.75 28.33Z" fill="black"/>
<path d="M174.55 25.5L174.75 28.34L175.3 28.3L175.11 25.46L174.55 25.5Z" fill="black"/>
<path d="M175.109 25.2836L174.55 25.312L174.559 25.4918L175.118 25.4633L175.109 25.2836Z" fill="black"/>
<path d="M177.273 161.454L176.714 161.474L177.295 177.474L177.855 177.453L177.273 161.454Z" fill="black"/>
<path d="M176.69 161.04L176.7 161.48L177.26 161.47L177.25 161.03L176.69 161.04Z" fill="black"/>
<path d="M177.856 177.449L177.296 177.464L177.314 178.134L177.874 178.119L177.856 177.449Z" fill="black"/>
<path d="M177.514 168.55L176.954 168.565L176.972 169.224L177.532 169.209L177.514 168.55Z" fill="black"/>
<path d="M176.68 160.6L176.69 161.04L177.25 161.03L177.24 160.59L176.68 160.6Z" fill="black"/>
<path d="M175.094 25.1333L174.534 25.1396L174.536 25.3196L175.096 25.3133L175.094 25.1333Z" fill="black"/>
<path d="M174.771 28.7699L174.781 28.8299L175.331 28.8099V28.6899L174.771 28.7699Z" fill="black"/>
<path d="M174.54 229.17V229.34H175.1V229.17H174.54Z" fill="black"/>
<path d="M177.518 167.873L176.958 167.879L176.965 168.549L177.525 168.543L177.518 167.873Z" fill="black"/>
<path d="M177.3 178.14L177.31 178.82L177.86 178.81V178.14H177.3Z" fill="black"/>
<path d="M177.237 160.156L176.677 160.161L176.681 160.601L177.241 160.596L177.237 160.156Z" fill="black"/>
<path d="M160.121 18.58H159.561V230.56H160.121V18.58Z" fill="black"/>
<path d="M160.19 18.58H159.63V230.56H160.19V18.58Z" fill="black"/>
<path d="M175.34 229.34H174.78V236.79H175.34V229.34Z" fill="black"/>
<path d="M175.34 28.8199H174.78V225.49H175.34V28.8199Z" fill="black"/>
<path d="M175.34 10.6H174.78V24.96H175.34V10.6Z" fill="black"/>
<path d="M177.24 142.48H176.68V148.89H177.24V142.48Z" fill="black"/>
<path d="M177.24 153.74H176.68V160.15H177.24V153.74Z" fill="black"/>
<path d="M177.52 134.75H176.96V167.88H177.52V134.75Z" fill="black"/>
<path d="M177.581 47.33H177.021V131.61H177.581V47.33Z" fill="black"/>
<path d="M177.581 171.03H177.021V229H177.581V171.03Z" fill="black"/>
<path d="M177.871 178.81H177.311V228.59H177.871V178.81Z" fill="black"/>
<path d="M177.871 47.34H177.311V123.82H177.871V47.34Z" fill="black"/>
<path d="M178.97 31.53H178.41V223.82H178.97V31.53Z" fill="black"/>
<path d="M176.681 142.041L176.677 142.481L177.237 142.486L177.241 142.046L176.681 142.041Z" fill="black"/>
<path d="M176.972 134.082L176.965 134.752L177.525 134.758L177.532 134.088L176.972 134.082Z" fill="black"/>
<path d="M177.307 123.821L177.3 124.491L177.86 124.497L177.867 123.827L177.307 123.821Z" fill="black"/>
<path d="M174.55 25.0487L174.549 25.1287L175.109 25.1347L175.11 25.0547L174.55 25.0487Z" fill="black"/>
<path d="M174.54 24.9677L174.539 25.0477L175.099 25.0538L175.1 24.9738L174.54 24.9677Z" fill="black"/>
<path d="M177.021 47.33H177.581L177.591 47.15H177.031L177.021 47.33Z" fill="black"/>
<path d="M174.558 229.006L174.556 229.186L175.116 229.192L175.118 229.012L174.558 229.006Z" fill="black"/>
<path d="M175.051 225.55L174.771 225.59L175.051 225.6L175.331 225.55V225.49L174.781 225.48L175.051 225.55Z" fill="black"/>
<path d="M176.68 142.04L177.24 142.05L177.25 141.61L176.69 141.6L176.68 142.04Z" fill="black"/>
<path d="M178.41 31.53H178.97L178.98 30.49L178.42 30.48L178.41 31.53Z" fill="black"/>
<path d="M178.42 30.4801L178.98 30.4901L179.02 29.4501L178.46 29.4301L178.42 30.4801Z" fill="black"/>
<path d="M176.992 133.411L176.974 134.081L177.533 134.096L177.551 133.426L176.992 133.411Z" fill="black"/>
<path d="M177.303 124.491L177.285 125.161L177.845 125.176L177.863 124.507L177.303 124.491Z" fill="black"/>
<path d="M176.718 141.176L176.706 141.616L177.266 141.631L177.278 141.191L176.718 141.176Z" fill="black"/>
<path d="M178.4 25.3399V25.4699L178.96 25.4899V25.3199L178.4 25.3399Z" fill="black"/>
<path d="M177.267 125.138L176.697 141.138L177.257 141.158L177.827 125.158L177.267 125.138Z" fill="black"/>
<path d="M177.03 47.14L177.59 47.16L177.6 46.8L177.04 46.77L177.03 47.14Z" fill="black"/>
<path d="M178.68 25.3101L178.46 29.4201L179.02 29.4601L179.21 26.0801L179.24 25.3101H178.68Z" fill="black"/>
<path d="M178.39 25.64L178.94 25.67L178.96 25.5L178.4 25.46L178.39 25.64Z" fill="black"/>
<path d="M178.39 25.6402L177.064 46.7687L177.623 46.8037L178.949 25.6753L178.39 25.6402Z" fill="black"/>
<path d="M178.461 29.4296L177.312 46.7816L177.87 46.8186L179.02 29.4667L178.461 29.4296Z" fill="black"/>
<path d="M134.73 247.19L134.72 247.18L134.69 247.2L134.67 247.22L134.66 247.24V247.25L134.64 247.31L134.73 247.33L134.84 247.74L134.99 247.69L135.16 247.53L135.21 247.37L134.8 247.26L134.78 247.17L134.73 247.19Z" fill="black"/>
<path d="M40.5098 247.25L40.9298 247.62L41.0598 247.47L40.6598 247.08L40.5098 247.25Z" fill="black"/>
<path d="M142.371 30.73H33.6006V31.29H142.371V30.73Z" fill="black"/>
<path d="M181.59 25.03H174.82V25.59H181.59V25.03Z" fill="black"/>
<path d="M174.82 24.86L174.88 25.41V24.86H174.82Z" fill="black"/>
<path d="M181.521 25.58L181.621 25.61L181.691 25.67L181.701 25.65H181.941L181.661 25.75L181.941 25.73L181.671 25.86L181.691 29.92H182.251L182.221 25.84L181.941 25.85L182.221 25.72L182.131 25.35L181.941 25.14L181.661 25.04L181.521 25.58Z" fill="black"/>
<path d="M182.26 29.92H181.7V30.48H182.26V29.92Z" fill="black"/>
<path d="M182.26 30.48H181.7V223.98H182.26V30.48Z" fill="black"/>
<path d="M182.26 223.98H181.7V224.53H182.26V223.98Z" fill="black"/>
<path d="M181.69 225.06H182.25V224.53H181.69V225.06Z" fill="black"/>
<path d="M181.706 225.076L181.704 225.576L182.264 225.578L182.266 225.078L181.706 225.076Z" fill="black"/>
<path d="M181.692 225.553L181.689 226.023L182.249 226.026L182.252 225.556L181.692 225.553Z" fill="black"/>
<path d="M181.706 226.039L181.704 226.479L182.264 226.482L182.266 226.042L181.706 226.039Z" fill="black"/>
<path d="M181.69 226.86L182.25 226.87V226.47L181.69 226.46V226.86Z" fill="black"/>
<path d="M181.66 228.52L181.94 228.53L182.23 228.41L182.25 226.87L181.69 226.86L181.66 228.52Z" fill="black"/>
<path d="M174.558 228.812L174.549 228.992L175.108 229.021L175.117 228.841L174.558 228.812Z" fill="black"/>
<path d="M174.55 228.8L175.11 228.84L175.33 225.62L174.77 225.58L174.55 228.8Z" fill="black"/>
<path d="M157.81 254.31L157.76 253.75L161.13 253.42L164.32 252.45L167.25 250.88L169.82 248.76L171.93 246.19L173.49 243.26L174.46 240.08L174.78 236.76L175.33 236.82L175 240.18L174.01 243.47L172.39 246.5L170.22 249.16L167.56 251.34L164.53 252.96L161.24 253.96L157.81 254.31Z" fill="black"/>
<path d="M177.29 228.96L177.85 229.03L177.87 228.79L177.31 228.77L177.29 228.96Z" fill="black"/>
<path d="M141.506 247.494L141.326 248.118L141.864 248.273L142.044 247.649L141.506 247.494Z" fill="black"/>
<path d="M139.147 242.037L138.09 244.845L138.614 245.042L139.671 242.235L139.147 242.037Z" fill="black"/>
<path d="M151.88 10.53H23.5703V11.09H151.88V10.53Z" fill="black"/>
<path d="M151.88 10.36H23.5703V10.92H151.88V10.36Z" fill="black"/>
<path d="M151.88 10.28H23.5703V10.84H151.88V10.28Z" fill="black"/>
<path d="M163.111 0H12.3506V0.56H163.111V0Z" fill="black"/>
<path d="M173.634 25.4449L173.151 25.7297L173.635 26.5477L174.117 26.2629L173.634 25.4449Z" fill="black"/>
<path d="M175.029 28.2042L174.538 28.4734L174.658 28.6926L175.149 28.4234L175.029 28.2042Z" fill="black"/>
<path d="M175.155 28.4443L174.63 28.6396L174.717 28.8739L175.242 28.6786L175.155 28.4443Z" fill="black"/>
<path d="M177.371 228.55L177.311 228.73L177.861 228.82L177.901 228.75L177.431 228.44L177.371 228.55Z" fill="black"/>
<path d="M174.71 225.46L175.26 225.59L175.32 225.3L175.33 225.05L174.78 225.01L174.71 225.46Z" fill="black"/>
<path d="M139.36 241.81L139.17 241.99L139.63 242.3L139.61 242.01L139.74 242.27L139.62 241.72L139.36 241.81Z" fill="black"/>
<path d="M35.5 241.86L35.82 242.32L35.96 242.21L35.59 241.79L35.5 241.86Z" fill="black"/>
<path d="M12.1602 0.26998L11.9902 0.35998L12.0402 0.43998L12.1802 0.35998L12.3602 0.31998L12.3402 0.22998L12.1602 0.26998Z" fill="black"/>
<path d="M163.101 0.31998L163.271 0.35998L163.421 0.43998L163.461 0.35998L163.311 0.26998L163.111 0.22998L163.101 0.31998Z" fill="black"/>
<path d="M174.57 10.1599L163.26 0.619941L163.62 0.189941L174.93 9.72994L174.57 10.1599Z" fill="black"/>
<path d="M174.53 10.11L174.72 10.36L174.78 10.66L175.33 10.54L175.25 10.18L174.97 9.77002L174.53 10.11Z" fill="black"/>
<path d="M177.91 228.73L177.42 228.46L177.84 227.66L178.15 226.58L178.34 225.25L178.41 223.81L178.97 223.83L178.9 225.31L178.69 226.7L178.36 227.87L177.91 228.73Z" fill="black"/>
<path d="M174.53 225.84L175.02 226.11L175.16 225.85L175.25 225.62L174.72 225.43L174.53 225.84Z" fill="black"/>
<path d="M173.251 228.404L173.145 228.585L173.627 228.869L173.734 228.688L173.251 228.404Z" fill="black"/>
<path d="M173.35 228.228L173.253 228.392L173.735 228.677L173.832 228.513L173.35 228.228Z" fill="black"/>
<path d="M173.36 228.23L173.84 228.52L174.12 228.04L173.63 227.76L173.36 228.23Z" fill="black"/>
<path d="M141.98 247.78L141.57 247.4L142.23 246.68L142.64 247.06L141.98 247.78Z" fill="black"/>
<path d="M143.397 246.013L142.312 246.614L142.583 247.104L143.668 246.503L143.397 246.013Z" fill="black"/>
<path d="M144.833 245.575L143.421 246.017L143.588 246.551L145.001 246.11L144.833 245.575Z" fill="black"/>
<path d="M181.94 228.57L181.5 228.73L181.67 229.26L181.94 229.18L182.11 228.99L182.22 228.54L181.66 228.52L181.94 228.57Z" fill="black"/>
<path d="M140.913 252.31L140.631 252.413L140.823 252.939L141.105 252.837L140.913 252.31Z" fill="black"/>
<path d="M154.19 252.78L154.38 253.31L154.66 253.2L154.47 252.68L154.19 252.78Z" fill="black"/>
<path d="M142.04 248.42L141.49 248.33L141.57 247.87L141.75 247.49L142.08 247.08L142.52 246.7L143.06 246.37L143.68 246.08L144.38 245.84L145.14 245.65L145.27 246.19L144.54 246.38L143.89 246.6L143.32 246.86L142.85 247.16L142.48 247.47L142.22 247.79L142.1 248.07L142.04 248.42Z" fill="black"/>
<path d="M147.66 249.81L147.63 249.26L148.5 249.19L148.88 249.1L149.23 248.99L149.52 248.86L149.74 248.71L149.86 248.58L149.94 248.45L149.96 248.32L150.51 248.43L150.44 248.69L150.28 248.95L150.09 249.14L149.78 249.34L149.43 249.51L149.03 249.64L148.59 249.74L148.13 249.79L147.66 249.81Z" fill="black"/>
<path d="M147.66 249.85L147.64 249.29L148.46 249.22L149.16 249.05L149.45 248.92L149.68 248.79L149.91 248.54L149.96 248.35L150.52 248.4L150.49 248.57L150.38 248.84L150.25 249.02L150 249.24L149.7 249.42L149.35 249.57L148.96 249.69L148.54 249.78L147.66 249.85Z" fill="black"/>
<path d="M145.32 248.37L144.8 248.18L144.91 247.92L145.05 247.73L145.29 247.51L145.6 247.33L145.94 247.18L146.33 247.06L146.75 246.98L147.64 246.91L147.66 247.47L146.84 247.53L146.13 247.7L145.85 247.83L145.62 247.96L145.38 248.21L145.32 248.37Z" fill="black"/>
<path d="M147.66 251.35L147.64 250.79L148.47 250.77L149.27 250.68L150.04 250.55L150.76 250.37L151.41 250.15L151.97 249.89L152.45 249.59L152.81 249.28L153.07 248.96L153.2 248.68L153.25 248.33L153.8 248.42L153.72 248.88L153.54 249.26L153.21 249.67L152.77 250.05L152.24 250.38L151.61 250.67L150.92 250.91L150.16 251.1L149.35 251.24L148.51 251.32L147.66 251.35Z" fill="black"/>
<path d="M146.78 245.43L145.94 245.51L145.16 245.65L145.25 246.2L146.02 246.07L146.82 245.99L147.66 245.96L147.64 245.4L146.78 245.43Z" fill="black"/>
<path d="M147.64 245.96L148.46 245.98L149.25 246.06L150.02 246.19L150.76 246.38L150.89 245.84L150.13 245.65L149.33 245.51L148.49 245.43L147.66 245.4L147.64 245.96Z" fill="black"/>
<path d="M147.63 249.82L147.18 249.8L146.73 249.74L146.29 249.65L145.89 249.52L145.54 249.36L145.25 249.17L144.97 248.89L144.82 248.6L144.78 248.43L145.33 248.32L145.36 248.45L145.43 248.58L145.6 248.74L145.81 248.88L146.1 249L146.43 249.11L146.82 249.19L147.66 249.26L147.63 249.82Z" fill="black"/>
<path d="M147.64 251.35L146.8 251.33L145.96 251.24L145.16 251.1L144.4 250.92L143.71 250.68L143.09 250.4L142.55 250.07L142.12 249.71L141.79 249.31L141.55 248.8L141.49 248.42L142.04 248.33L142.1 248.68L142.26 249.02L142.52 249.32L142.88 249.62L143.35 249.9L143.91 250.16L144.56 250.38L145.27 250.56L146.04 250.69L146.84 250.77L147.65 250.79L147.64 251.35Z" fill="black"/>
<path d="M147.641 249.85L146.771 249.78L146.361 249.7L145.971 249.58L145.631 249.44L145.331 249.27L145.091 249.07L144.871 248.76L144.771 248.4L145.331 248.35L145.381 248.53L145.491 248.68L145.661 248.81L145.881 248.94L146.161 249.06L146.491 249.15L147.251 249.27L147.661 249.29L147.641 249.85Z" fill="black"/>
<path d="M149.96 248.4L149.91 248.22L149.8 248.07L149.64 247.94L149.41 247.81L149.13 247.69L148.8 247.6L148.04 247.48L147.63 247.47L147.66 246.91L148.52 246.97L148.94 247.05L149.32 247.17L149.66 247.31L149.96 247.48L150.2 247.68L150.42 247.99L150.52 248.35L149.96 248.4Z" fill="black"/>
<path d="M153.25 248.42L153.2 248.07L153.04 247.74L152.78 247.43L152.41 247.13L151.94 246.85L151.38 246.59L150.73 246.37L150.92 245.84L151.59 246.07L152.21 246.35L152.74 246.68L153.17 247.04L153.51 247.44L153.74 247.95L153.8 248.33L153.25 248.42Z" fill="black"/>
<path d="M142.05 247.61H141.49V248.38H142.05V247.61Z" fill="black"/>
<path d="M153.81 247.62H153.25V248.38H153.81V247.62Z" fill="black"/>
<path d="M144.771 248.35L145.331 248.4L145.341 248.3L144.781 248.25L144.771 248.35Z" fill="black"/>
</g>
<defs>
<clipPath id="clip0_2372_64999">
<rect width="182.13" height="254.31" fill="white" transform="translate(0.120117)"/>
</clipPath>
</defs>
</svg>
