<svg width="311" height="250" viewBox="0 0 311 250" fill="none" xmlns="http://www.w3.org/2000/svg">
<g clip-path="url(#clip0_2177_63470)">
<path d="M164.474 15.8633L158.552 16.4389C154.396 16.8406 150.436 18.4011 147.122 20.9426C143.809 23.4841 141.276 26.9046 139.811 30.8148V30.8148C139.121 32.6553 138.836 34.6232 138.977 36.5839C139.117 38.5445 139.68 40.4516 140.626 42.1747C141.489 43.7448 142.035 45.4696 142.231 47.2505C142.428 49.0314 142.272 50.8337 141.772 52.5543C141.272 54.2749 140.438 55.8802 139.318 57.2786C138.198 58.6769 136.813 59.8409 135.243 60.7041C135.031 60.8208 134.815 60.9313 134.594 61.0357L126.812 64.7885C125.016 65.6531 123.431 66.9011 122.17 68.4446C120.909 69.9881 120.002 71.7895 119.513 73.7217C118.451 77.8985 118.585 82.2897 119.899 86.394C121.214 90.4984 123.655 94.1507 126.945 96.9342L128.327 98.0899C129.555 99.1299 130.415 100.539 130.779 102.107C131.142 103.675 130.989 105.318 130.344 106.793" stroke="#B5B9C6" stroke-miterlimit="10" stroke-dasharray="4 4"/>
<path d="M231.304 77.5955L230.778 78.396L271.609 105.217L272.135 104.416L231.304 77.5955Z" fill="#B5B9C6"/>
<path d="M269.745 97.7055L252.536 123.914L253.337 124.44L270.546 98.2312L269.745 97.7055Z" fill="#B5B9C6"/>
<path d="M245.867 135.84H242.851V134.882H245.337L251.443 125.594L252.24 126.119L245.867 135.84Z" fill="#B5B9C6"/>
<path d="M31.06 77.9396C29.6509 84.4645 27.2933 90.7407 25.41 97.1597C23.4714 103.745 21.519 110.449 21.542 117.315C21.6142 126.346 25.0809 135.02 31.2534 141.614C33.6524 144.16 36.4613 146.384 38.3124 149.354C40.1635 152.324 40.845 156.404 38.7729 159.231C35.789 163.302 29.4115 162.423 25.0508 164.964C19.562 168.188 18.7976 176.338 21.9288 181.873C25.06 187.408 39.3116 203.239 59.6507 199.32C68.7543 197.566 81.095 188.9 80.7404 179.635C80.372 169.988 71.1626 162.174 71.4757 152.527C71.6829 146.205 75.9331 140.863 79.6122 135.72C83.2914 130.576 86.7173 124.305 85.0228 118.222C82.5316 109.252 70.9784 106.48 65.3836 99.0431C61.7827 94.2495 60.9861 87.9457 60.7789 81.9549C60.5717 75.9642 60.7098 69.8215 58.7068 64.1714C53.8534 50.4401 36.6409 52.0748 31.06 77.9396Z" fill="#59E2A7"/>
<path d="M52.9187 112.415H51.9609V216.385H52.9187V112.415Z" fill="#312B6B"/>
<path d="M52.9098 142.456L51.9658 142.3C53.513 132.897 64.2098 127.049 64.6657 126.8L65.1261 127.643C65.011 127.703 54.3787 133.537 52.9098 142.456Z" fill="#312B6B"/>
<path d="M51.9659 183.402C50.9206 177.038 43.3413 172.898 43.2676 172.857L43.7281 172.014C44.0596 172.189 51.7955 176.421 52.9375 183.245L51.9659 183.402Z" fill="#312B6B"/>
<path d="M35.126 212.798H69.5832V223.173C69.5832 226.193 68.3843 229.09 66.25 231.227C64.1157 233.364 61.2205 234.566 58.2003 234.57H46.5227C43.5001 234.57 40.6013 233.369 38.464 231.231C36.3267 229.094 35.126 226.195 35.126 223.173V212.798Z" fill="#FF3356"/>
<path d="M41.246 233.639C39.2537 232.597 37.5852 231.029 36.4218 229.105C35.2584 227.181 34.6448 224.975 34.6475 222.726V219.075H35.6053V222.726C35.603 224.8 36.1693 226.835 37.2426 228.61C38.3158 230.384 39.855 231.831 41.6927 232.792L41.246 233.639Z" fill="#E21441"/>
<path d="M69.5832 215.907H35.126V216.864H69.5832V215.907Z" fill="#E21441"/>
<path d="M311 234.57H27.1924V235.527H311V234.57Z" fill="#B5B9C6"/>
<path d="M231.873 241.753H129.869V242.711H231.873V241.753Z" fill="#B5B9C6"/>
<path d="M270.723 249.042H206.768V250H270.723V249.042Z" fill="#B5B9C6"/>
<path d="M179.913 249.042H95.5225V250H179.913V249.042Z" fill="#B5B9C6"/>
<path d="M291.177 241.863H260.625V242.821H291.177V241.863Z" fill="#B5B9C6"/>
<path d="M113.821 241.753H51.9658V242.711H113.821V241.753Z" fill="#B5B9C6"/>
<path d="M69.5884 212.319H47.6377V213.277H69.5884V212.319Z" fill="#E21441"/>
<path d="M103.079 234.57H44.1152V235.527H103.079V234.57Z" fill="#B5B9C6"/>
<path d="M21.8924 234.57H0.641602V235.527H21.8924V234.57Z" fill="#B5B9C6"/>
<path d="M165.256 162.109L144.226 234.57H141.809L159.003 162.109H165.256Z" fill="#DDDEDF"/>
<path d="M187.244 162.109L208.274 234.57H210.691L193.493 162.109H187.244Z" fill="#DDDEDF"/>
<path d="M176.248 187.187C195.807 187.187 211.663 171.331 211.663 151.772C211.663 132.213 195.807 116.357 176.248 116.357C156.689 116.357 140.833 132.213 140.833 151.772C140.833 171.331 156.689 187.187 176.248 187.187Z" fill="#FF3356"/>
<path d="M210.332 163.054L209.411 162.75C210.036 160.859 210.499 158.918 210.793 156.948L211.713 157.086C211.426 159.111 210.964 161.108 210.332 163.054Z" fill="#E21441"/>
<path d="M176.247 187.666C170.586 187.682 165.004 186.345 159.965 183.766L160.398 182.914C165.304 185.424 170.74 186.725 176.252 186.708C183.026 186.706 189.653 184.737 195.329 181.04C201.004 177.343 205.484 172.076 208.222 165.881L209.097 166.268C206.284 172.634 201.681 178.045 195.849 181.844C190.017 185.643 183.207 187.665 176.247 187.666Z" fill="#E21441"/>
<path d="M171.302 159.885C177.449 159.885 182.432 154.903 182.432 148.756C182.432 142.609 177.449 137.626 171.302 137.626C165.156 137.626 160.173 142.609 160.173 148.756C160.173 154.903 165.156 159.885 171.302 159.885Z" fill="#AB9AF7"/>
<path d="M108.318 138.575C108.154 138.131 108.124 137.648 108.234 137.187C108.344 136.726 108.588 136.308 108.936 135.986C109.283 135.664 109.718 135.453 110.186 135.378C110.654 135.303 111.133 135.369 111.563 135.567C111.994 135.765 112.356 136.086 112.604 136.489C112.852 136.893 112.974 137.361 112.956 137.834C112.938 138.307 112.78 138.765 112.502 139.148C112.224 139.532 111.838 139.824 111.394 139.988C110.799 140.207 110.141 140.181 109.564 139.917C108.988 139.652 108.54 139.169 108.318 138.575Z" fill="#FF95A9"/>
<path d="M164.778 119.889C168.213 119.889 170.999 117.104 170.999 113.668C170.999 110.232 168.213 107.447 164.778 107.447C161.342 107.447 158.557 110.232 158.557 113.668C158.557 117.104 161.342 119.889 164.778 119.889Z" fill="#AB9AF7"/>
<path d="M104.769 135.485C104.283 135.497 103.806 135.614 103.37 135.829C102.934 136.044 102.55 136.351 102.245 136.73C101.94 137.108 101.721 137.548 101.603 138.019C101.485 138.491 101.471 138.982 101.562 139.459C101.653 139.937 101.847 140.388 102.131 140.783C102.414 141.178 102.78 141.506 103.203 141.746C103.626 141.985 104.096 142.129 104.58 142.168C105.064 142.208 105.551 142.141 106.007 141.973L111.395 139.988L110.511 135.347L104.769 135.485Z" fill="#FF95A9"/>
<path d="M140.722 128.873C143.219 128.873 145.244 126.848 145.244 124.351C145.244 121.853 143.219 119.829 140.722 119.829C138.225 119.829 136.2 121.853 136.2 124.351C136.2 126.848 138.225 128.873 140.722 128.873Z" fill="#FF95A9"/>
<path d="M161.881 108.161L138.622 120.349L142.306 128.592L166.95 119.502L161.881 108.161Z" fill="#FAC1B1"/>
<path d="M138.622 120.349L109.451 135.628L111.394 139.988L142.287 128.592L138.622 120.349Z" fill="#FF95A9"/>
<path d="M153.874 233.377C155.593 233.377 156.986 231.983 156.986 230.264C156.986 228.545 155.593 227.151 153.874 227.151C152.154 227.151 150.761 228.545 150.761 230.264C150.761 231.983 152.154 233.377 153.874 233.377Z" fill="#B5B9C6"/>
<path d="M160.177 148.756H182.432L183.629 149.677C185.625 151.228 187.24 153.214 188.35 155.485C189.46 157.755 190.036 160.25 190.035 162.777V167.561C190.033 169.338 189.327 171.041 188.071 172.298C186.815 173.554 185.111 174.26 183.335 174.261H163.995C163.115 174.261 162.244 174.088 161.431 173.751C160.618 173.415 159.879 172.921 159.257 172.299C158.635 171.677 158.142 170.938 157.805 170.125C157.468 169.313 157.295 168.441 157.295 167.561V161.004C157.299 156.754 158.285 152.562 160.177 148.756Z" fill="#312B6B"/>
<path d="M192.198 139.003C192.083 138.116 192.233 137.215 192.629 136.413C193.026 135.611 193.652 134.945 194.427 134.499C195.202 134.053 196.093 133.847 196.985 133.907C197.877 133.967 198.732 134.29 199.441 134.836C200.149 135.382 200.68 136.125 200.966 136.973C201.252 137.82 201.281 138.734 201.048 139.597C200.815 140.461 200.331 141.236 199.657 141.824C198.983 142.413 198.15 142.788 197.263 142.903C196.675 142.98 196.076 142.94 195.503 142.786C194.93 142.631 194.393 142.365 193.922 142.003C193.452 141.641 193.057 141.189 192.761 140.675C192.466 140.16 192.274 139.592 192.198 139.003Z" fill="#FAC1B1"/>
<path d="M193.7 111.941L201.012 137.166L192.526 140.228L182.018 116.154L193.7 111.941Z" fill="#FAC1B1"/>
<path d="M158.583 113.958L160.195 148.76H182.449L191.659 112.208C191.907 111.226 191.756 110.185 191.238 109.314C190.72 108.443 189.878 107.813 188.896 107.562C188.594 107.488 188.285 107.45 187.975 107.447H164.781C163.135 107.453 161.559 108.111 160.397 109.277C159.235 110.443 158.583 112.022 158.583 113.668C158.583 113.764 158.583 113.861 158.583 113.958Z" fill="#00C3FF"/>
<path d="M170.616 111.513C171.041 112.667 171.115 113.921 170.827 115.118C170.54 116.314 169.904 117.398 169.001 118.233C168.098 119.068 166.967 119.616 165.752 119.808C164.537 120.001 163.292 119.829 162.175 119.314C161.058 118.799 160.118 117.965 159.475 116.916C158.832 115.867 158.514 114.651 158.562 113.422C158.61 112.193 159.021 111.006 159.744 110.01C160.467 109.014 161.468 108.255 162.622 107.829C163.389 107.546 164.204 107.416 165.021 107.448C165.837 107.48 166.64 107.672 167.382 108.014C168.125 108.356 168.792 108.841 169.347 109.442C169.902 110.042 170.333 110.746 170.616 111.513Z" fill="#00C3FF"/>
<path d="M170.597 115.869L165.951 128.177L165.85 128.14C165.272 129.667 164.112 130.901 162.624 131.572C161.136 132.243 159.442 132.296 157.916 131.718C156.389 131.141 155.155 129.98 154.484 128.492C153.813 127.004 153.76 125.311 154.338 123.784H154.306L158.961 111.476L170.597 115.869Z" fill="#00C3FF"/>
<path d="M187.718 119.884C191.154 119.884 193.939 117.099 193.939 113.663C193.939 110.227 191.154 107.442 187.718 107.442C184.282 107.442 181.497 110.227 181.497 113.663C181.497 117.099 184.282 119.884 187.718 119.884Z" fill="#00C3FF"/>
<path d="M182.017 116.154L188.868 131.852L198.46 128.389L193.699 111.941L182.017 116.154Z" fill="#00C3FF"/>
<path d="M166.932 119.502L150.866 125.428L146.722 116.108L161.89 108.161L166.932 119.502Z" fill="#00C3FF"/>
<path d="M164.008 174.261C167.709 174.261 170.708 171.262 170.708 167.561C170.708 163.861 167.709 160.862 164.008 160.862C160.308 160.862 157.309 163.861 157.309 167.561C157.309 171.262 160.308 174.261 164.008 174.261Z" fill="#312B6B"/>
<path d="M183.335 174.261C187.035 174.261 190.035 171.262 190.035 167.561C190.035 163.861 187.035 160.862 183.335 160.862C179.634 160.862 176.635 163.861 176.635 167.561C176.635 171.262 179.634 174.261 183.335 174.261Z" fill="#312B6B"/>
<path d="M150.756 230.264H156.977V234.57H148.269C147.915 234.57 147.575 234.429 147.325 234.178C147.074 233.928 146.934 233.588 146.934 233.234C146.933 233 146.995 232.77 147.112 232.567C147.229 232.364 147.398 232.195 147.601 232.078L150.756 230.264Z" fill="#1E2127"/>
<path d="M142.002 174.261C144.993 174.261 147.417 171.837 147.417 168.846C147.417 165.855 144.993 163.431 142.002 163.431C139.011 163.431 136.587 165.855 136.587 168.846C136.587 171.837 139.011 174.261 142.002 174.261Z" fill="#312B6B"/>
<path d="M136.679 170.034L150.801 230.743L156.949 229.776L147.376 168.367L136.679 170.034Z" fill="#312B6B"/>
<path d="M169.539 233.377C171.258 233.377 172.651 231.983 172.651 230.264C172.651 228.545 171.258 227.151 169.539 227.151C167.819 227.151 166.426 228.545 166.426 230.264C166.426 231.983 167.819 233.377 169.539 233.377Z" fill="#B5B9C6"/>
<path d="M166.412 230.264H172.633V234.57H163.93C163.576 234.57 163.236 234.429 162.986 234.178C162.735 233.928 162.595 233.588 162.595 233.234C162.595 233 162.657 232.77 162.774 232.567C162.892 232.364 163.06 232.196 163.262 232.078L166.412 230.264Z" fill="#1E2127"/>
<path d="M157.663 174.261C160.654 174.261 163.078 171.837 163.078 168.846C163.078 165.855 160.654 163.431 157.663 163.431C154.673 163.431 152.248 165.855 152.248 168.846C152.248 171.837 154.673 174.261 157.663 174.261Z" fill="#B5B9C6"/>
<path d="M152.34 170.034L166.463 230.743L172.61 229.776L163.037 168.367L152.34 170.034Z" fill="#312B6B"/>
<path d="M178.025 94.4799H167.499V107.447H178.025V94.4799Z" fill="#FAC1B1"/>
<path d="M172.762 112.71C175.669 112.71 178.025 110.354 178.025 107.447C178.025 104.54 175.669 102.184 172.762 102.184C169.855 102.184 167.499 104.54 167.499 107.447C167.499 110.354 169.855 112.71 172.762 112.71Z" fill="#FAC1B1"/>
<path d="M182.234 100.595C186.374 100.595 189.73 97.2386 189.73 93.0984C189.73 88.9582 186.374 85.6019 182.234 85.6019C178.094 85.6019 174.737 88.9582 174.737 93.0984C174.737 97.2386 178.094 100.595 182.234 100.595Z" fill="#1E2127"/>
<path d="M154.044 83.2765C154.044 80.0052 155.014 76.8073 156.831 74.0873C158.649 71.3673 161.232 69.2473 164.254 67.9954C167.277 66.7435 170.602 66.4159 173.811 67.0542C177.019 67.6924 179.967 69.2677 182.28 71.5808C184.593 73.894 186.168 76.8412 186.806 80.0497C187.445 83.2582 187.117 86.5839 185.865 89.6062C184.613 92.6285 182.493 95.2117 179.773 97.0292C177.053 98.8466 173.855 99.8167 170.584 99.8167L162.153 91.3855C161.088 91.3861 160.033 91.1767 159.049 90.7694C158.065 90.3621 157.171 89.7649 156.418 89.0118C155.665 88.2587 155.067 87.3645 154.66 86.3804C154.253 85.3963 154.043 84.3416 154.044 83.2765Z" fill="#1E2127"/>
<path d="M178.504 91.4407H176.109V86.6564H178.504C179.139 86.6564 179.748 86.9086 180.197 87.3577C180.646 87.8067 180.898 88.4158 180.898 89.0508C180.898 89.3651 180.836 89.6762 180.716 89.9665C180.596 90.2567 180.419 90.5204 180.197 90.7423C179.974 90.9643 179.71 91.1403 179.42 91.2601C179.129 91.3799 178.818 91.4413 178.504 91.4407Z" fill="#FAC1B1"/>
<path d="M160.044 77.5575H178.025V100.775H166.872C165.852 100.777 164.841 100.578 163.898 100.189C162.955 99.8002 162.098 99.229 161.376 98.5082C160.654 97.7875 160.081 96.9313 159.69 95.9887C159.3 95.0462 159.099 94.0358 159.1 93.0156C159.1 92.859 159.1 92.6979 159.1 92.5551L160.044 77.5575Z" fill="#FAC1B1"/>
<path d="M178.025 86.6564H178.485V72.8422H164.257C163.362 72.8422 162.475 73.0186 161.648 73.3615C160.821 73.7043 160.07 74.2068 159.438 74.8401C158.805 75.4735 158.304 76.2254 157.962 77.0527C157.62 77.8801 157.445 78.7666 157.446 79.6618V79.9334H157.907C161.982 79.9341 165.946 81.2629 169.198 83.7185C171.735 85.635 174.827 86.6728 178.006 86.6748L178.025 86.6564Z" fill="#1E2127"/>
<path d="M168.286 140.094H145.313V142.968H168.286V140.094Z" fill="white"/>
<path d="M147.169 142.963H101.223V142.912L100.891 135.752L99.7031 110.182H145.645L146.837 135.807L147.169 142.963Z" fill="#B5B9C6"/>
<path d="M125.892 128.957C127.156 127.663 127.081 125.542 125.726 124.218C124.371 122.894 122.248 122.869 120.984 124.162C119.721 125.456 119.795 127.578 121.15 128.902C122.506 130.226 124.628 130.25 125.892 128.957Z" fill="white"/>
<path d="M147.169 142.968H100.892L101.219 142.912L146.833 135.807L147.169 142.968Z" fill="#DDDEDF"/>
<path d="M163.216 160.908L141.362 163.468L142.007 174.261H164.013L163.216 160.908Z" fill="#312B6B"/>
<path d="M161.476 139.781C161.321 140.229 161.302 140.712 161.421 141.17C161.541 141.628 161.794 142.041 162.148 142.355C162.502 142.669 162.941 142.872 163.41 142.937C163.879 143.002 164.357 142.926 164.783 142.719C165.209 142.513 165.564 142.185 165.804 141.776C166.043 141.368 166.156 140.897 166.129 140.425C166.101 139.952 165.934 139.498 165.648 139.121C165.362 138.743 164.971 138.458 164.524 138.303C163.924 138.096 163.266 138.135 162.694 138.412C162.123 138.689 161.685 139.182 161.476 139.781Z" fill="#FF95A9"/>
<path d="M156.899 142.747C157.248 142.867 157.615 142.93 157.985 142.931H163.732L164.524 138.275L159.1 136.392C158.257 136.101 157.333 136.156 156.531 136.546C155.729 136.936 155.115 137.628 154.824 138.471C154.533 139.314 154.588 140.238 154.978 141.039C155.368 141.841 156.06 142.455 156.903 142.747H156.899Z" fill="#FAC1B1"/>
<path d="M196.665 142.94H163.736L163.428 138.174L196.084 133.919L196.665 142.94Z" fill="#FAC1B1"/>
<path d="M184.554 120.75L183.676 121.133L188.434 132.034L189.312 131.651L184.554 120.75Z" fill="#00A8EA"/>
<path d="M160.052 132.676C159.016 132.676 157.994 132.433 157.068 131.966C156.142 131.5 155.339 130.823 154.722 129.989C154.106 129.156 153.693 128.19 153.518 127.168C153.342 126.147 153.409 125.098 153.712 124.107L153.864 123.609L156.668 116.191L157.566 116.532L154.941 123.462L154.78 123.964C154.441 124.825 154.317 125.756 154.42 126.676C154.523 127.596 154.849 128.477 155.37 129.242C155.891 130.007 156.592 130.633 157.41 131.065C158.229 131.498 159.14 131.724 160.066 131.723C160.492 131.722 160.917 131.674 161.332 131.58L161.544 132.501C161.055 132.613 160.554 132.671 160.052 132.676Z" fill="#00A8EA"/>
<path d="M167.172 93.3839C167.172 94.0825 166.895 94.7524 166.401 95.2464C165.907 95.7403 165.237 96.0178 164.538 96.0178C163.84 96.0178 163.17 95.7403 162.676 95.2464C162.182 94.7524 161.904 94.0825 161.904 93.3839H167.172Z" fill="white"/>
<path d="M190.034 234.57H153.873V235.527H190.034V234.57Z" fill="#B5B9C6"/>
<path d="M202.205 234.57H195.39V235.527H202.205V234.57Z" fill="#B5B9C6"/>
<path d="M146.124 110.152L145.167 110.197L146.696 142.979L147.653 142.935L146.124 110.152Z" fill="white"/>
<path d="M96.9403 142.963L96.42 147.747L86.9204 234.57H84.5029L91.6449 142.963H96.9403Z" fill="#DDDEDF"/>
<path d="M267.836 142.963L268.338 147.747L277.847 234.57H280.264L273.131 142.963H267.836Z" fill="#DDDEDF"/>
<path d="M277.441 142.963H86.7363V147.747H277.441V142.963Z" fill="#B5B9C6"/>
<path d="M98.1883 147.273H86.7363V148.231H98.1883V147.273Z" fill="#1E2127"/>
<path d="M235.4 147.273H129.224V148.231H235.4V147.273Z" fill="#1E2127"/>
<path d="M277.441 147.273H249.914V148.231H277.441V147.273Z" fill="#1E2127"/>
<path d="M245.07 147.273H240.654V148.231H245.07V147.273Z" fill="#1E2127"/>
<path d="M242.947 130.171H241.989V142.963H242.947V130.171Z" fill="#B5B9C6"/>
<path d="M224.892 91.2842L209.31 81.0432C211.257 78.0778 217.064 73.5007 221.659 72.2528L225.762 66.0088L232.163 70.2129L228.06 76.4569C228.728 81.1768 226.835 88.3233 224.892 91.2842Z" fill="#DDDEDF"/>
<path d="M213.841 78.985L213.196 78.2805C215.411 76.3695 218.865 74.0303 221.908 73.2153L222.258 73.1186L225.772 67.7725L226.573 68.302L222.862 73.9474L222.162 74.1408C219.744 74.767 216.549 76.6366 213.841 78.985Z" fill="white"/>
<path d="M211.75 81.0156L211.027 80.3848C211.363 80.0026 211.746 79.602 212.169 79.1968L212.832 79.8875C212.432 80.2743 212.068 80.6519 211.75 81.0156Z" fill="white"/>
<path d="M225.288 91.5512L224.486 91.0216C226.448 88.0378 228.23 81.057 227.585 76.5305L227.558 76.351L231.762 69.9596L232.558 70.4845L228.575 76.5766C229.16 81.3103 227.314 88.4614 225.288 91.5512Z" fill="#B5B9C6"/>
<path d="M222.411 72.1884L221.885 72.9889L223.009 73.7271L223.534 72.9266L222.411 72.1884Z" fill="#B5B9C6"/>
<path d="M224.361 73.4564L223.835 74.257L227.784 76.8508L228.31 76.0503L224.361 73.4564Z" fill="#B5B9C6"/>
<path d="M253.473 140.094H231.458V142.968H253.473V140.094Z" fill="#DDDEDF"/>
<path d="M239.282 139.615H236.823V140.573H239.282V139.615Z" fill="#B5B9C6"/>
<path d="M253.478 139.615H240.419V140.573H253.478V139.615Z" fill="#B5B9C6"/>
<path d="M208.886 226.972L209.438 229.311L208.886 226.972Z" fill="white"/>
<path d="M209.367 226.839L208.436 227.061L208.991 229.399L209.923 229.178L209.367 226.839Z" fill="#B5B9C6"/>
<path d="M201.054 193.97L208.375 224.821L201.054 193.97Z" fill="white"/>
<path d="M201.521 193.86L200.589 194.081L207.908 224.924L208.84 224.703L201.521 193.86Z" fill="#B5B9C6"/>
<path d="M273.729 150.648L276.732 189.167L273.729 150.648Z" fill="white"/>
<path d="M274.205 150.615L273.25 150.689L276.254 189.206L277.209 189.131L274.205 150.615Z" fill="#B5B9C6"/>
<path d="M277.008 192.722L277.266 195.991L277.008 192.722Z" fill="white"/>
<path d="M277.498 192.666L276.543 192.74L276.798 196.009L277.753 195.934L277.498 192.666Z" fill="#B5B9C6"/>
<path d="M124.435 82.2313C131.485 82.2313 137.2 76.5165 137.2 69.4669C137.2 62.4174 131.485 56.7026 124.435 56.7026C117.386 56.7026 111.671 62.4174 111.671 69.4669C111.671 76.5165 117.386 82.2313 124.435 82.2313Z" fill="#F9F9F9" stroke="#DFE2EA" stroke-miterlimit="10"/>
<path d="M140.46 50.7165C147.509 50.7165 153.224 45.0017 153.224 37.9522C153.224 30.9026 147.509 25.1879 140.46 25.1879C133.41 25.1879 127.695 30.9026 127.695 37.9522C127.695 45.0017 133.41 50.7165 140.46 50.7165Z" fill="#F9F9F9" stroke="#DFE2EA" stroke-miterlimit="10"/>
<path d="M169.898 25.7588C176.948 25.7588 182.662 20.0441 182.662 12.9945C182.662 5.945 176.948 0.230225 169.898 0.230225C162.849 0.230225 157.134 5.945 157.134 12.9945C157.134 20.0441 162.849 25.7588 169.898 25.7588Z" fill="#F9F9F9" stroke="#DFE2EA" stroke-miterlimit="10"/>
<path d="M169.11 21.5179L169.137 19.3168C167.907 19.2923 166.705 18.9394 165.656 18.2946L166.223 16.8487C167.203 17.4722 168.335 17.8162 169.497 17.8433C171.113 17.8755 172.218 17.0006 172.232 15.7619C172.246 14.5233 171.362 13.8049 169.685 13.1188C167.383 12.1979 165.942 11.1756 165.96 9.27849C165.983 7.47344 167.342 6.12425 169.441 5.83876L169.469 3.6377L170.878 3.68374V5.79731C171.913 5.82544 172.926 6.10517 173.83 6.61235L173.245 8.03982C172.377 7.52745 171.389 7.25417 170.381 7.2478C168.626 7.21097 167.954 8.20559 167.945 9.0897C167.945 10.2179 168.769 10.8027 170.744 11.6269C173.084 12.5801 174.258 13.7359 174.235 15.6791C174.235 17.3966 172.946 18.9853 170.593 19.3122L170.556 21.5455L169.11 21.5179Z" fill="#B5B9C6"/>
<path d="M146.437 43.3213H138.498C138.086 43.2686 137.707 43.0674 137.433 42.7555C137.158 42.4436 137.007 42.0423 137.007 41.6268C137.007 41.2113 137.158 40.81 137.433 40.4981C137.707 40.1861 138.086 39.985 138.498 39.9323H146.437C146.53 39.9323 146.619 39.9691 146.684 40.0348C146.75 40.1004 146.787 40.1894 146.787 40.2822C146.787 40.375 146.75 40.464 146.684 40.5297C146.619 40.5953 146.53 40.6322 146.437 40.6322H138.498C138.278 40.6888 138.082 40.8173 137.942 40.9974C137.803 41.1775 137.727 41.3989 137.727 41.6268C137.727 41.8547 137.803 42.0761 137.942 42.2562C138.082 42.4363 138.278 42.5648 138.498 42.6214H146.437C146.53 42.6214 146.619 42.6583 146.684 42.7239C146.75 42.7895 146.787 42.8786 146.787 42.9714C146.787 43.0642 146.75 43.1532 146.684 43.2188C146.619 43.2845 146.53 43.3213 146.437 43.3213Z" fill="#B5B9C6"/>
<path d="M137.969 40.4756C137.897 40.4752 137.828 40.4529 137.769 40.4118C137.711 40.3706 137.666 40.3125 137.642 40.2453C136.9 38.2285 134.773 32.7903 133.857 31.8463C133.618 31.5473 133.27 31.3552 132.89 31.3122C132.708 31.3158 132.534 31.3863 132.402 31.5102C132.338 31.5669 132.255 31.5983 132.17 31.5983C132.084 31.5984 132.001 31.5671 131.937 31.5105C131.873 31.4538 131.832 31.3756 131.822 31.2907C131.812 31.2058 131.833 31.1201 131.881 31.0497C132.139 30.7839 132.492 30.6302 132.862 30.6215C133.149 30.6342 133.429 30.7068 133.686 30.8345C133.943 30.9621 134.171 31.1421 134.354 31.3628C135.565 32.6061 138.185 39.7112 138.296 40.0105C138.313 40.0543 138.322 40.1011 138.321 40.1483C138.32 40.1954 138.309 40.2419 138.29 40.2849C138.271 40.3279 138.243 40.3666 138.208 40.3985C138.174 40.4305 138.133 40.4552 138.088 40.471C138.049 40.4795 138.009 40.481 137.969 40.4756Z" fill="#B5B9C6"/>
<path d="M139.157 46.0841C138.813 46.0851 138.477 45.984 138.191 45.7938C137.905 45.6036 137.682 45.3328 137.549 45.0157C137.417 44.6986 137.382 44.3494 137.449 44.0123C137.515 43.6753 137.68 43.3655 137.923 43.1223C138.165 42.879 138.475 42.7132 138.812 42.6459C139.148 42.5785 139.498 42.6126 139.815 42.7439C140.133 42.8751 140.404 43.0976 140.595 43.3832C140.786 43.6688 140.888 44.0046 140.888 44.3482C140.889 44.5759 140.844 44.8016 140.758 45.0121C140.671 45.2227 140.543 45.4141 140.383 45.5754C140.222 45.7367 140.031 45.8646 139.82 45.9519C139.61 46.0392 139.384 46.0841 139.157 46.0841ZM139.157 43.3213C138.951 43.3204 138.751 43.3804 138.58 43.4937C138.409 43.607 138.275 43.7685 138.196 43.9577C138.117 44.1469 138.096 44.3554 138.135 44.5567C138.175 44.7579 138.273 44.943 138.418 45.0883C138.562 45.2337 138.747 45.3328 138.948 45.3732C139.149 45.4135 139.358 45.3933 139.547 45.315C139.737 45.2367 139.899 45.1039 140.013 44.9334C140.127 44.763 140.188 44.5625 140.188 44.3574C140.188 44.0838 140.079 43.8215 139.886 43.628C139.693 43.4346 139.43 43.3259 139.157 43.3259V43.3213Z" fill="#B5B9C6"/>
<path d="M146.423 46.0842C146.079 46.0842 145.744 45.9823 145.458 45.7916C145.173 45.6008 144.95 45.3297 144.819 45.0125C144.687 44.6953 144.653 44.3462 144.72 44.0095C144.787 43.6727 144.952 43.3634 145.195 43.1206C145.438 42.8779 145.747 42.7125 146.084 42.6455C146.421 42.5786 146.77 42.6129 147.087 42.7443C147.404 42.8757 147.675 43.0982 147.866 43.3837C148.057 43.6692 148.158 44.0048 148.158 44.3482C148.158 44.8086 147.976 45.2501 147.65 45.5757C147.324 45.9013 146.883 46.0842 146.423 46.0842ZM146.423 43.3213C146.218 43.3213 146.017 43.3821 145.847 43.4959C145.677 43.6098 145.544 43.7716 145.465 43.9609C145.387 44.1502 145.366 44.3585 145.406 44.5595C145.446 44.7605 145.545 44.9451 145.69 45.09C145.835 45.2349 146.019 45.3336 146.22 45.3735C146.421 45.4135 146.63 45.393 146.819 45.3146C147.008 45.2362 147.17 45.1034 147.284 44.933C147.398 44.7626 147.459 44.5623 147.459 44.3574C147.459 44.2211 147.433 44.0861 147.381 43.9602C147.329 43.8342 147.253 43.7197 147.156 43.6234C147.06 43.5271 146.946 43.4508 146.82 43.3989C146.694 43.3471 146.559 43.3207 146.423 43.3213Z" fill="#B5B9C6"/>
<path d="M148.356 34.4618H135.721C135.628 34.4618 135.539 34.4249 135.474 34.3593C135.408 34.2936 135.371 34.2046 135.371 34.1118C135.371 34.019 135.408 33.93 135.474 33.8643C135.539 33.7987 135.628 33.7618 135.721 33.7618H148.356C148.449 33.7618 148.538 33.7987 148.604 33.8643C148.67 33.93 148.706 34.019 148.706 34.1118C148.706 34.2046 148.67 34.2936 148.604 34.3593C148.538 34.4249 148.449 34.4618 148.356 34.4618Z" fill="#B5B9C6"/>
<path d="M146.436 40.6322C146.39 40.6322 146.345 40.6231 146.302 40.6056C146.26 40.588 146.221 40.5622 146.189 40.5297C146.156 40.4972 146.131 40.4586 146.113 40.4162C146.095 40.3737 146.086 40.3282 146.086 40.2822C146.082 40.2471 146.082 40.2115 146.086 40.1763L148.007 34.0106C148.02 33.9665 148.042 33.9254 148.072 33.8898C148.101 33.8543 148.137 33.8248 148.178 33.8033C148.219 33.7817 148.264 33.7683 148.31 33.764C148.356 33.7597 148.402 33.7645 148.446 33.7781C148.49 33.7917 148.531 33.8138 148.567 33.8433C148.603 33.8728 148.632 33.9089 148.654 33.9498C148.675 33.9906 148.689 34.0353 148.693 34.0813C148.697 34.1273 148.692 34.1737 148.679 34.2178L146.759 40.3881C146.736 40.4568 146.693 40.517 146.636 40.5606C146.578 40.6042 146.509 40.6292 146.436 40.6322Z" fill="#B5B9C6"/>
<path d="M138.281 40.5217C138.188 40.5217 138.099 40.485 138.032 40.4195C137.966 40.354 137.928 40.2649 137.927 40.1717V34.1856C137.937 34.0991 137.978 34.0193 138.043 33.9613C138.108 33.9034 138.192 33.8713 138.279 33.8713C138.366 33.8713 138.45 33.9034 138.515 33.9613C138.58 34.0193 138.621 34.0991 138.631 34.1856V40.1671C138.631 40.2599 138.594 40.3489 138.529 40.4146C138.463 40.4802 138.374 40.5171 138.281 40.5171V40.5217Z" fill="#B5B9C6"/>
<path d="M140.98 40.5216C140.887 40.5216 140.798 40.4848 140.732 40.4191C140.667 40.3535 140.63 40.2645 140.63 40.1717V34.1855C140.63 34.0927 140.667 34.0037 140.732 33.9381C140.798 33.8724 140.887 33.8356 140.98 33.8356C141.073 33.8356 141.162 33.8724 141.227 33.9381C141.293 34.0037 141.33 34.0927 141.33 34.1855V40.1717C141.33 40.2174 141.322 40.2628 141.305 40.3053C141.288 40.3477 141.262 40.3863 141.23 40.4189C141.198 40.4514 141.16 40.4773 141.118 40.4949C141.075 40.5126 141.03 40.5216 140.984 40.5216H140.98Z" fill="#B5B9C6"/>
<path d="M143.683 40.5216C143.59 40.5216 143.501 40.4848 143.436 40.4191C143.37 40.3535 143.333 40.2645 143.333 40.1717V34.1855C143.333 34.0927 143.37 34.0037 143.436 33.9381C143.501 33.8724 143.59 33.8356 143.683 33.8356C143.776 33.8356 143.865 33.8724 143.93 33.9381C143.996 34.0037 144.033 34.0927 144.033 34.1855V40.1717C144.033 40.2645 143.996 40.3535 143.93 40.4191C143.865 40.4848 143.776 40.5216 143.683 40.5216Z" fill="#B5B9C6"/>
<path d="M146.386 40.5216C146.293 40.5216 146.204 40.4848 146.139 40.4191C146.073 40.3535 146.036 40.2645 146.036 40.1717V34.1855C146.036 34.0927 146.073 34.0037 146.139 33.9381C146.204 33.8724 146.293 33.8356 146.386 33.8356C146.479 33.8356 146.568 33.8724 146.634 33.9381C146.699 34.0037 146.736 34.0927 146.736 34.1855V40.1717C146.736 40.2645 146.699 40.3535 146.634 40.4191C146.568 40.4848 146.479 40.5216 146.386 40.5216Z" fill="#B5B9C6"/>
<path d="M147.601 36.4419H136.55C136.504 36.4419 136.459 36.4328 136.416 36.4152C136.374 36.3976 136.335 36.3719 136.303 36.3394C136.27 36.3069 136.244 36.2683 136.227 36.2258C136.209 36.1834 136.2 36.1379 136.2 36.0919C136.2 36.0459 136.209 36.0004 136.227 35.958C136.244 35.9155 136.27 35.8769 136.303 35.8444C136.335 35.8119 136.374 35.7862 136.416 35.7686C136.459 35.751 136.504 35.7419 136.55 35.7419H147.601C147.647 35.7419 147.693 35.751 147.735 35.7686C147.778 35.7862 147.816 35.8119 147.849 35.8444C147.881 35.8769 147.907 35.9155 147.925 35.958C147.942 36.0004 147.951 36.0459 147.951 36.0919C147.951 36.1379 147.942 36.1834 147.925 36.2258C147.907 36.2683 147.881 36.3069 147.849 36.3394C147.816 36.3719 147.778 36.3976 147.735 36.4152C147.693 36.4328 147.647 36.4419 147.601 36.4419Z" fill="#B5B9C6"/>
<path d="M146.851 38.5002H137.452C137.36 38.5002 137.271 38.4633 137.205 38.3977C137.139 38.3321 137.103 38.2431 137.103 38.1503C137.103 38.0574 137.139 37.9684 137.205 37.9028C137.271 37.8372 137.36 37.8003 137.452 37.8003H146.851C146.944 37.8003 147.033 37.8372 147.098 37.9028C147.164 37.9684 147.201 38.0574 147.201 38.1503C147.201 38.2431 147.164 38.3321 147.098 38.3977C147.033 38.4633 146.944 38.5002 146.851 38.5002Z" fill="#B5B9C6"/>
<path d="M132.521 33.4027C132.273 33.4027 132.031 33.3292 131.825 33.1916C131.619 33.054 131.459 32.8584 131.364 32.6295C131.269 32.4006 131.244 32.1488 131.293 31.9058C131.341 31.6629 131.46 31.4397 131.635 31.2645C131.811 31.0894 132.034 30.9701 132.277 30.9218C132.52 30.8734 132.771 30.8982 133 30.993C133.229 31.0878 133.425 31.2484 133.562 31.4543C133.7 31.6603 133.774 31.9025 133.774 32.1502C133.774 32.3148 133.742 32.478 133.679 32.6302C133.617 32.7824 133.524 32.9208 133.408 33.0372C133.292 33.1536 133.153 33.2459 133.001 33.3086C132.849 33.3713 132.686 33.4033 132.521 33.4027ZM132.521 31.5976C132.412 31.5976 132.305 31.63 132.214 31.6907C132.123 31.7515 132.052 31.8378 132.011 31.9387C131.969 32.0397 131.958 32.1508 131.979 32.258C132 32.3652 132.053 32.4636 132.13 32.5409C132.208 32.6182 132.306 32.6708 132.413 32.6921C132.52 32.7135 132.632 32.7025 132.732 32.6607C132.833 32.6189 132.92 32.5481 132.98 32.4572C133.041 32.3663 133.074 32.2595 133.074 32.1502C133.072 32.004 133.014 31.8642 132.91 31.7608C132.807 31.6574 132.667 31.5988 132.521 31.5976Z" fill="#B5B9C6"/>
<path d="M124.002 75.5683C123.302 75.6319 122.595 75.5487 121.928 75.3241C121.261 75.0995 120.648 74.7384 120.129 74.2638C119.609 73.7892 119.194 73.2115 118.91 72.5675C118.626 71.9236 118.479 71.2276 118.479 70.5238C118.479 69.8201 118.626 69.124 118.91 68.4801C119.194 67.8362 119.609 67.2585 120.129 66.7839C120.648 66.3092 121.261 65.9481 121.928 65.7235C122.595 65.4989 123.302 65.4157 124.002 65.4793C124.381 65.4785 124.758 65.5217 125.126 65.6083C125.174 65.6195 125.22 65.6401 125.26 65.6689C125.301 65.6978 125.335 65.7343 125.361 65.7764C125.388 65.8185 125.406 65.8654 125.414 65.9144C125.422 65.9634 125.42 66.0135 125.409 66.0618C125.398 66.1102 125.377 66.1559 125.348 66.1963C125.32 66.2367 125.283 66.2711 125.241 66.2974C125.199 66.3237 125.152 66.3414 125.103 66.3496C125.054 66.3578 125.004 66.3562 124.956 66.345C124.13 66.1573 123.268 66.2186 122.478 66.521C121.687 66.8235 121.004 67.3536 120.515 68.0442C120.026 68.7349 119.753 69.5551 119.73 70.401C119.708 71.247 119.936 72.0807 120.387 72.7966C120.839 73.5126 121.492 74.0787 122.265 74.4233C123.038 74.7679 123.895 74.8755 124.73 74.7325C125.564 74.5895 126.337 74.2024 126.951 73.62C127.565 73.0376 127.992 72.2863 128.179 71.4609C128.336 70.7835 128.321 70.0777 128.137 69.4072C128.126 69.3582 128.124 69.3074 128.132 69.2577C128.14 69.208 128.158 69.1604 128.184 69.1176C128.211 69.0748 128.246 69.0377 128.287 69.0084C128.328 68.979 128.374 68.9581 128.423 68.9467C128.518 68.921 128.62 68.9336 128.706 68.9818C128.792 69.03 128.856 69.11 128.883 69.2046C129.226 70.4971 129.043 71.8726 128.376 73.0311C127.708 74.1895 126.609 75.037 125.319 75.3887C124.89 75.507 124.447 75.5674 124.002 75.5683Z" fill="#B5B9C6"/>
<path d="M123.943 71.6082C123.849 71.6098 123.758 71.5752 123.689 71.5115L120.926 69.0249C120.888 68.9933 120.856 68.9544 120.832 68.9104C120.809 68.8663 120.794 68.8181 120.79 68.7684C120.785 68.7188 120.79 68.6686 120.805 68.621C120.82 68.5733 120.844 68.5291 120.876 68.4908C120.907 68.452 120.945 68.4197 120.988 68.3959C121.032 68.3721 121.08 68.3572 121.129 68.352C121.178 68.3469 121.228 68.3516 121.276 68.366C121.323 68.3803 121.367 68.4039 121.405 68.4355L121.433 68.4632L123.901 70.6919L130.145 63.7249C130.213 63.6513 130.307 63.6072 130.407 63.6021C130.506 63.5969 130.604 63.6311 130.679 63.6973C130.716 63.7305 130.746 63.7707 130.768 63.8155C130.789 63.8603 130.801 63.909 130.804 63.9586C130.807 64.0082 130.799 64.0579 130.783 64.1047C130.766 64.1515 130.74 64.1946 130.707 64.2314L124.214 71.4839C124.147 71.5595 124.053 71.6058 123.952 71.6128L123.943 71.6082Z" fill="#B5B9C6"/>
</g>
<defs>
<clipPath id="clip0_2177_63470">
<rect width="310.359" height="250" fill="white" transform="translate(0.641602)"/>
</clipPath>
</defs>
</svg>
