<svg width="49" height="48" viewBox="0 0 49 48" fill="none" xmlns="http://www.w3.org/2000/svg">
<path d="M29.627 11.9055V20.121L32.501 21.9285C32.6047 21.9513 32.7122 21.9513 32.816 21.9285L45.173 13.5975C45.1639 13.1932 45.016 12.8043 44.7541 12.4962C44.4921 12.188 44.1321 11.9795 43.7345 11.9055H29.627Z" fill="#0072C6"/>
<path d="M29.6277 23.1855L32.2482 24.9855C32.3709 25.0602 32.5118 25.0997 32.6554 25.0997C32.7991 25.0997 32.94 25.0602 33.0627 24.9855C32.6127 25.257 45.1722 16.9185 45.1722 16.9185V32.0175C45.2049 32.3234 45.1704 32.6328 45.0711 32.9241C44.9718 33.2153 44.81 33.4813 44.5971 33.7035C44.3842 33.9256 44.1254 34.0986 43.8387 34.2103C43.5519 34.322 43.2443 34.3696 42.9372 34.35H29.6262V23.1855H29.6277ZM16.0617 19.398C15.6263 19.3959 15.1984 19.5116 14.8234 19.7329C14.4485 19.9542 14.1403 20.2728 13.9317 20.655C13.3619 21.668 13.0884 22.8209 13.1427 23.982C13.0835 25.1406 13.3573 26.292 13.9317 27.3C14.1394 27.6664 14.44 27.9717 14.8031 28.1852C15.1663 28.3987 15.5792 28.5128 16.0004 28.5162C16.4216 28.5195 16.8363 28.4119 17.2028 28.2042C17.5693 27.9965 17.8746 27.6961 18.0882 27.333C18.6564 26.3296 18.9245 25.1842 18.8607 24.033C18.9258 22.8455 18.6665 21.6628 18.1107 20.6115C17.9121 20.2418 17.6162 19.9333 17.2551 19.7195C16.894 19.5056 16.4814 19.3944 16.0617 19.398V19.398Z" fill="#0072C6"/>
<path d="M3.63086 7.7325V39.873L28.0809 45V3L3.63086 7.7325ZM19.9929 29.2365C19.5355 29.8813 18.9273 30.4044 18.2214 30.7602C17.5155 31.1161 16.7332 31.2938 15.9429 31.278C15.1724 31.2917 14.41 31.1191 13.7205 30.7749C13.0311 30.4307 12.435 29.9251 11.9829 29.301C10.9106 27.804 10.3743 25.9893 10.4604 24.15C10.3691 22.2205 10.9152 20.3145 12.0144 18.726C12.4775 18.0689 13.0952 17.5358 13.813 17.1738C14.5308 16.8118 15.3266 16.6319 16.1304 16.65C16.8953 16.6347 17.6522 16.8073 18.3348 17.1528C19.0174 17.4983 19.6048 18.006 20.0454 18.6315C21.1069 20.161 21.6341 21.9979 21.5454 23.8575C21.6389 25.7731 21.0927 27.6654 19.9929 29.2365Z" fill="#0072C6"/>
</svg>
