<svg width="124" height="32" viewBox="0 0 124 32" fill="none" xmlns="http://www.w3.org/2000/svg">
<path d="M39.668 25.1973L41.2167 21.5284C42.8903 22.8023 45.1133 23.4649 47.3117 23.4649C48.9353 23.4649 49.9596 22.8278 49.9596 21.8598C49.9346 19.1592 40.2424 21.2737 40.1675 14.4966C40.1425 11.0572 43.1403 8.40752 47.3866 8.40752C49.9096 8.40752 52.4326 9.04435 54.2311 10.4966L52.7823 14.2419C51.1337 13.1717 49.0854 12.4075 47.1368 12.4075C45.8129 12.4075 44.9388 13.0444 44.9388 13.8598C44.9637 16.5095 54.7308 15.0573 54.8308 21.5284C54.8308 25.0445 51.9081 27.5159 47.7115 27.5159C44.6388 27.5159 41.8161 26.7769 39.668 25.1973ZM99.0951 20.2036L103.367 22.624C101.768 25.5539 98.7204 27.5159 95.1982 27.5159C90.0273 27.5159 85.8307 23.2356 85.8307 17.9617C85.8307 12.6878 90.0273 8.40752 95.1982 8.40752C98.6954 8.40752 101.768 10.3947 103.367 13.2994L99.0951 15.7196C98.3206 14.3438 96.8718 13.4012 95.1982 13.4012C92.7251 13.4012 90.7268 15.4393 90.7268 17.9617C90.7268 20.484 92.7251 22.5221 95.1982 22.5221C96.8718 22.5221 98.3206 21.5794 99.0948 20.2036H99.0951ZM56.9789 0.483887H62.3246V27.159H56.9789V0.483887ZM105.465 0.483887H110.811V16.1526L116.856 8.78962H123.4L115.931 17.6558L124 27.159H117.155L110.811 19.1592V27.159H105.465V0.483887ZM78.2119 20.2548V15.745C77.4374 14.4202 75.8388 13.4012 74.0403 13.4012C71.567 13.4012 69.569 15.4393 69.569 17.9617C69.569 20.484 71.567 22.5221 74.0403 22.5221C75.8388 22.5221 77.4374 21.5539 78.2119 20.2545V20.2548ZM78.2119 8.78987H83.5576V27.1338H78.2119V24.9683C77.3375 26.4715 75.1642 27.5161 72.8912 27.5161C68.1948 27.5161 64.498 23.2359 64.498 17.9365C64.498 12.6371 68.1948 8.40777 72.8912 8.40777C75.1642 8.40777 77.3375 9.45242 78.2119 10.9556V8.78937V8.78987Z" fill="black"/>
<path d="M6.61915 20.2292C6.61915 22.089 5.14536 23.5924 3.32166 23.5924C2.88853 23.5928 2.45956 23.5061 2.05932 23.3372C1.65907 23.1683 1.29541 22.9206 0.989147 22.6082C0.682883 22.2958 0.440031 21.9249 0.27449 21.5167C0.108949 21.1085 0.0239692 20.6709 0.0244158 20.2292C0.0244158 18.3694 1.49821 16.8662 3.32166 16.8662H6.61915V20.2292ZM8.26778 20.2292C8.26778 18.3694 9.74157 16.8662 11.565 16.8662C13.3885 16.8662 14.8625 18.3694 14.8625 20.2292V28.6368C14.8625 30.4966 13.3887 32 11.565 32C11.1319 32.0004 10.703 31.9136 10.3028 31.7448C9.90254 31.5759 9.5389 31.3282 9.23267 31.0158C8.92643 30.7034 8.6836 30.3325 8.51807 29.9243C8.35255 29.516 8.26757 29.0785 8.26802 28.6368V20.2292H8.26778Z" fill="#E01E5A"/>
<path d="M11.5656 6.72615C11.1325 6.72654 10.7035 6.63981 10.3033 6.47093C9.9031 6.30204 9.53947 6.05432 9.23323 5.74193C8.92699 5.42955 8.68416 5.05863 8.51863 4.65042C8.35311 4.2422 8.26814 3.8047 8.26858 3.36295C8.26834 1.50316 9.74214 0 11.5656 0C13.389 0 14.8631 1.50316 14.8631 3.36295V6.72615H11.5656ZM11.5656 8.4331C13.389 8.4331 14.8631 9.93626 14.8631 11.7961C14.8631 13.6558 13.3893 15.1592 11.5656 15.1592H3.29725C2.86411 15.1597 2.43514 15.073 2.0349 14.9041C1.63466 14.7352 1.271 14.4875 0.964733 14.1751C0.658469 13.8627 0.415617 13.4918 0.250076 13.0836C0.0845345 12.6753 -0.000444817 12.2378 1.75093e-06 11.7961C1.75093e-06 9.93626 1.4738 8.43335 3.29725 8.43335H11.5658L11.5656 8.4331Z" fill="#36C5F0"/>
<path d="M24.7805 11.7961C24.7805 9.93626 26.2543 8.4331 28.0777 8.4331C29.9012 8.4331 31.3752 9.93626 31.3752 11.7961C31.3752 13.6558 29.9014 15.1592 28.0777 15.1592H24.7805V11.7961ZM23.1316 11.7961C23.1316 13.6558 21.6581 15.1592 19.8344 15.1592C19.4012 15.1597 18.9723 15.073 18.572 14.9041C18.1718 14.7352 17.8081 14.4875 17.5018 14.1751C17.1956 13.8627 16.9527 13.4918 16.7872 13.0836C16.6216 12.6753 16.5367 12.2378 16.5371 11.7961V3.36295C16.5371 1.50316 18.0109 0 19.8344 0C21.6578 0 23.1318 1.50316 23.1318 3.36295V11.7963L23.1316 11.7961Z" fill="#2EB67D"/>
<path d="M19.8344 25.2738C21.6578 25.2738 23.1318 26.777 23.1318 28.6368C23.1318 30.4966 21.6581 32 19.8344 32C19.4012 32.0004 18.9723 31.9137 18.572 31.7448C18.1718 31.576 17.8081 31.3282 17.5018 31.0159C17.1956 30.7035 16.9527 30.3325 16.7872 29.9243C16.6216 29.5161 16.5367 29.0786 16.5371 28.6368V25.2738H19.8344ZM19.8344 23.5921C19.4012 23.5925 18.9723 23.5058 18.5721 23.337C18.1718 23.1681 17.8082 22.9204 17.5019 22.6081C17.1957 22.2957 16.9528 21.9248 16.7873 21.5166C16.6217 21.1084 16.5367 20.6709 16.5371 20.2292C16.5371 18.3694 18.0109 16.8662 19.8344 16.8662H28.1029C29.9264 16.8662 31.4002 18.3694 31.4002 20.2292C31.4002 22.089 29.9264 23.5924 28.1027 23.5924H19.8344V23.5921Z" fill="#ECB22E"/>
</svg>
