<svg width="269" height="156" viewBox="0 0 269 156" fill="none" xmlns="http://www.w3.org/2000/svg">
<path d="M4.58588 47.9314C6.67731 47.9314 8.35732 46.2171 8.35732 44.1257C8.35732 42.0343 6.67731 40.32 4.58588 40.32C2.49445 40.32 0.814453 42.0343 0.814453 44.1257C0.814453 46.2514 2.49445 47.9314 4.58588 47.9314Z" fill="#009CDD"/>
<path d="M27.1117 11.52H20.5631V4.86855V1.64569C20.5631 1.06283 20.0489 0.582832 19.4317 0.582832H15.4889C15.1803 0.582832 14.906 0.685689 14.7003 0.891404C14.4946 1.09712 14.3574 1.3714 14.3574 1.64569V7.57712V38.7086C14.3574 41.2457 15.0774 43.5086 16.6889 45.2229C18.2317 46.9029 20.7003 47.9314 23.546 47.9314H25.4317V47.8972H27.0774C27.3517 47.8972 27.6603 47.76 27.8317 47.5543C28.0374 47.3486 28.1403 47.04 28.1403 46.7314V42.8914C28.1403 42.5829 28.0374 42.2743 27.8317 42.0686C27.626 41.8629 27.3517 41.7257 27.0774 41.7257H24.026C23.4089 41.6914 22.9289 41.6229 22.4831 41.4857C22.2089 41.3829 22.0374 41.28 21.866 41.1771C21.6946 41.04 21.5917 41.0057 21.4203 40.8C20.8374 40.1829 20.4946 39.2229 20.4946 37.7829V17.7257H27.0431C27.3174 17.7257 27.626 17.5886 27.7974 17.3828C28.0031 17.1771 28.106 16.8686 28.106 16.56V12.6857C28.106 12.3771 28.0031 12.0686 27.7974 11.8628C27.6603 11.6571 27.386 11.52 27.1117 11.52Z" fill="#D00070"/>
<path d="M58.8264 29.2114V29.28V29.3828C58.8264 32.8457 58.4492 36.24 57.1464 38.6743C55.8435 41.0057 53.7521 42.5486 49.7063 42.6171C49.6721 42.6171 49.6378 42.6171 49.5692 42.6171H49.5006C45.4206 42.5829 43.3292 41.0057 41.9921 38.6743C40.6549 36.24 40.2778 32.8114 40.2778 29.3143V29.1086C40.2778 25.6457 40.6549 22.8686 41.9921 20.4343C43.2949 18.0686 45.4206 16.5257 49.5006 16.4914H49.5349H49.6035H49.6721C53.7521 16.5257 55.8435 18.1028 57.1806 20.4686C58.5178 22.9028 58.8606 25.68 58.8606 29.1429V29.2114H58.8264ZM59.9578 14.5028C59.9235 14.4686 59.9235 14.4686 59.8892 14.4343C57.6949 12.4114 54.1635 11.1428 50.0492 11.1428C49.9806 11.1428 49.9121 11.1428 49.8435 11.1428C46.4835 11.1428 43.1578 11.8286 40.2778 14.2971V12.1371V1.16569C40.2778 0.8914 40.1406 0.582829 39.9349 0.377114C39.7292 0.1714 39.4206 0.0685425 39.1121 0.0685425H35.3063C34.9978 0.0685425 34.6892 0.1714 34.4835 0.377114C34.2778 0.582829 34.1406 0.857114 34.1406 1.16569V12.1371V35.4514V46.3543C34.1406 46.6286 34.2778 46.9371 34.4835 47.1429C34.6892 47.3486 34.9978 47.4857 35.3063 47.4857H39.1121C39.4206 47.4857 39.7292 47.3829 39.9349 47.1429C40.1406 46.9371 40.2778 46.6629 40.2778 46.3543V44.0914C42.8149 46.9371 46.4835 47.9314 49.8435 47.9314H50.0835C54.1635 47.9314 57.6949 46.6629 59.8892 44.64C64.0035 40.7314 64.9292 34.7657 64.9635 29.2114C64.9635 23.6914 64.0035 18.4114 59.9578 14.5028Z" fill="#D00070"/>
<path d="M102.746 46.4229L97.98 39.6686L88.4143 25.68L95.8543 17.76L100.174 13.1657L100.449 12.8571C100.963 12.3428 100.689 11.8286 100.483 11.6228C100.277 11.4171 99.9686 11.28 99.6601 11.28H94.6886C94.3801 11.28 94.0029 11.52 93.7972 11.6914L77.1 29.52V14.7086V1.57712C77.1 1.30283 76.9629 0.994259 76.7572 0.788545C76.5515 0.58283 76.2429 0.479973 75.9343 0.479973H72.1286C71.82 0.479973 71.5115 0.58283 71.3057 0.788545C71.1 0.994259 70.9629 1.26854 70.9629 1.57712V14.7086V46.8343C70.9629 47.1086 71.1 47.4171 71.3057 47.6229C71.5115 47.8286 71.82 47.9314 72.1286 47.9314H75.9343C76.2429 47.9314 76.5515 47.8286 76.7572 47.6229C76.9629 47.4171 77.1 47.1429 77.1 46.8343V37.68L84.3343 29.8286L89.2029 37.1314H89.1686L96.0258 47.3486C96.1972 47.5886 96.4372 47.9314 97.0201 47.9314H101.991C102.3 47.9314 102.609 47.8286 102.814 47.5886C103.02 47.4514 103.157 46.9371 102.746 46.4229Z" fill="#D00070"/>
<path d="M112.784 47.9314C114.876 47.9314 116.556 46.2171 116.556 44.1257C116.556 42.0343 114.876 40.32 112.784 40.32C110.693 40.32 109.013 42.0343 109.013 44.1257C109.047 46.2171 110.727 47.9314 112.784 47.9314Z" fill="#6D2077"/>
<path d="M123.516 0.0685463H122.556V47.9314H123.516V0.0685463Z" fill="#75787B"/>
<path d="M139.458 46.2514C138.43 47.28 136.956 47.7943 135.241 47.7943H129.516V31.4742H135.241C136.921 31.4742 138.43 31.9885 139.458 33.0171C141.207 34.7657 141.104 37.1657 141.104 39.5314C141.104 41.8971 141.241 44.4685 139.458 46.2514ZM137.778 34.8C137.093 34.0457 136.167 33.7028 135.001 33.7028H131.984V45.5657H135.001C136.167 45.5657 137.093 45.2228 137.778 44.4685C138.636 43.5428 138.636 41.76 138.636 39.5314C138.636 37.2685 138.636 35.7257 137.778 34.8Z" fill="#75787B"/>
<path d="M145.012 47.76V31.4742H155.435V33.7028H147.48V38.4685H154.269V40.6628H147.48V45.5657H155.435V47.7943H145.012V47.76Z" fill="#75787B"/>
<path d="M164.315 47.76H162.395L157.047 31.4399H159.618L163.39 43.3028L167.161 31.4399H169.767L164.315 47.76Z" fill="#75787B"/>
<path d="M172.203 47.76V31.4742H182.626V33.7028H174.672V38.4685H181.46V40.6628H174.672V45.5657H182.626V47.7943H172.203V47.76Z" fill="#75787B"/>
<path d="M186.258 47.76V31.4742H188.726V45.5657H196.578V47.7943H186.258V47.76Z" fill="#75787B"/>
<path d="M209.195 46.1829C208.063 47.3143 206.623 47.9315 204.875 47.9315C203.126 47.9315 201.72 47.3143 200.589 46.1829C198.978 44.5715 199.012 42.7543 199.012 39.6343C199.012 36.48 198.978 34.6972 200.589 33.0857C201.72 31.9543 203.126 31.3372 204.875 31.3372C206.623 31.3372 208.063 31.9543 209.195 33.0857C210.806 34.6972 210.738 36.5143 210.738 39.6343C210.738 42.7543 210.806 44.5715 209.195 46.1829ZM207.309 34.56C206.726 33.9429 205.835 33.5657 204.875 33.5657C203.915 33.5657 203.023 33.9429 202.44 34.56C201.652 35.4172 201.48 36.3429 201.48 39.6343C201.48 42.9257 201.652 43.8172 202.44 44.7086C203.023 45.3257 203.915 45.7029 204.875 45.7029C205.835 45.7029 206.726 45.3257 207.309 44.7086C208.098 43.8515 208.269 42.9257 208.269 39.6343C208.269 36.3429 208.132 35.4172 207.309 34.56Z" fill="#75787B"/>
<path d="M220.82 41.3485H217.117V47.76H214.648V31.4742H220.82C224.008 31.4742 226.031 33.5657 226.031 36.4114C226.066 39.2571 224.008 41.3485 220.82 41.3485ZM220.683 33.7028H217.117V39.12H220.683C222.397 39.12 223.563 38.1257 223.563 36.4114C223.597 34.6971 222.397 33.7028 220.683 33.7028Z" fill="#75787B"/>
<path d="M229.285 47.76V31.4742H239.708V33.7028H231.754V38.4685H238.542V40.6628H231.754V45.5657H239.708V47.7943H229.285V47.76Z" fill="#75787B"/>
<path d="M252.327 47.76L248.898 40.9028H245.812V47.76H243.344V31.4742H249.652C252.738 31.4742 254.727 33.4628 254.727 36.24C254.727 38.5714 253.321 40.08 251.469 40.56L255.241 47.76H252.327ZM249.447 33.7028H245.778V38.8114H249.447C251.092 38.8114 252.224 37.8857 252.224 36.2742C252.224 34.6628 251.127 33.7028 249.447 33.7028Z" fill="#75787B"/>
<path d="M262.885 47.8972C260.451 47.8972 258.668 47.3143 257.125 45.7371L258.771 44.1257C259.971 45.3257 261.274 45.6686 262.954 45.6686C265.079 45.6686 266.314 44.7429 266.314 43.1657C266.314 42.4457 266.108 41.8629 265.662 41.4857C265.251 41.1086 264.839 40.9371 263.879 40.8L261.959 40.5257C260.622 40.3543 259.594 39.8743 258.874 39.2229C258.085 38.4686 257.674 37.44 257.674 36.1029C257.674 33.2571 259.731 31.3029 263.125 31.3029C265.285 31.3029 266.794 31.8514 268.199 33.1543L266.622 34.6971C265.628 33.7371 264.462 33.4286 263.056 33.4286C261.136 33.4286 260.074 34.5257 260.074 35.9657C260.074 36.5486 260.245 37.0971 260.691 37.4743C261.102 37.8514 261.754 38.1257 262.508 38.2286L264.359 38.5029C265.868 38.7429 266.725 39.0857 267.411 39.7029C268.302 40.4914 268.748 41.6571 268.748 43.0629C268.748 46.1143 266.314 47.8972 262.885 47.8972Z" fill="#75787B"/>
<path d="M134.005 155.711C189.231 155.677 233.998 151.707 233.995 146.844C233.992 141.981 189.22 138.066 133.995 138.1C78.7691 138.134 34.0024 142.103 34.0054 146.966C34.0084 151.829 78.7799 155.744 134.005 155.711Z" fill="#F9FBFE"/>
<path d="M103.477 143.06H48.6659C48.6659 143.06 40.8092 128.181 47.4905 122.244C56.4607 114.254 68.9571 124.076 69.2664 124.369C69.0809 123.783 44.0721 100.137 61.1274 87.2387C81.8114 71.5956 103.477 143.06 103.477 143.06Z" fill="#E7EBF3"/>
<path d="M89.2483 143.061H88.3203C86.2169 132.506 81.9483 114.914 75.4526 104.652C75.267 104.432 75.3289 104.066 75.5764 103.919C75.762 103.772 76.0713 103.772 76.195 103.992C82.8144 114.474 87.083 132.432 89.2483 143.061Z" fill="#FCFDFE"/>
<path d="M90.2996 122.83C90.0521 122.83 89.8047 122.61 89.8047 122.244V113.008C89.8047 112.715 89.9903 112.421 90.2996 112.421C90.6089 112.421 90.7945 112.641 90.7945 113.008V122.317C90.7945 122.61 90.547 122.83 90.2996 122.83Z" fill="#FCFDFE"/>
<path d="M63.1417 143.061H62.0282C59.2443 138.15 57.2028 134.045 57.141 134.045C57.0172 133.825 57.0791 133.458 57.3266 133.312C57.574 133.165 57.8215 133.239 57.9452 133.532C57.9452 133.532 60.1723 137.93 63.1417 143.061Z" fill="#FCFDFE"/>
<path d="M81.836 119.486H80.7224C77.9386 114.575 63.0651 95.3546 63.0033 95.3546C62.8795 95.1347 62.9414 94.7682 63.1889 94.6216C63.4363 94.475 63.6838 94.5483 63.8075 94.8415C63.8075 94.8415 78.8665 114.355 81.836 119.486Z" fill="#FCFDFE"/>
<path d="M211.984 143.061H178.938C178.938 143.061 184.002 88.5453 210.655 94.4578C230.832 98.9673 211.984 143.061 211.984 143.061Z" fill="#E7EBF3"/>
<path d="M206.657 109.166C201.046 118.89 197.277 132.682 195.1 142.505H193.844C196.021 132.583 199.873 118.294 205.652 108.372C205.819 107.975 206.238 107.975 206.489 108.174C206.824 108.372 206.824 108.868 206.657 109.166Z" fill="#FCFDFE"/>
<path d="M202.721 132.682C202.553 132.682 202.386 132.583 202.218 132.384C201.967 132.087 202.051 131.591 202.302 131.293L211.932 121.668C212.184 121.371 212.602 121.47 212.854 121.767C213.105 122.065 213.021 122.561 212.77 122.859L203.139 132.484C202.972 132.583 202.888 132.682 202.721 132.682Z" fill="#FCFDFE"/>
</svg>
