<svg width="54" height="24" viewBox="0 0 54 24" fill="none" xmlns="http://www.w3.org/2000/svg">
<path d="M1.88571 8.9312C2.93143 8.9312 3.77143 8.07406 3.77143 7.02835C3.77143 5.98263 2.93143 5.12549 1.88571 5.12549C0.84 5.12549 0 5.98263 0 7.02835C0 8.0912 0.84 8.9312 1.88571 8.9312Z" fill="#009CDD"/>
<path d="M51.7197 23.8116C52.7654 23.8116 53.6054 22.9544 53.6054 21.9087C53.6054 20.863 52.7654 20.0059 51.7197 20.0059C50.674 20.0059 49.834 20.863 49.834 21.9087C49.8511 22.9544 50.6911 23.8116 51.7197 23.8116Z" fill="#6D2077"/>
<path d="M27.0518 14.6398V14.6741V14.7255C27.0518 16.4569 26.8633 18.1541 26.2118 19.3712C25.5604 20.5369 24.5147 21.3084 22.4918 21.3426C22.4747 21.3426 22.4576 21.3426 22.4233 21.3426H22.389C20.349 21.3255 19.3033 20.5369 18.6347 19.3712C17.9661 18.1541 17.7776 16.4398 17.7776 14.6912V14.5884C17.7776 12.8569 17.9661 11.4684 18.6347 10.2512C19.2861 9.06836 20.349 8.29693 22.389 8.27979H22.4061H22.4404H22.4747C24.5147 8.29693 25.5604 9.0855 26.229 10.2684C26.8976 11.4855 27.069 12.8741 27.069 14.6055V14.6398H27.0518ZM27.6176 7.2855C27.6004 7.26836 27.6004 7.26836 27.5833 7.25122C26.4861 6.23979 24.7204 5.6055 22.6633 5.6055C22.629 5.6055 22.5947 5.6055 22.5604 5.6055C20.8804 5.6055 19.2176 5.94836 17.7776 7.18264V6.10264V0.616931C17.7776 0.479788 17.709 0.325502 17.6061 0.222645C17.5033 0.119788 17.349 0.0683594 17.1947 0.0683594H15.2918C15.1376 0.0683594 14.9833 0.119788 14.8804 0.222645C14.7776 0.325502 14.709 0.462645 14.709 0.616931V6.10264V17.7598V23.2112C14.709 23.3484 14.7776 23.5026 14.8804 23.6055C14.9833 23.7084 15.1376 23.7769 15.2918 23.7769H17.1947C17.349 23.7769 17.5033 23.7255 17.6061 23.6055C17.709 23.5026 17.7776 23.3655 17.7776 23.2112V22.0798C19.0461 23.5026 20.8804 23.9998 22.5604 23.9998H22.6804C24.7204 23.9998 26.4861 23.3655 27.5833 22.3541C29.6404 20.3998 30.1033 17.4169 30.1204 14.6398C30.1204 11.8798 29.6404 9.23979 27.6176 7.2855Z" fill="#FCFDFE"/>
<path d="M11.674 5.50275H8.39973V2.17704V0.565608C8.39973 0.27418 8.14259 0.0341797 7.83402 0.0341797H5.86259C5.7083 0.0341797 5.57116 0.0856082 5.4683 0.188465C5.36545 0.291322 5.29688 0.428465 5.29688 0.565608V3.53132V19.097C5.29688 20.3656 5.65687 21.497 6.46259 22.3542C7.23402 23.1942 8.4683 23.7085 9.89116 23.7085H10.834V23.6913H11.6569C11.794 23.6913 11.9483 23.6228 12.034 23.5199C12.1369 23.417 12.1883 23.2628 12.1883 23.1085V21.1885C12.1883 21.0342 12.1369 20.8799 12.034 20.777C11.9312 20.6742 11.794 20.6056 11.6569 20.6056H10.1312C9.82259 20.5885 9.58259 20.5542 9.35973 20.4856C9.22259 20.4342 9.13687 20.3828 9.05116 20.3313C8.96545 20.2628 8.91402 20.2456 8.8283 20.1428C8.53687 19.8342 8.36545 19.3542 8.36545 18.6342V8.60561H11.6397C11.7769 8.60561 11.9312 8.53704 12.0169 8.43418C12.1197 8.33132 12.1712 8.17704 12.1712 8.02275V6.08561C12.1712 5.93132 12.1197 5.77704 12.0169 5.67418C11.9483 5.57132 11.8112 5.50275 11.674 5.50275Z" fill="#FCFDFE"/>
<path d="M48.2059 22.9714L45.823 19.5943L41.0402 12.6L44.7602 8.64L46.9202 6.34286L47.0573 6.18857C47.3145 5.93143 47.1773 5.67429 47.0745 5.57143C46.9716 5.46857 46.8173 5.4 46.663 5.4H44.1773C44.023 5.4 43.8345 5.52 43.7316 5.60571L35.383 14.52V7.11429V0.548571C35.383 0.411429 35.3145 0.257143 35.2116 0.154286C35.1087 0.0514286 34.9545 0 34.8002 0H32.8973C32.743 0 32.5887 0.0514286 32.4859 0.154286C32.383 0.257143 32.3145 0.394286 32.3145 0.548571V7.11429V23.1771C32.3145 23.3143 32.383 23.4686 32.4859 23.5714C32.5887 23.6743 32.743 23.7257 32.8973 23.7257H34.8002C34.9545 23.7257 35.1087 23.6743 35.2116 23.5714C35.3145 23.4686 35.383 23.3314 35.383 23.1771V18.6L39.0002 14.6743L41.4345 18.3257H41.4173L44.8459 23.4343C44.9316 23.5543 45.0516 23.7257 45.343 23.7257H47.8287C47.983 23.7257 48.1373 23.6743 48.2402 23.5543C48.343 23.4857 48.4116 23.2286 48.2059 22.9714Z" fill="#FCFDFE"/>
</svg>
