<svg width="136" height="24" viewBox="0 0 136 24" fill="none" xmlns="http://www.w3.org/2000/svg">
<path d="M60.5191 0.0341797H60.0391V23.9656H60.5191V0.0341797Z" fill="#75787B"/>
<path d="M2.45603 8.93145C3.50174 8.93145 4.34174 8.0743 4.34174 7.02859C4.34174 5.98288 3.50174 5.12573 2.45603 5.12573C1.41031 5.12573 0.570312 5.98288 0.570312 7.02859C0.570312 8.09145 1.41031 8.93145 2.45603 8.93145Z" fill="#009CDD"/>
<path d="M52.29 23.8113C53.3357 23.8113 54.1757 22.9542 54.1757 21.9085C54.1757 20.8628 53.3357 20.0056 52.29 20.0056C51.2443 20.0056 50.4043 20.8628 50.4043 21.9085C50.4214 22.9542 51.2614 23.8113 52.29 23.8113Z" fill="#6D2077"/>
<path d="M27.6222 14.64V14.6743V14.7257C27.6222 16.4572 27.4336 18.1543 26.7822 19.3715C26.1307 20.5372 25.085 21.3086 23.0622 21.3429C23.045 21.3429 23.0279 21.3429 22.9936 21.3429H22.9593C20.9193 21.3257 19.8736 20.5372 19.205 19.3715C18.5364 18.1543 18.3479 16.44 18.3479 14.6915V14.5886C18.3479 12.8572 18.5364 11.4686 19.205 10.2515C19.8564 9.0686 20.9193 8.29717 22.9593 8.28003H22.9764H23.0107H23.045C25.085 8.29717 26.1307 9.08575 26.7993 10.2686C27.4679 11.4857 27.6393 12.8743 27.6393 14.6057V14.64H27.6222ZM28.1879 7.28575C28.1707 7.2686 28.1707 7.2686 28.1536 7.25146C27.0564 6.24003 25.2907 5.60575 23.2336 5.60575C23.1993 5.60575 23.165 5.60575 23.1307 5.60575C21.4507 5.60575 19.7879 5.9486 18.3479 7.18289V6.10289V0.617175C18.3479 0.480032 18.2793 0.325746 18.1764 0.222889C18.0736 0.120032 17.9193 0.0686035 17.765 0.0686035H15.8622C15.7079 0.0686035 15.5536 0.120032 15.4507 0.222889C15.3479 0.325746 15.2793 0.462889 15.2793 0.617175V6.10289V17.76V23.2115C15.2793 23.3486 15.3479 23.5029 15.4507 23.6057C15.5536 23.7086 15.7079 23.7772 15.8622 23.7772H17.765C17.9193 23.7772 18.0736 23.7257 18.1764 23.6057C18.2793 23.5029 18.3479 23.3657 18.3479 23.2115V22.08C19.6164 23.5029 21.4507 24 23.1307 24H23.2507C25.2907 24 27.0564 23.3657 28.1536 22.3543C30.2107 20.4 30.6736 17.4172 30.6907 14.64C30.6907 11.88 30.2107 9.24003 28.1879 7.28575Z" fill="#D00070"/>
<path d="M12.2443 5.50275H8.97004V2.17704V0.565608C8.97004 0.27418 8.7129 0.0341797 8.40433 0.0341797H6.4329C6.27862 0.0341797 6.14147 0.0856082 6.03862 0.188465C5.93576 0.291322 5.86719 0.428465 5.86719 0.565608V3.53132V19.097C5.86719 20.3656 6.22719 21.497 7.0329 22.3542C7.80433 23.1942 9.03862 23.7085 10.4615 23.7085H11.4043V23.6913H12.2272C12.3643 23.6913 12.5186 23.6228 12.6043 23.5199C12.7072 23.417 12.7586 23.2628 12.7586 23.1085V21.1885C12.7586 21.0342 12.7072 20.8799 12.6043 20.777C12.5015 20.6742 12.3643 20.6056 12.2272 20.6056H10.7015C10.3929 20.5885 10.1529 20.5542 9.93004 20.4856C9.7929 20.4342 9.70719 20.3828 9.62147 20.3313C9.53576 20.2628 9.48433 20.2456 9.39862 20.1428C9.10719 19.8342 8.93576 19.3542 8.93576 18.6342V8.60561H12.21C12.3472 8.60561 12.5015 8.53704 12.5872 8.43418C12.69 8.33132 12.7415 8.17704 12.7415 8.02275V6.08561C12.7415 5.93132 12.69 5.77704 12.5872 5.67418C12.5186 5.57132 12.3815 5.50275 12.2443 5.50275Z" fill="#D00070"/>
<path d="M48.7762 22.9714L46.3933 19.5943L41.6105 12.6L45.3305 8.64L47.4905 6.34286L47.6276 6.18857C47.8848 5.93143 47.7476 5.67429 47.6448 5.57143C47.5419 5.46857 47.3876 5.4 47.2333 5.4H44.7476C44.5933 5.4 44.4048 5.52 44.3019 5.60571L35.9533 14.52V7.11429V0.548571C35.9533 0.411429 35.8848 0.257143 35.7819 0.154286C35.6791 0.0514286 35.5248 0 35.3705 0H33.4676C33.3133 0 33.1591 0.0514286 33.0562 0.154286C32.9533 0.257143 32.8848 0.394286 32.8848 0.548571V7.11429V23.1771C32.8848 23.3143 32.9533 23.4686 33.0562 23.5714C33.1591 23.6743 33.3133 23.7257 33.4676 23.7257H35.3705C35.5248 23.7257 35.6791 23.6743 35.7819 23.5714C35.8848 23.4686 35.9533 23.3314 35.9533 23.1771V18.6L39.5705 14.6743L42.0048 18.3257H41.9876L45.4162 23.4343C45.5019 23.5543 45.6219 23.7257 45.9133 23.7257H48.3991C48.5533 23.7257 48.7076 23.6743 48.8105 23.5543C48.9133 23.4857 48.9819 23.2286 48.7762 22.9714Z" fill="#D00070"/>
<path d="M71.3542 23.1598C70.84 23.6741 70.1028 23.9312 69.2457 23.9312H66.3828V15.7712H69.2457C70.0857 15.7712 70.84 16.0284 71.3542 16.5427C72.2285 17.417 72.1771 18.617 72.1771 19.7998C72.1771 20.9827 72.2457 22.2684 71.3542 23.1598ZM70.5142 17.4341C70.1714 17.057 69.7085 16.8855 69.1257 16.8855H67.6171V22.817H69.1257C69.7085 22.817 70.1714 22.6455 70.5142 22.2684C70.9428 21.8055 70.9428 20.9141 70.9428 19.7998C70.9428 18.6684 70.9428 17.897 70.5142 17.4341Z" fill="#75787B"/>
<path d="M74.1309 23.9141V15.7712H79.3423V16.8855H75.3651V19.2684H78.7594V20.3655H75.3651V22.817H79.3423V23.9312H74.1309V23.9141Z" fill="#75787B"/>
<path d="M83.7827 23.9142H82.8227L80.1484 15.7542H81.4342L83.3199 21.6856L85.2056 15.7542H86.5084L83.7827 23.9142Z" fill="#75787B"/>
<path d="M87.7256 23.9141V15.7712H92.937V16.8855H88.9599V19.2684H92.3542V20.3655H88.9599V22.817H92.937V23.9312H87.7256V23.9141Z" fill="#75787B"/>
<path d="M94.7539 23.9141V15.7712H95.9882V22.817H99.9139V23.9312H94.7539V23.9141Z" fill="#75787B"/>
<path d="M106.222 23.1255C105.657 23.6912 104.937 23.9998 104.062 23.9998C103.188 23.9998 102.485 23.6912 101.919 23.1255C101.114 22.3198 101.131 21.4112 101.131 19.8512C101.131 18.2741 101.114 17.3826 101.919 16.5769C102.485 16.0112 103.188 15.7026 104.062 15.7026C104.937 15.7026 105.657 16.0112 106.222 16.5769C107.028 17.3826 106.994 18.2912 106.994 19.8512C106.994 21.4112 107.028 22.3198 106.222 23.1255ZM105.279 17.3141C104.988 17.0055 104.542 16.8169 104.062 16.8169C103.582 16.8169 103.137 17.0055 102.845 17.3141C102.451 17.7426 102.365 18.2055 102.365 19.8512C102.365 21.4969 102.451 21.9426 102.845 22.3884C103.137 22.6969 103.582 22.8855 104.062 22.8855C104.542 22.8855 104.988 22.6969 105.279 22.3884C105.674 21.9598 105.759 21.4969 105.759 19.8512C105.759 18.2055 105.691 17.7426 105.279 17.3141Z" fill="#75787B"/>
<path d="M112.034 20.7084H110.183V23.9141H108.948V15.7712H112.034C113.628 15.7712 114.64 16.817 114.64 18.2398C114.657 19.6627 113.628 20.7084 112.034 20.7084ZM111.965 16.8855H110.183V19.5941H111.965C112.823 19.5941 113.405 19.097 113.405 18.2398C113.423 17.3827 112.823 16.8855 111.965 16.8855Z" fill="#75787B"/>
<path d="M116.269 23.9141V15.7712H121.48V16.8855H117.503V19.2684H120.897V20.3655H117.503V22.817H121.48V23.9312H116.269V23.9141Z" fill="#75787B"/>
<path d="M127.788 23.9141L126.074 20.4855H124.531V23.9141H123.297V15.7712H126.451C127.994 15.7712 128.988 16.7655 128.988 18.1541C128.988 19.3198 128.285 20.0741 127.36 20.3141L129.245 23.9141H127.788ZM126.348 16.8855H124.514V19.4398H126.348C127.171 19.4398 127.737 18.977 127.737 18.1712C127.737 17.3655 127.188 16.8855 126.348 16.8855Z" fill="#75787B"/>
<path d="M133.068 23.9827C131.851 23.9827 130.96 23.6913 130.188 22.9027L131.011 22.097C131.611 22.697 132.263 22.8684 133.103 22.8684C134.166 22.8684 134.783 22.4055 134.783 21.617C134.783 21.257 134.68 20.9655 134.457 20.777C134.251 20.5884 134.046 20.5027 133.566 20.4341L132.606 20.297C131.937 20.2113 131.423 19.9713 131.063 19.6455C130.668 19.2684 130.463 18.7541 130.463 18.0855C130.463 16.6627 131.491 15.6855 133.188 15.6855C134.268 15.6855 135.023 15.9598 135.726 16.6113L134.937 17.3827C134.44 16.9027 133.857 16.7484 133.154 16.7484C132.194 16.7484 131.663 17.297 131.663 18.017C131.663 18.3084 131.748 18.5827 131.971 18.7713C132.177 18.9598 132.503 19.097 132.88 19.1484L133.806 19.2855C134.56 19.4055 134.988 19.577 135.331 19.8855C135.777 20.2798 136 20.8627 136 21.5655C136 23.0913 134.783 23.9827 133.068 23.9827Z" fill="#75787B"/>
</svg>
